G04 #@! TF.GenerationSoftware,KiCad,Pcbnew,(6.0.10-0)*
G04 #@! TF.CreationDate,2023-01-01T02:05:10-05:00*
G04 #@! TF.ProjectId,8CT-PowerMeter,3843542d-506f-4776-9572-4d657465722e,rev?*
G04 #@! TF.SameCoordinates,Original*
G04 #@! TF.FileFunction,Soldermask,Bot*
G04 #@! TF.FilePolarity,Negative*
%FSLAX46Y46*%
G04 Gerber Fmt 4.6, Leading zero omitted, Abs format (unit mm)*
G04 Created by KiCad (PCBNEW (6.0.10-0)) date 2023-01-01 02:05:10*
%MOMM*%
%LPD*%
G01*
G04 APERTURE LIST*
G04 Aperture macros list*
%AMRoundRect*
0 Rectangle with rounded corners*
0 $1 Rounding radius*
0 $2 $3 $4 $5 $6 $7 $8 $9 X,Y pos of 4 corners*
0 Add a 4 corners polygon primitive as box body*
4,1,4,$2,$3,$4,$5,$6,$7,$8,$9,$2,$3,0*
0 Add four circle primitives for the rounded corners*
1,1,$1+$1,$2,$3*
1,1,$1+$1,$4,$5*
1,1,$1+$1,$6,$7*
1,1,$1+$1,$8,$9*
0 Add four rect primitives between the rounded corners*
20,1,$1+$1,$2,$3,$4,$5,0*
20,1,$1+$1,$4,$5,$6,$7,0*
20,1,$1+$1,$6,$7,$8,$9,0*
20,1,$1+$1,$8,$9,$2,$3,0*%
G04 Aperture macros list end*
%ADD10R,2.200000X2.200000*%
%ADD11C,2.200000*%
%ADD12R,1.350000X1.350000*%
%ADD13O,1.350000X1.350000*%
%ADD14C,1.350000*%
%ADD15C,0.700000*%
%ADD16C,4.400000*%
%ADD17R,1.700000X1.700000*%
%ADD18O,1.700000X1.700000*%
%ADD19RoundRect,0.250000X0.450000X-0.262500X0.450000X0.262500X-0.450000X0.262500X-0.450000X-0.262500X0*%
%ADD20RoundRect,0.250000X0.262500X0.450000X-0.262500X0.450000X-0.262500X-0.450000X0.262500X-0.450000X0*%
%ADD21RoundRect,0.250000X-0.450000X0.262500X-0.450000X-0.262500X0.450000X-0.262500X0.450000X0.262500X0*%
%ADD22R,1.600000X1.600000*%
%ADD23O,1.600000X1.600000*%
%ADD24RoundRect,0.250000X-0.250000X-0.475000X0.250000X-0.475000X0.250000X0.475000X-0.250000X0.475000X0*%
G04 APERTURE END LIST*
D10*
X149474000Y-92672000D03*
D11*
X152014000Y-92672000D03*
D12*
X143045000Y-70780000D03*
D13*
X143045000Y-72780000D03*
X143045000Y-74780000D03*
X143045000Y-76780000D03*
X143045000Y-78780000D03*
X143045000Y-80780000D03*
X143045000Y-82780000D03*
X143045000Y-84780000D03*
X157045000Y-84780000D03*
X157045000Y-82780000D03*
X157045000Y-80780000D03*
X157045000Y-78780000D03*
X157045000Y-76780000D03*
X157045000Y-74780000D03*
X157045000Y-72780000D03*
D14*
X157045000Y-70780000D03*
D15*
X168688926Y-71773726D03*
X169172200Y-70607000D03*
X168688926Y-69440274D03*
X167522200Y-72257000D03*
X166355474Y-71773726D03*
X167522200Y-68957000D03*
X165872200Y-70607000D03*
D16*
X167522200Y-70607000D03*
D15*
X166355474Y-69440274D03*
D17*
X163212000Y-75400000D03*
D18*
X165752000Y-75400000D03*
X163212000Y-77940000D03*
X165752000Y-77940000D03*
X163212000Y-80480000D03*
X165752000Y-80480000D03*
X163212000Y-83020000D03*
X165752000Y-83020000D03*
X163212000Y-85560000D03*
X165752000Y-85560000D03*
X163212000Y-88100000D03*
X165752000Y-88100000D03*
X163212000Y-90640000D03*
X165752000Y-90640000D03*
X163212000Y-93180000D03*
X165752000Y-93180000D03*
D15*
X139966726Y-71666726D03*
X140450000Y-70500000D03*
X137633274Y-71666726D03*
X139966726Y-69333274D03*
X137150000Y-70500000D03*
X138800000Y-72150000D03*
X137633274Y-69333274D03*
X138800000Y-68850000D03*
D16*
X138800000Y-70500000D03*
D19*
X159718000Y-83487500D03*
X159718000Y-81662500D03*
X140000000Y-82712500D03*
X140000000Y-80887500D03*
D20*
X140912500Y-74800000D03*
X139087500Y-74800000D03*
D19*
X157686000Y-91703000D03*
X157686000Y-89878000D03*
D21*
X159718000Y-89878000D03*
X159718000Y-91703000D03*
D22*
X146250000Y-87375000D03*
D23*
X146250000Y-84835000D03*
X146250000Y-82295000D03*
X146250000Y-79755000D03*
X146250000Y-77215000D03*
X146250000Y-74675000D03*
X146250000Y-72135000D03*
X146250000Y-69595000D03*
X153870000Y-69595000D03*
X153870000Y-72135000D03*
X153870000Y-74675000D03*
X153870000Y-77215000D03*
X153870000Y-79755000D03*
X153870000Y-82295000D03*
X153870000Y-84835000D03*
X153870000Y-87375000D03*
D24*
X158768000Y-94704000D03*
X160668000Y-94704000D03*
M02*
