G04 #@! TF.GenerationSoftware,KiCad,Pcbnew,(6.0.10-0)*
G04 #@! TF.CreationDate,2023-01-01T02:05:10-05:00*
G04 #@! TF.ProjectId,8CT-PowerMeter,3843542d-506f-4776-9572-4d657465722e,rev?*
G04 #@! TF.SameCoordinates,Original*
G04 #@! TF.FileFunction,Copper,L3,Inr*
G04 #@! TF.FilePolarity,Positive*
%FSLAX46Y46*%
G04 Gerber Fmt 4.6, Leading zero omitted, Abs format (unit mm)*
G04 Created by KiCad (PCBNEW (6.0.10-0)) date 2023-01-01 02:05:10*
%MOMM*%
%LPD*%
G01*
G04 APERTURE LIST*
G04 #@! TA.AperFunction,ComponentPad*
%ADD10R,2.200000X2.200000*%
G04 #@! TD*
G04 #@! TA.AperFunction,ComponentPad*
%ADD11C,2.200000*%
G04 #@! TD*
G04 #@! TA.AperFunction,ComponentPad*
%ADD12R,1.350000X1.350000*%
G04 #@! TD*
G04 #@! TA.AperFunction,ComponentPad*
%ADD13O,1.350000X1.350000*%
G04 #@! TD*
G04 #@! TA.AperFunction,ComponentPad*
%ADD14C,1.350000*%
G04 #@! TD*
G04 #@! TA.AperFunction,ComponentPad*
%ADD15C,0.700000*%
G04 #@! TD*
G04 #@! TA.AperFunction,ComponentPad*
%ADD16C,4.400000*%
G04 #@! TD*
G04 #@! TA.AperFunction,ComponentPad*
%ADD17R,1.700000X1.700000*%
G04 #@! TD*
G04 #@! TA.AperFunction,ComponentPad*
%ADD18O,1.700000X1.700000*%
G04 #@! TD*
G04 #@! TA.AperFunction,ComponentPad*
%ADD19R,1.600000X1.600000*%
G04 #@! TD*
G04 #@! TA.AperFunction,ComponentPad*
%ADD20O,1.600000X1.600000*%
G04 #@! TD*
G04 #@! TA.AperFunction,ViaPad*
%ADD21C,0.600000*%
G04 #@! TD*
G04 #@! TA.AperFunction,Conductor*
%ADD22C,0.500000*%
G04 #@! TD*
G04 APERTURE END LIST*
D10*
X149474000Y-92672000D03*
D11*
X152014000Y-92672000D03*
D12*
X143045000Y-70780000D03*
D13*
X143045000Y-72780000D03*
X143045000Y-74780000D03*
X143045000Y-76780000D03*
X143045000Y-78780000D03*
X143045000Y-80780000D03*
X143045000Y-82780000D03*
X143045000Y-84780000D03*
X157045000Y-84780000D03*
X157045000Y-82780000D03*
X157045000Y-80780000D03*
X157045000Y-78780000D03*
X157045000Y-76780000D03*
X157045000Y-74780000D03*
X157045000Y-72780000D03*
D14*
X157045000Y-70780000D03*
D15*
X168688926Y-71773726D03*
X169172200Y-70607000D03*
X168688926Y-69440274D03*
X167522200Y-72257000D03*
X166355474Y-71773726D03*
X167522200Y-68957000D03*
X165872200Y-70607000D03*
D16*
X167522200Y-70607000D03*
D15*
X166355474Y-69440274D03*
D17*
X163212000Y-75400000D03*
D18*
X165752000Y-75400000D03*
X163212000Y-77940000D03*
X165752000Y-77940000D03*
X163212000Y-80480000D03*
X165752000Y-80480000D03*
X163212000Y-83020000D03*
X165752000Y-83020000D03*
X163212000Y-85560000D03*
X165752000Y-85560000D03*
X163212000Y-88100000D03*
X165752000Y-88100000D03*
X163212000Y-90640000D03*
X165752000Y-90640000D03*
X163212000Y-93180000D03*
X165752000Y-93180000D03*
D15*
X139966726Y-71666726D03*
X140450000Y-70500000D03*
X137633274Y-71666726D03*
X139966726Y-69333274D03*
X137150000Y-70500000D03*
X138800000Y-72150000D03*
X137633274Y-69333274D03*
X138800000Y-68850000D03*
D16*
X138800000Y-70500000D03*
D19*
X146250000Y-87375000D03*
D20*
X146250000Y-84835000D03*
X146250000Y-82295000D03*
X146250000Y-79755000D03*
X146250000Y-77215000D03*
X146250000Y-74675000D03*
X146250000Y-72135000D03*
X146250000Y-69595000D03*
X153870000Y-69595000D03*
X153870000Y-72135000D03*
X153870000Y-74675000D03*
X153870000Y-77215000D03*
X153870000Y-79755000D03*
X153870000Y-82295000D03*
X153870000Y-84835000D03*
X153870000Y-87375000D03*
D21*
X137260000Y-94950000D03*
X145800000Y-92100000D03*
X138300000Y-85000000D03*
D22*
X155400000Y-69304000D02*
X155654000Y-69050000D01*
X159464000Y-69304000D02*
X159464000Y-77940000D01*
X155400000Y-82258000D02*
X155400000Y-69304000D01*
X159210000Y-69050000D02*
X159464000Y-69304000D01*
X153870000Y-82295000D02*
X155363000Y-82295000D01*
X159464000Y-77940000D02*
X163212000Y-77940000D01*
X155363000Y-82295000D02*
X155400000Y-82258000D01*
X155654000Y-69050000D02*
X159210000Y-69050000D01*
X159210000Y-80480000D02*
X163212000Y-80480000D01*
X156579009Y-85905000D02*
X157595000Y-85905000D01*
X158956000Y-80734000D02*
X159210000Y-80480000D01*
X158956000Y-84544000D02*
X158956000Y-80734000D01*
X153907000Y-84798000D02*
X155472009Y-84798000D01*
X155472009Y-84798000D02*
X156579009Y-85905000D01*
X157595000Y-85905000D02*
X158956000Y-84544000D01*
X161750000Y-83020000D02*
X163212000Y-83020000D01*
X158165000Y-86605000D02*
X155937000Y-86605000D01*
X152620000Y-78465000D02*
X153870000Y-77215000D01*
X153392233Y-86125000D02*
X152620000Y-85352767D01*
X155457000Y-86125000D02*
X153392233Y-86125000D01*
X152620000Y-85352767D02*
X152620000Y-78465000D01*
X161750000Y-83020000D02*
X158165000Y-86605000D01*
X155937000Y-86605000D02*
X155457000Y-86125000D01*
X158956000Y-93180000D02*
X158194000Y-92418000D01*
X155908000Y-92418000D02*
X153114000Y-89624000D01*
X149812000Y-89624000D02*
X147563000Y-87375000D01*
X163212000Y-93180000D02*
X158956000Y-93180000D01*
X153114000Y-89624000D02*
X149812000Y-89624000D01*
X158194000Y-92418000D02*
X155908000Y-92418000D01*
X147563000Y-87375000D02*
X146250000Y-87375000D01*
M02*
