G04 #@! TF.GenerationSoftware,KiCad,Pcbnew,(6.0.10-0)*
G04 #@! TF.CreationDate,2023-01-01T02:05:09-05:00*
G04 #@! TF.ProjectId,8CT-PowerMeter,3843542d-506f-4776-9572-4d657465722e,rev?*
G04 #@! TF.SameCoordinates,Original*
G04 #@! TF.FileFunction,Copper,L1,Top*
G04 #@! TF.FilePolarity,Positive*
%FSLAX46Y46*%
G04 Gerber Fmt 4.6, Leading zero omitted, Abs format (unit mm)*
G04 Created by KiCad (PCBNEW (6.0.10-0)) date 2023-01-01 02:05:09*
%MOMM*%
%LPD*%
G01*
G04 APERTURE LIST*
G04 Aperture macros list*
%AMRoundRect*
0 Rectangle with rounded corners*
0 $1 Rounding radius*
0 $2 $3 $4 $5 $6 $7 $8 $9 X,Y pos of 4 corners*
0 Add a 4 corners polygon primitive as box body*
4,1,4,$2,$3,$4,$5,$6,$7,$8,$9,$2,$3,0*
0 Add four circle primitives for the rounded corners*
1,1,$1+$1,$2,$3*
1,1,$1+$1,$4,$5*
1,1,$1+$1,$6,$7*
1,1,$1+$1,$8,$9*
0 Add four rect primitives between the rounded corners*
20,1,$1+$1,$2,$3,$4,$5,0*
20,1,$1+$1,$4,$5,$6,$7,0*
20,1,$1+$1,$6,$7,$8,$9,0*
20,1,$1+$1,$8,$9,$2,$3,0*%
G04 Aperture macros list end*
G04 #@! TA.AperFunction,SMDPad,CuDef*
%ADD10RoundRect,0.250000X0.250000X0.475000X-0.250000X0.475000X-0.250000X-0.475000X0.250000X-0.475000X0*%
G04 #@! TD*
G04 #@! TA.AperFunction,SMDPad,CuDef*
%ADD11RoundRect,0.250000X-0.262500X-0.450000X0.262500X-0.450000X0.262500X0.450000X-0.262500X0.450000X0*%
G04 #@! TD*
G04 #@! TA.AperFunction,SMDPad,CuDef*
%ADD12RoundRect,0.250000X0.450000X-0.262500X0.450000X0.262500X-0.450000X0.262500X-0.450000X-0.262500X0*%
G04 #@! TD*
G04 #@! TA.AperFunction,SMDPad,CuDef*
%ADD13R,1.500000X2.000000*%
G04 #@! TD*
G04 #@! TA.AperFunction,SMDPad,CuDef*
%ADD14R,3.800000X2.000000*%
G04 #@! TD*
G04 #@! TA.AperFunction,ComponentPad*
%ADD15R,2.200000X2.200000*%
G04 #@! TD*
G04 #@! TA.AperFunction,ComponentPad*
%ADD16C,2.200000*%
G04 #@! TD*
G04 #@! TA.AperFunction,SMDPad,CuDef*
%ADD17RoundRect,0.250000X0.475000X-0.250000X0.475000X0.250000X-0.475000X0.250000X-0.475000X-0.250000X0*%
G04 #@! TD*
G04 #@! TA.AperFunction,ComponentPad*
%ADD18R,1.350000X1.350000*%
G04 #@! TD*
G04 #@! TA.AperFunction,ComponentPad*
%ADD19O,1.350000X1.350000*%
G04 #@! TD*
G04 #@! TA.AperFunction,ComponentPad*
%ADD20C,1.350000*%
G04 #@! TD*
G04 #@! TA.AperFunction,ComponentPad*
%ADD21C,0.700000*%
G04 #@! TD*
G04 #@! TA.AperFunction,ComponentPad*
%ADD22C,4.400000*%
G04 #@! TD*
G04 #@! TA.AperFunction,ComponentPad*
%ADD23R,1.700000X1.700000*%
G04 #@! TD*
G04 #@! TA.AperFunction,ComponentPad*
%ADD24O,1.700000X1.700000*%
G04 #@! TD*
G04 #@! TA.AperFunction,ComponentPad*
%ADD25R,1.600000X1.600000*%
G04 #@! TD*
G04 #@! TA.AperFunction,ComponentPad*
%ADD26O,1.600000X1.600000*%
G04 #@! TD*
G04 #@! TA.AperFunction,ViaPad*
%ADD27C,0.600000*%
G04 #@! TD*
G04 #@! TA.AperFunction,Conductor*
%ADD28C,0.600000*%
G04 #@! TD*
G04 #@! TA.AperFunction,Conductor*
%ADD29C,1.000000*%
G04 #@! TD*
G04 #@! TA.AperFunction,Conductor*
%ADD30C,0.500000*%
G04 #@! TD*
G04 APERTURE END LIST*
D10*
X140200000Y-86300000D03*
X138300000Y-86300000D03*
D11*
X138387500Y-74800000D03*
X140212500Y-74800000D03*
D12*
X159718000Y-83487500D03*
X159718000Y-81662500D03*
X140000000Y-80712500D03*
X140000000Y-78887500D03*
D13*
X138900000Y-94950000D03*
D14*
X141200000Y-88650000D03*
D13*
X141200000Y-94950000D03*
X143500000Y-94950000D03*
D15*
X149474000Y-92672000D03*
D16*
X152014000Y-92672000D03*
D17*
X145800000Y-95250000D03*
X145800000Y-93350000D03*
D18*
X143045000Y-70780000D03*
D19*
X143045000Y-72780000D03*
X143045000Y-74780000D03*
X143045000Y-76780000D03*
X143045000Y-78780000D03*
X143045000Y-80780000D03*
X143045000Y-82780000D03*
X143045000Y-84780000D03*
X157045000Y-84780000D03*
X157045000Y-82780000D03*
X157045000Y-80780000D03*
X157045000Y-78780000D03*
X157045000Y-76780000D03*
X157045000Y-74780000D03*
X157045000Y-72780000D03*
D20*
X157045000Y-70780000D03*
D21*
X168688926Y-71773726D03*
X169172200Y-70607000D03*
X168688926Y-69440274D03*
X167522200Y-72257000D03*
X166355474Y-71773726D03*
X167522200Y-68957000D03*
X165872200Y-70607000D03*
D22*
X167522200Y-70607000D03*
D21*
X166355474Y-69440274D03*
D23*
X163212000Y-75400000D03*
D24*
X165752000Y-75400000D03*
X163212000Y-77940000D03*
X165752000Y-77940000D03*
X163212000Y-80480000D03*
X165752000Y-80480000D03*
X163212000Y-83020000D03*
X165752000Y-83020000D03*
X163212000Y-85560000D03*
X165752000Y-85560000D03*
X163212000Y-88100000D03*
X165752000Y-88100000D03*
X163212000Y-90640000D03*
X165752000Y-90640000D03*
X163212000Y-93180000D03*
X165752000Y-93180000D03*
D21*
X139966726Y-71666726D03*
X140450000Y-70500000D03*
X137633274Y-71666726D03*
X139966726Y-69333274D03*
X137150000Y-70500000D03*
X138800000Y-72150000D03*
X137633274Y-69333274D03*
X138800000Y-68850000D03*
D22*
X138800000Y-70500000D03*
D25*
X146250000Y-87375000D03*
D26*
X146250000Y-84835000D03*
X146250000Y-82295000D03*
X146250000Y-79755000D03*
X146250000Y-77215000D03*
X146250000Y-74675000D03*
X146250000Y-72135000D03*
X146250000Y-69595000D03*
X153870000Y-69595000D03*
X153870000Y-72135000D03*
X153870000Y-74675000D03*
X153870000Y-77215000D03*
X153870000Y-79755000D03*
X153870000Y-82295000D03*
X153870000Y-84835000D03*
X153870000Y-87375000D03*
D27*
X137260000Y-94950000D03*
X145800000Y-92100000D03*
X138300000Y-85000000D03*
D28*
X138900000Y-94950000D02*
X137260000Y-94950000D01*
X138300000Y-85000000D02*
X138300000Y-86300000D01*
X145800000Y-92100000D02*
X145800000Y-93262500D01*
D29*
X143500000Y-94950000D02*
X145500000Y-94950000D01*
X145500000Y-94950000D02*
X145800000Y-95250000D01*
X145800000Y-95250000D02*
X146896000Y-95250000D01*
X146896000Y-95250000D02*
X149474000Y-92672000D01*
D30*
X143045000Y-74780000D02*
X140585786Y-77239214D01*
X140585772Y-77239200D02*
G75*
G03*
X140000000Y-78653427I1414228J-1414200D01*
G01*
D28*
X143045000Y-70780000D02*
X140798286Y-73026714D01*
X140798272Y-73026700D02*
G75*
G03*
X140212500Y-74440927I1414228J-1414200D01*
G01*
D30*
X159507000Y-81242000D02*
X157045000Y-78780000D01*
X155525787Y-75260787D02*
X157045000Y-76780000D01*
X154111573Y-74675020D02*
G75*
G02*
X155525786Y-75260788I27J-1999980D01*
G01*
X154400000Y-72135000D02*
X157045000Y-74780000D01*
G04 #@! TA.AperFunction,Conductor*
G36*
X145207743Y-91548314D02*
G01*
X145169493Y-91585771D01*
X145071235Y-91738238D01*
X145068826Y-91744858D01*
X145068824Y-91744861D01*
X145036434Y-91833853D01*
X145009197Y-91908685D01*
X144986463Y-92088640D01*
X144987151Y-92095653D01*
X144990899Y-92133882D01*
X144991500Y-92146177D01*
X144991500Y-92344160D01*
X144971498Y-92412281D01*
X144931803Y-92451304D01*
X144850652Y-92501522D01*
X144725695Y-92626697D01*
X144632885Y-92777262D01*
X144577203Y-92945139D01*
X144566500Y-93049600D01*
X144566500Y-93343752D01*
X144546498Y-93411873D01*
X144492842Y-93458366D01*
X144422568Y-93468470D01*
X144396276Y-93461736D01*
X144360316Y-93448255D01*
X144298134Y-93441500D01*
X142701866Y-93441500D01*
X142639684Y-93448255D01*
X142503295Y-93499385D01*
X142386739Y-93586739D01*
X142372926Y-93605170D01*
X142316067Y-93647683D01*
X142245248Y-93652708D01*
X142198037Y-93631537D01*
X142179209Y-93617857D01*
X142083982Y-93569336D01*
X142065355Y-93563284D01*
X141986373Y-93550775D01*
X141976527Y-93550000D01*
X141918115Y-93550000D01*
X141902876Y-93554475D01*
X141901671Y-93555865D01*
X141900000Y-93563548D01*
X141900000Y-94341345D01*
X140500000Y-94596900D01*
X140500000Y-93568116D01*
X140495525Y-93552877D01*
X140494135Y-93551672D01*
X140486452Y-93550001D01*
X140423475Y-93550001D01*
X140413626Y-93550776D01*
X140334649Y-93563283D01*
X140316014Y-93569338D01*
X140220791Y-93617857D01*
X140201963Y-93631537D01*
X140135096Y-93655397D01*
X140065944Y-93639319D01*
X140027075Y-93605170D01*
X140013261Y-93586739D01*
X139896705Y-93499385D01*
X139760316Y-93448255D01*
X139698134Y-93441500D01*
X138101866Y-93441500D01*
X138039684Y-93448255D01*
X137903295Y-93499385D01*
X137786739Y-93586739D01*
X137699385Y-93703295D01*
X137648255Y-93839684D01*
X137641500Y-93901866D01*
X137641500Y-94015500D01*
X137621498Y-94083621D01*
X137567842Y-94130114D01*
X137515500Y-94141500D01*
X137315905Y-94141500D01*
X137300986Y-94140614D01*
X137300000Y-94140496D01*
X137300000Y-90542932D01*
X139700000Y-90542932D01*
X145207743Y-91548314D01*
G37*
G04 #@! TD.AperFunction*
G04 #@! TA.AperFunction,Conductor*
G36*
X143120386Y-68514144D02*
G01*
X145173913Y-68516548D01*
X145242009Y-68536630D01*
X145288439Y-68590340D01*
X145298460Y-68660626D01*
X145268892Y-68725172D01*
X145262859Y-68731643D01*
X145243802Y-68750700D01*
X145240645Y-68755208D01*
X145240643Y-68755211D01*
X145213261Y-68794317D01*
X145112477Y-68938251D01*
X145110154Y-68943233D01*
X145110151Y-68943238D01*
X145032927Y-69108848D01*
X145015716Y-69145757D01*
X144956457Y-69366913D01*
X144936502Y-69595000D01*
X144956457Y-69823087D01*
X144957881Y-69828400D01*
X144957881Y-69828402D01*
X145004542Y-70002540D01*
X145015716Y-70044243D01*
X145018039Y-70049224D01*
X145018039Y-70049225D01*
X145110151Y-70246762D01*
X145110154Y-70246767D01*
X145112477Y-70251749D01*
X145243802Y-70439300D01*
X145405700Y-70601198D01*
X145410208Y-70604355D01*
X145410211Y-70604357D01*
X145488389Y-70659098D01*
X145593251Y-70732523D01*
X145598233Y-70734846D01*
X145598238Y-70734849D01*
X145632457Y-70750805D01*
X145685742Y-70797722D01*
X145705203Y-70865999D01*
X145684661Y-70933959D01*
X145632457Y-70979195D01*
X145598238Y-70995151D01*
X145598233Y-70995154D01*
X145593251Y-70997477D01*
X145507578Y-71057466D01*
X145410211Y-71125643D01*
X145410208Y-71125645D01*
X145405700Y-71128802D01*
X145243802Y-71290700D01*
X145112477Y-71478251D01*
X145110154Y-71483233D01*
X145110151Y-71483238D01*
X145018039Y-71680775D01*
X145015716Y-71685757D01*
X145014294Y-71691065D01*
X145014293Y-71691067D01*
X144957881Y-71901598D01*
X144956457Y-71906913D01*
X144936502Y-72135000D01*
X144956457Y-72363087D01*
X144957881Y-72368400D01*
X144957881Y-72368402D01*
X145006337Y-72549239D01*
X145015716Y-72584243D01*
X145018039Y-72589224D01*
X145018039Y-72589225D01*
X145110151Y-72786762D01*
X145110154Y-72786767D01*
X145112477Y-72791749D01*
X145243802Y-72979300D01*
X145405700Y-73141198D01*
X145410208Y-73144355D01*
X145410211Y-73144357D01*
X145467707Y-73184616D01*
X145593251Y-73272523D01*
X145598233Y-73274846D01*
X145598238Y-73274849D01*
X145632457Y-73290805D01*
X145685742Y-73337722D01*
X145705203Y-73405999D01*
X145684661Y-73473959D01*
X145632457Y-73519195D01*
X145598238Y-73535151D01*
X145598233Y-73535154D01*
X145593251Y-73537477D01*
X145546641Y-73570114D01*
X145410211Y-73665643D01*
X145410208Y-73665645D01*
X145405700Y-73668802D01*
X145243802Y-73830700D01*
X145240645Y-73835208D01*
X145240643Y-73835211D01*
X145218007Y-73867539D01*
X145112477Y-74018251D01*
X145110154Y-74023233D01*
X145110151Y-74023238D01*
X145032991Y-74188710D01*
X145015716Y-74225757D01*
X145014294Y-74231065D01*
X145014293Y-74231067D01*
X144958394Y-74439684D01*
X144956457Y-74446913D01*
X144936502Y-74675000D01*
X144956457Y-74903087D01*
X144957881Y-74908400D01*
X144957881Y-74908402D01*
X144973240Y-74965720D01*
X145015716Y-75124243D01*
X145018039Y-75129224D01*
X145018039Y-75129225D01*
X145110151Y-75326762D01*
X145110154Y-75326767D01*
X145112477Y-75331749D01*
X145243802Y-75519300D01*
X145405700Y-75681198D01*
X145410208Y-75684355D01*
X145410211Y-75684357D01*
X145457983Y-75717807D01*
X145593251Y-75812523D01*
X145598233Y-75814846D01*
X145598238Y-75814849D01*
X145632457Y-75830805D01*
X145685742Y-75877722D01*
X145705203Y-75945999D01*
X145684661Y-76013959D01*
X145632457Y-76059195D01*
X145598238Y-76075151D01*
X145598233Y-76075154D01*
X145593251Y-76077477D01*
X145488389Y-76150902D01*
X145410211Y-76205643D01*
X145410208Y-76205645D01*
X145405700Y-76208802D01*
X145243802Y-76370700D01*
X145240645Y-76375208D01*
X145240643Y-76375211D01*
X145197008Y-76437529D01*
X145112477Y-76558251D01*
X145110154Y-76563233D01*
X145110151Y-76563238D01*
X145019100Y-76758500D01*
X145015716Y-76765757D01*
X145014294Y-76771065D01*
X145014293Y-76771067D01*
X144960578Y-76971534D01*
X144956457Y-76986913D01*
X144936502Y-77215000D01*
X144956457Y-77443087D01*
X144957881Y-77448400D01*
X144957881Y-77448402D01*
X145004970Y-77624137D01*
X145015716Y-77664243D01*
X145018039Y-77669224D01*
X145018039Y-77669225D01*
X145110151Y-77866762D01*
X145110154Y-77866767D01*
X145112477Y-77871749D01*
X145158378Y-77937302D01*
X145220851Y-78026522D01*
X145243802Y-78059300D01*
X145405700Y-78221198D01*
X145410208Y-78224355D01*
X145410211Y-78224357D01*
X145488389Y-78279098D01*
X145593251Y-78352523D01*
X145598233Y-78354846D01*
X145598238Y-78354849D01*
X145632457Y-78370805D01*
X145685742Y-78417722D01*
X145705203Y-78485999D01*
X145684661Y-78553959D01*
X145632457Y-78599195D01*
X145598238Y-78615151D01*
X145598233Y-78615154D01*
X145593251Y-78617477D01*
X145488389Y-78690902D01*
X145410211Y-78745643D01*
X145410208Y-78745645D01*
X145405700Y-78748802D01*
X145243802Y-78910700D01*
X145240645Y-78915208D01*
X145240643Y-78915211D01*
X145229440Y-78931211D01*
X145112477Y-79098251D01*
X145110154Y-79103233D01*
X145110151Y-79103238D01*
X145024617Y-79286669D01*
X145015716Y-79305757D01*
X145014294Y-79311065D01*
X145014293Y-79311067D01*
X144957881Y-79521598D01*
X144956457Y-79526913D01*
X144936502Y-79755000D01*
X144956457Y-79983087D01*
X144957881Y-79988400D01*
X144957881Y-79988402D01*
X144973240Y-80045720D01*
X145015716Y-80204243D01*
X145018039Y-80209224D01*
X145018039Y-80209225D01*
X145110151Y-80406762D01*
X145110154Y-80406767D01*
X145112477Y-80411749D01*
X145160267Y-80480000D01*
X145222696Y-80569157D01*
X145243802Y-80599300D01*
X145405700Y-80761198D01*
X145410208Y-80764355D01*
X145410211Y-80764357D01*
X145456622Y-80796854D01*
X145593251Y-80892523D01*
X145598233Y-80894846D01*
X145598238Y-80894849D01*
X145632457Y-80910805D01*
X145685742Y-80957722D01*
X145705203Y-81025999D01*
X145684661Y-81093959D01*
X145632457Y-81139195D01*
X145598238Y-81155151D01*
X145598233Y-81155154D01*
X145593251Y-81157477D01*
X145512284Y-81214171D01*
X145410211Y-81285643D01*
X145410208Y-81285645D01*
X145405700Y-81288802D01*
X145243802Y-81450700D01*
X145240645Y-81455208D01*
X145240643Y-81455211D01*
X145238929Y-81457659D01*
X145112477Y-81638251D01*
X145110154Y-81643233D01*
X145110151Y-81643238D01*
X145028460Y-81818427D01*
X145015716Y-81845757D01*
X145014294Y-81851065D01*
X145014293Y-81851067D01*
X144957881Y-82061598D01*
X144956457Y-82066913D01*
X144936502Y-82295000D01*
X144956457Y-82523087D01*
X144957881Y-82528400D01*
X144957881Y-82528402D01*
X144994368Y-82664570D01*
X145015716Y-82744243D01*
X145018039Y-82749224D01*
X145018039Y-82749225D01*
X145110151Y-82946762D01*
X145110154Y-82946767D01*
X145112477Y-82951749D01*
X145243802Y-83139300D01*
X145405700Y-83301198D01*
X145410208Y-83304355D01*
X145410211Y-83304357D01*
X145488389Y-83359098D01*
X145593251Y-83432523D01*
X145598233Y-83434846D01*
X145598238Y-83434849D01*
X145632457Y-83450805D01*
X145685742Y-83497722D01*
X145705203Y-83565999D01*
X145684661Y-83633959D01*
X145632457Y-83679195D01*
X145598238Y-83695151D01*
X145598233Y-83695154D01*
X145593251Y-83697477D01*
X145512597Y-83753952D01*
X145410211Y-83825643D01*
X145410208Y-83825645D01*
X145405700Y-83828802D01*
X145243802Y-83990700D01*
X145240645Y-83995208D01*
X145240643Y-83995211D01*
X145238481Y-83998299D01*
X145112477Y-84178251D01*
X145110154Y-84183233D01*
X145110151Y-84183238D01*
X145031486Y-84351937D01*
X145015716Y-84385757D01*
X145014294Y-84391065D01*
X145014293Y-84391067D01*
X144966574Y-84569157D01*
X144956457Y-84606913D01*
X144936502Y-84835000D01*
X144956457Y-85063087D01*
X144957881Y-85068400D01*
X144957881Y-85068402D01*
X144999105Y-85222249D01*
X145015716Y-85284243D01*
X145018039Y-85289224D01*
X145018039Y-85289225D01*
X145110151Y-85486762D01*
X145110154Y-85486767D01*
X145112477Y-85491749D01*
X145160267Y-85560000D01*
X145236474Y-85668834D01*
X145243802Y-85679300D01*
X145405700Y-85841198D01*
X145410211Y-85844357D01*
X145414424Y-85847892D01*
X145413473Y-85849026D01*
X145453471Y-85899071D01*
X145460776Y-85969690D01*
X145428742Y-86033049D01*
X145367538Y-86069030D01*
X145350483Y-86072082D01*
X145339684Y-86073255D01*
X145203295Y-86124385D01*
X145086739Y-86211739D01*
X144999385Y-86328295D01*
X144948255Y-86464684D01*
X144941500Y-86526866D01*
X144941500Y-88223134D01*
X144948255Y-88285316D01*
X144999385Y-88421705D01*
X145086739Y-88538261D01*
X145203295Y-88625615D01*
X145339684Y-88676745D01*
X145401866Y-88683500D01*
X147098134Y-88683500D01*
X147160316Y-88676745D01*
X147296705Y-88625615D01*
X147413261Y-88538261D01*
X147500615Y-88421705D01*
X147551745Y-88285316D01*
X147558500Y-88223134D01*
X147558500Y-87883450D01*
X152663877Y-87883450D01*
X152730586Y-88026511D01*
X152736069Y-88036007D01*
X152861028Y-88214467D01*
X152868084Y-88222875D01*
X153022125Y-88376916D01*
X153030533Y-88383972D01*
X153208993Y-88508931D01*
X153218489Y-88514414D01*
X153353583Y-88577409D01*
X153367523Y-88579526D01*
X153370000Y-88575738D01*
X153370000Y-88566949D01*
X154370000Y-88566949D01*
X154373973Y-88580480D01*
X154378450Y-88581123D01*
X154521511Y-88514414D01*
X154531007Y-88508931D01*
X154709467Y-88383972D01*
X154717875Y-88376916D01*
X154871916Y-88222875D01*
X154878972Y-88214467D01*
X155003931Y-88036007D01*
X155009414Y-88026511D01*
X155072409Y-87891417D01*
X155074526Y-87877477D01*
X155070738Y-87875000D01*
X154388115Y-87875000D01*
X154372876Y-87879475D01*
X154371671Y-87880865D01*
X154370000Y-87888548D01*
X154370000Y-88566949D01*
X153370000Y-88566949D01*
X153370000Y-87893115D01*
X153365525Y-87877876D01*
X153364135Y-87876671D01*
X153356452Y-87875000D01*
X152678051Y-87875000D01*
X152664520Y-87878973D01*
X152663877Y-87883450D01*
X147558500Y-87883450D01*
X147558500Y-86526866D01*
X147551745Y-86464684D01*
X147500615Y-86328295D01*
X147413261Y-86211739D01*
X147296705Y-86124385D01*
X147160316Y-86073255D01*
X147149526Y-86072083D01*
X147147394Y-86071197D01*
X147144778Y-86070575D01*
X147144879Y-86070152D01*
X147083965Y-86044845D01*
X147043537Y-85986483D01*
X147041078Y-85915529D01*
X147077371Y-85854510D01*
X147086031Y-85847511D01*
X147089793Y-85844354D01*
X147094300Y-85841198D01*
X147256198Y-85679300D01*
X147263527Y-85668834D01*
X147339733Y-85560000D01*
X147387523Y-85491749D01*
X147389846Y-85486767D01*
X147389849Y-85486762D01*
X147481961Y-85289225D01*
X147481961Y-85289224D01*
X147484284Y-85284243D01*
X147500896Y-85222249D01*
X147542119Y-85068402D01*
X147542119Y-85068400D01*
X147543543Y-85063087D01*
X147563498Y-84835000D01*
X147543543Y-84606913D01*
X147533426Y-84569157D01*
X147485707Y-84391067D01*
X147485706Y-84391065D01*
X147484284Y-84385757D01*
X147468514Y-84351937D01*
X147389849Y-84183238D01*
X147389846Y-84183233D01*
X147387523Y-84178251D01*
X147261519Y-83998299D01*
X147259357Y-83995211D01*
X147259355Y-83995208D01*
X147256198Y-83990700D01*
X147094300Y-83828802D01*
X147089792Y-83825645D01*
X147089789Y-83825643D01*
X146987403Y-83753952D01*
X146906749Y-83697477D01*
X146901767Y-83695154D01*
X146901762Y-83695151D01*
X146867543Y-83679195D01*
X146814258Y-83632278D01*
X146794797Y-83564001D01*
X146815339Y-83496041D01*
X146867543Y-83450805D01*
X146901762Y-83434849D01*
X146901767Y-83434846D01*
X146906749Y-83432523D01*
X147011611Y-83359098D01*
X147089789Y-83304357D01*
X147089792Y-83304355D01*
X147094300Y-83301198D01*
X147256198Y-83139300D01*
X147387523Y-82951749D01*
X147389846Y-82946767D01*
X147389849Y-82946762D01*
X147481961Y-82749225D01*
X147481961Y-82749224D01*
X147484284Y-82744243D01*
X147505633Y-82664570D01*
X147542119Y-82528402D01*
X147542119Y-82528400D01*
X147543543Y-82523087D01*
X147563498Y-82295000D01*
X147543543Y-82066913D01*
X147542119Y-82061598D01*
X147485707Y-81851067D01*
X147485706Y-81851065D01*
X147484284Y-81845757D01*
X147471540Y-81818427D01*
X147389849Y-81643238D01*
X147389846Y-81643233D01*
X147387523Y-81638251D01*
X147261071Y-81457659D01*
X147259357Y-81455211D01*
X147259355Y-81455208D01*
X147256198Y-81450700D01*
X147094300Y-81288802D01*
X147089792Y-81285645D01*
X147089789Y-81285643D01*
X146987716Y-81214171D01*
X146906749Y-81157477D01*
X146901767Y-81155154D01*
X146901762Y-81155151D01*
X146867543Y-81139195D01*
X146814258Y-81092278D01*
X146794797Y-81024001D01*
X146815339Y-80956041D01*
X146867543Y-80910805D01*
X146901762Y-80894849D01*
X146901767Y-80894846D01*
X146906749Y-80892523D01*
X147043378Y-80796854D01*
X147089789Y-80764357D01*
X147089792Y-80764355D01*
X147094300Y-80761198D01*
X147256198Y-80599300D01*
X147277305Y-80569157D01*
X147339733Y-80480000D01*
X147387523Y-80411749D01*
X147389846Y-80406767D01*
X147389849Y-80406762D01*
X147481961Y-80209225D01*
X147481961Y-80209224D01*
X147484284Y-80204243D01*
X147526761Y-80045720D01*
X147542119Y-79988402D01*
X147542119Y-79988400D01*
X147543543Y-79983087D01*
X147563498Y-79755000D01*
X147543543Y-79526913D01*
X147542119Y-79521598D01*
X147485707Y-79311067D01*
X147485706Y-79311065D01*
X147484284Y-79305757D01*
X147475383Y-79286669D01*
X147389849Y-79103238D01*
X147389846Y-79103233D01*
X147387523Y-79098251D01*
X147270560Y-78931211D01*
X147259357Y-78915211D01*
X147259355Y-78915208D01*
X147256198Y-78910700D01*
X147094300Y-78748802D01*
X147089792Y-78745645D01*
X147089789Y-78745643D01*
X147011611Y-78690902D01*
X146906749Y-78617477D01*
X146901767Y-78615154D01*
X146901762Y-78615151D01*
X146867543Y-78599195D01*
X146814258Y-78552278D01*
X146794797Y-78484001D01*
X146815339Y-78416041D01*
X146867543Y-78370805D01*
X146901762Y-78354849D01*
X146901767Y-78354846D01*
X146906749Y-78352523D01*
X147011611Y-78279098D01*
X147089789Y-78224357D01*
X147089792Y-78224355D01*
X147094300Y-78221198D01*
X147256198Y-78059300D01*
X147279150Y-78026522D01*
X147341622Y-77937302D01*
X147387523Y-77871749D01*
X147389846Y-77866767D01*
X147389849Y-77866762D01*
X147481961Y-77669225D01*
X147481961Y-77669224D01*
X147484284Y-77664243D01*
X147495031Y-77624137D01*
X147542119Y-77448402D01*
X147542119Y-77448400D01*
X147543543Y-77443087D01*
X147563498Y-77215000D01*
X147543543Y-76986913D01*
X147539422Y-76971534D01*
X147485707Y-76771067D01*
X147485706Y-76771065D01*
X147484284Y-76765757D01*
X147480900Y-76758500D01*
X147389849Y-76563238D01*
X147389846Y-76563233D01*
X147387523Y-76558251D01*
X147302992Y-76437529D01*
X147259357Y-76375211D01*
X147259355Y-76375208D01*
X147256198Y-76370700D01*
X147094300Y-76208802D01*
X147089792Y-76205645D01*
X147089789Y-76205643D01*
X147011611Y-76150902D01*
X146906749Y-76077477D01*
X146901767Y-76075154D01*
X146901762Y-76075151D01*
X146867543Y-76059195D01*
X146814258Y-76012278D01*
X146794797Y-75944001D01*
X146815339Y-75876041D01*
X146867543Y-75830805D01*
X146901762Y-75814849D01*
X146901767Y-75814846D01*
X146906749Y-75812523D01*
X147042017Y-75717807D01*
X147089789Y-75684357D01*
X147089792Y-75684355D01*
X147094300Y-75681198D01*
X147256198Y-75519300D01*
X147387523Y-75331749D01*
X147389846Y-75326767D01*
X147389849Y-75326762D01*
X147481961Y-75129225D01*
X147481961Y-75129224D01*
X147484284Y-75124243D01*
X147526761Y-74965720D01*
X147542119Y-74908402D01*
X147542119Y-74908400D01*
X147543543Y-74903087D01*
X147563498Y-74675000D01*
X147543543Y-74446913D01*
X147541606Y-74439684D01*
X147485707Y-74231067D01*
X147485706Y-74231065D01*
X147484284Y-74225757D01*
X147467009Y-74188710D01*
X147389849Y-74023238D01*
X147389846Y-74023233D01*
X147387523Y-74018251D01*
X147281993Y-73867539D01*
X147259357Y-73835211D01*
X147259355Y-73835208D01*
X147256198Y-73830700D01*
X147094300Y-73668802D01*
X147089792Y-73665645D01*
X147089789Y-73665643D01*
X146953359Y-73570114D01*
X146906749Y-73537477D01*
X146901767Y-73535154D01*
X146901762Y-73535151D01*
X146867543Y-73519195D01*
X146814258Y-73472278D01*
X146794797Y-73404001D01*
X146815339Y-73336041D01*
X146867543Y-73290805D01*
X146901762Y-73274849D01*
X146901767Y-73274846D01*
X146906749Y-73272523D01*
X147032293Y-73184616D01*
X147089789Y-73144357D01*
X147089792Y-73144355D01*
X147094300Y-73141198D01*
X147256198Y-72979300D01*
X147387523Y-72791749D01*
X147389846Y-72786767D01*
X147389849Y-72786762D01*
X147481961Y-72589225D01*
X147481961Y-72589224D01*
X147484284Y-72584243D01*
X147493664Y-72549239D01*
X147542119Y-72368402D01*
X147542119Y-72368400D01*
X147543543Y-72363087D01*
X147563498Y-72135000D01*
X147543543Y-71906913D01*
X147542119Y-71901598D01*
X147485707Y-71691067D01*
X147485706Y-71691065D01*
X147484284Y-71685757D01*
X147481961Y-71680775D01*
X147389849Y-71483238D01*
X147389846Y-71483233D01*
X147387523Y-71478251D01*
X147256198Y-71290700D01*
X147094300Y-71128802D01*
X147089792Y-71125645D01*
X147089789Y-71125643D01*
X146992422Y-71057466D01*
X146906749Y-70997477D01*
X146901767Y-70995154D01*
X146901762Y-70995151D01*
X146867543Y-70979195D01*
X146814258Y-70932278D01*
X146794797Y-70864001D01*
X146815339Y-70796041D01*
X146867543Y-70750805D01*
X146901762Y-70734849D01*
X146901767Y-70734846D01*
X146906749Y-70732523D01*
X147011611Y-70659098D01*
X147089789Y-70604357D01*
X147089792Y-70604355D01*
X147094300Y-70601198D01*
X147256198Y-70439300D01*
X147387523Y-70251749D01*
X147389846Y-70246767D01*
X147389849Y-70246762D01*
X147481961Y-70049225D01*
X147481961Y-70049224D01*
X147484284Y-70044243D01*
X147495459Y-70002540D01*
X147542119Y-69828402D01*
X147542119Y-69828400D01*
X147543543Y-69823087D01*
X147563498Y-69595000D01*
X147543543Y-69366913D01*
X147484284Y-69145757D01*
X147467073Y-69108848D01*
X147389849Y-68943238D01*
X147389846Y-68943233D01*
X147387523Y-68938251D01*
X147286739Y-68794317D01*
X147259357Y-68755211D01*
X147259355Y-68755208D01*
X147256198Y-68750700D01*
X147239665Y-68734167D01*
X147205639Y-68671855D01*
X147210704Y-68601040D01*
X147253251Y-68544204D01*
X147319771Y-68519393D01*
X147328908Y-68519072D01*
X152785000Y-68525460D01*
X152853097Y-68545542D01*
X152899527Y-68599252D01*
X152909548Y-68669538D01*
X152879980Y-68734084D01*
X152873947Y-68740555D01*
X152863802Y-68750700D01*
X152860645Y-68755208D01*
X152860643Y-68755211D01*
X152833261Y-68794317D01*
X152732477Y-68938251D01*
X152730154Y-68943233D01*
X152730151Y-68943238D01*
X152652927Y-69108848D01*
X152635716Y-69145757D01*
X152576457Y-69366913D01*
X152556502Y-69595000D01*
X152576457Y-69823087D01*
X152577881Y-69828400D01*
X152577881Y-69828402D01*
X152624542Y-70002540D01*
X152635716Y-70044243D01*
X152638039Y-70049224D01*
X152638039Y-70049225D01*
X152730151Y-70246762D01*
X152730154Y-70246767D01*
X152732477Y-70251749D01*
X152863802Y-70439300D01*
X153025700Y-70601198D01*
X153030208Y-70604355D01*
X153030211Y-70604357D01*
X153108389Y-70659098D01*
X153213251Y-70732523D01*
X153218233Y-70734846D01*
X153218238Y-70734849D01*
X153252457Y-70750805D01*
X153305742Y-70797722D01*
X153325203Y-70865999D01*
X153304661Y-70933959D01*
X153252457Y-70979195D01*
X153218238Y-70995151D01*
X153218233Y-70995154D01*
X153213251Y-70997477D01*
X153127578Y-71057466D01*
X153030211Y-71125643D01*
X153030208Y-71125645D01*
X153025700Y-71128802D01*
X152863802Y-71290700D01*
X152732477Y-71478251D01*
X152730154Y-71483233D01*
X152730151Y-71483238D01*
X152638039Y-71680775D01*
X152635716Y-71685757D01*
X152634294Y-71691065D01*
X152634293Y-71691067D01*
X152577881Y-71901598D01*
X152576457Y-71906913D01*
X152556502Y-72135000D01*
X152576457Y-72363087D01*
X152577881Y-72368400D01*
X152577881Y-72368402D01*
X152626337Y-72549239D01*
X152635716Y-72584243D01*
X152638039Y-72589224D01*
X152638039Y-72589225D01*
X152730151Y-72786762D01*
X152730154Y-72786767D01*
X152732477Y-72791749D01*
X152863802Y-72979300D01*
X153025700Y-73141198D01*
X153030208Y-73144355D01*
X153030211Y-73144357D01*
X153087707Y-73184616D01*
X153213251Y-73272523D01*
X153218233Y-73274846D01*
X153218238Y-73274849D01*
X153252457Y-73290805D01*
X153305742Y-73337722D01*
X153325203Y-73405999D01*
X153304661Y-73473959D01*
X153252457Y-73519195D01*
X153218238Y-73535151D01*
X153218233Y-73535154D01*
X153213251Y-73537477D01*
X153166641Y-73570114D01*
X153030211Y-73665643D01*
X153030208Y-73665645D01*
X153025700Y-73668802D01*
X152863802Y-73830700D01*
X152860645Y-73835208D01*
X152860643Y-73835211D01*
X152838007Y-73867539D01*
X152732477Y-74018251D01*
X152730154Y-74023233D01*
X152730151Y-74023238D01*
X152652991Y-74188710D01*
X152635716Y-74225757D01*
X152634294Y-74231065D01*
X152634293Y-74231067D01*
X152578394Y-74439684D01*
X152576457Y-74446913D01*
X152556502Y-74675000D01*
X152576457Y-74903087D01*
X152577881Y-74908400D01*
X152577881Y-74908402D01*
X152593240Y-74965720D01*
X152635716Y-75124243D01*
X152638039Y-75129224D01*
X152638039Y-75129225D01*
X152730151Y-75326762D01*
X152730154Y-75326767D01*
X152732477Y-75331749D01*
X152863802Y-75519300D01*
X153025700Y-75681198D01*
X153030208Y-75684355D01*
X153030211Y-75684357D01*
X153077983Y-75717807D01*
X153213251Y-75812523D01*
X153218233Y-75814846D01*
X153218238Y-75814849D01*
X153252457Y-75830805D01*
X153305742Y-75877722D01*
X153325203Y-75945999D01*
X153304661Y-76013959D01*
X153252457Y-76059195D01*
X153218238Y-76075151D01*
X153218233Y-76075154D01*
X153213251Y-76077477D01*
X153108389Y-76150902D01*
X153030211Y-76205643D01*
X153030208Y-76205645D01*
X153025700Y-76208802D01*
X152863802Y-76370700D01*
X152860645Y-76375208D01*
X152860643Y-76375211D01*
X152817008Y-76437529D01*
X152732477Y-76558251D01*
X152730154Y-76563233D01*
X152730151Y-76563238D01*
X152639100Y-76758500D01*
X152635716Y-76765757D01*
X152634294Y-76771065D01*
X152634293Y-76771067D01*
X152580578Y-76971534D01*
X152576457Y-76986913D01*
X152556502Y-77215000D01*
X152576457Y-77443087D01*
X152577881Y-77448400D01*
X152577881Y-77448402D01*
X152624970Y-77624137D01*
X152635716Y-77664243D01*
X152638039Y-77669224D01*
X152638039Y-77669225D01*
X152730151Y-77866762D01*
X152730154Y-77866767D01*
X152732477Y-77871749D01*
X152778378Y-77937302D01*
X152840851Y-78026522D01*
X152863802Y-78059300D01*
X153025700Y-78221198D01*
X153030208Y-78224355D01*
X153030211Y-78224357D01*
X153108389Y-78279098D01*
X153213251Y-78352523D01*
X153218233Y-78354846D01*
X153218238Y-78354849D01*
X153252457Y-78370805D01*
X153305742Y-78417722D01*
X153325203Y-78485999D01*
X153304661Y-78553959D01*
X153252457Y-78599195D01*
X153218238Y-78615151D01*
X153218233Y-78615154D01*
X153213251Y-78617477D01*
X153108389Y-78690902D01*
X153030211Y-78745643D01*
X153030208Y-78745645D01*
X153025700Y-78748802D01*
X152863802Y-78910700D01*
X152860645Y-78915208D01*
X152860643Y-78915211D01*
X152849440Y-78931211D01*
X152732477Y-79098251D01*
X152730154Y-79103233D01*
X152730151Y-79103238D01*
X152644617Y-79286669D01*
X152635716Y-79305757D01*
X152634294Y-79311065D01*
X152634293Y-79311067D01*
X152577881Y-79521598D01*
X152576457Y-79526913D01*
X152556502Y-79755000D01*
X152576457Y-79983087D01*
X152577881Y-79988400D01*
X152577881Y-79988402D01*
X152593240Y-80045720D01*
X152635716Y-80204243D01*
X152638039Y-80209224D01*
X152638039Y-80209225D01*
X152730151Y-80406762D01*
X152730154Y-80406767D01*
X152732477Y-80411749D01*
X152780267Y-80480000D01*
X152842696Y-80569157D01*
X152863802Y-80599300D01*
X153025700Y-80761198D01*
X153030208Y-80764355D01*
X153030211Y-80764357D01*
X153076622Y-80796854D01*
X153213251Y-80892523D01*
X153218233Y-80894846D01*
X153218238Y-80894849D01*
X153252457Y-80910805D01*
X153305742Y-80957722D01*
X153325203Y-81025999D01*
X153304661Y-81093959D01*
X153252457Y-81139195D01*
X153218238Y-81155151D01*
X153218233Y-81155154D01*
X153213251Y-81157477D01*
X153132284Y-81214171D01*
X153030211Y-81285643D01*
X153030208Y-81285645D01*
X153025700Y-81288802D01*
X152863802Y-81450700D01*
X152860645Y-81455208D01*
X152860643Y-81455211D01*
X152858929Y-81457659D01*
X152732477Y-81638251D01*
X152730154Y-81643233D01*
X152730151Y-81643238D01*
X152648460Y-81818427D01*
X152635716Y-81845757D01*
X152634294Y-81851065D01*
X152634293Y-81851067D01*
X152577881Y-82061598D01*
X152576457Y-82066913D01*
X152556502Y-82295000D01*
X152576457Y-82523087D01*
X152577881Y-82528400D01*
X152577881Y-82528402D01*
X152614368Y-82664570D01*
X152635716Y-82744243D01*
X152638039Y-82749224D01*
X152638039Y-82749225D01*
X152730151Y-82946762D01*
X152730154Y-82946767D01*
X152732477Y-82951749D01*
X152863802Y-83139300D01*
X153025700Y-83301198D01*
X153030208Y-83304355D01*
X153030211Y-83304357D01*
X153108389Y-83359098D01*
X153213251Y-83432523D01*
X153218233Y-83434846D01*
X153218238Y-83434849D01*
X153252457Y-83450805D01*
X153305742Y-83497722D01*
X153325203Y-83565999D01*
X153304661Y-83633959D01*
X153252457Y-83679195D01*
X153218238Y-83695151D01*
X153218233Y-83695154D01*
X153213251Y-83697477D01*
X153132597Y-83753952D01*
X153030211Y-83825643D01*
X153030208Y-83825645D01*
X153025700Y-83828802D01*
X152863802Y-83990700D01*
X152860645Y-83995208D01*
X152860643Y-83995211D01*
X152858481Y-83998299D01*
X152732477Y-84178251D01*
X152730154Y-84183233D01*
X152730151Y-84183238D01*
X152651486Y-84351937D01*
X152635716Y-84385757D01*
X152634294Y-84391065D01*
X152634293Y-84391067D01*
X152586574Y-84569157D01*
X152576457Y-84606913D01*
X152556502Y-84835000D01*
X152576457Y-85063087D01*
X152577881Y-85068400D01*
X152577881Y-85068402D01*
X152619105Y-85222249D01*
X152635716Y-85284243D01*
X152638039Y-85289224D01*
X152638039Y-85289225D01*
X152730151Y-85486762D01*
X152730154Y-85486767D01*
X152732477Y-85491749D01*
X152780267Y-85560000D01*
X152856474Y-85668834D01*
X152863802Y-85679300D01*
X153025700Y-85841198D01*
X153030208Y-85844355D01*
X153030211Y-85844357D01*
X153063507Y-85867671D01*
X153213251Y-85972523D01*
X153218233Y-85974846D01*
X153218238Y-85974849D01*
X153253049Y-85991081D01*
X153306334Y-86037998D01*
X153325795Y-86106275D01*
X153305253Y-86174235D01*
X153253049Y-86219471D01*
X153218489Y-86235586D01*
X153208993Y-86241069D01*
X153030533Y-86366028D01*
X153022125Y-86373084D01*
X152868084Y-86527125D01*
X152861028Y-86535533D01*
X152736069Y-86713993D01*
X152730586Y-86723489D01*
X152667591Y-86858583D01*
X152665474Y-86872523D01*
X152669262Y-86875000D01*
X155061949Y-86875000D01*
X155075480Y-86871027D01*
X155076123Y-86866550D01*
X155009414Y-86723489D01*
X155003931Y-86713993D01*
X154878972Y-86535533D01*
X154871916Y-86527125D01*
X154717875Y-86373084D01*
X154709467Y-86366028D01*
X154531007Y-86241069D01*
X154521511Y-86235586D01*
X154486951Y-86219471D01*
X154433666Y-86172554D01*
X154414205Y-86104277D01*
X154434747Y-86036317D01*
X154486951Y-85991081D01*
X154521762Y-85974849D01*
X154521767Y-85974846D01*
X154526749Y-85972523D01*
X154676493Y-85867671D01*
X154709789Y-85844357D01*
X154709792Y-85844355D01*
X154714300Y-85841198D01*
X154876198Y-85679300D01*
X154883527Y-85668834D01*
X154959733Y-85560000D01*
X155007523Y-85491749D01*
X155009846Y-85486767D01*
X155009849Y-85486762D01*
X155101961Y-85289225D01*
X155101961Y-85289224D01*
X155104284Y-85284243D01*
X155120896Y-85222249D01*
X155162119Y-85068402D01*
X155162119Y-85068400D01*
X155163543Y-85063087D01*
X155183498Y-84835000D01*
X155163543Y-84606913D01*
X155153426Y-84569157D01*
X155105707Y-84391067D01*
X155105706Y-84391065D01*
X155104284Y-84385757D01*
X155088514Y-84351937D01*
X155009849Y-84183238D01*
X155009846Y-84183233D01*
X155007523Y-84178251D01*
X154881519Y-83998299D01*
X154879357Y-83995211D01*
X154879355Y-83995208D01*
X154876198Y-83990700D01*
X154714300Y-83828802D01*
X154709792Y-83825645D01*
X154709789Y-83825643D01*
X154607403Y-83753952D01*
X154526749Y-83697477D01*
X154521767Y-83695154D01*
X154521762Y-83695151D01*
X154487543Y-83679195D01*
X154434258Y-83632278D01*
X154414797Y-83564001D01*
X154435339Y-83496041D01*
X154487543Y-83450805D01*
X154521762Y-83434849D01*
X154521767Y-83434846D01*
X154526749Y-83432523D01*
X154631611Y-83359098D01*
X154709789Y-83304357D01*
X154709792Y-83304355D01*
X154714300Y-83301198D01*
X154876198Y-83139300D01*
X155007523Y-82951749D01*
X155009846Y-82946767D01*
X155009849Y-82946762D01*
X155101961Y-82749225D01*
X155101961Y-82749224D01*
X155104284Y-82744243D01*
X155125633Y-82664570D01*
X155162119Y-82528402D01*
X155162119Y-82528400D01*
X155163543Y-82523087D01*
X155183498Y-82295000D01*
X155163543Y-82066913D01*
X155162119Y-82061598D01*
X155105707Y-81851067D01*
X155105706Y-81851065D01*
X155104284Y-81845757D01*
X155091540Y-81818427D01*
X155009849Y-81643238D01*
X155009846Y-81643233D01*
X155007523Y-81638251D01*
X154881071Y-81457659D01*
X154879357Y-81455211D01*
X154879355Y-81455208D01*
X154876198Y-81450700D01*
X154714300Y-81288802D01*
X154709792Y-81285645D01*
X154709789Y-81285643D01*
X154607716Y-81214171D01*
X154526749Y-81157477D01*
X154521767Y-81155154D01*
X154521762Y-81155151D01*
X154487543Y-81139195D01*
X154434258Y-81092278D01*
X154414797Y-81024001D01*
X154435339Y-80956041D01*
X154487543Y-80910805D01*
X154521762Y-80894849D01*
X154521767Y-80894846D01*
X154526749Y-80892523D01*
X154663378Y-80796854D01*
X154709789Y-80764357D01*
X154709792Y-80764355D01*
X154714300Y-80761198D01*
X154876198Y-80599300D01*
X154897305Y-80569157D01*
X154959733Y-80480000D01*
X155007523Y-80411749D01*
X155009846Y-80406767D01*
X155009849Y-80406762D01*
X155101961Y-80209225D01*
X155101961Y-80209224D01*
X155104284Y-80204243D01*
X155146761Y-80045720D01*
X155162119Y-79988402D01*
X155162119Y-79988400D01*
X155163543Y-79983087D01*
X155183498Y-79755000D01*
X155163543Y-79526913D01*
X155162119Y-79521598D01*
X155105707Y-79311067D01*
X155105706Y-79311065D01*
X155104284Y-79305757D01*
X155095383Y-79286669D01*
X155009849Y-79103238D01*
X155009846Y-79103233D01*
X155007523Y-79098251D01*
X154890560Y-78931211D01*
X154879357Y-78915211D01*
X154879355Y-78915208D01*
X154876198Y-78910700D01*
X154714300Y-78748802D01*
X154709792Y-78745645D01*
X154709789Y-78745643D01*
X154631611Y-78690902D01*
X154526749Y-78617477D01*
X154521767Y-78615154D01*
X154521762Y-78615151D01*
X154487543Y-78599195D01*
X154434258Y-78552278D01*
X154414797Y-78484001D01*
X154435339Y-78416041D01*
X154487543Y-78370805D01*
X154521762Y-78354849D01*
X154521767Y-78354846D01*
X154526749Y-78352523D01*
X154631611Y-78279098D01*
X154709789Y-78224357D01*
X154709792Y-78224355D01*
X154714300Y-78221198D01*
X154876198Y-78059300D01*
X154899150Y-78026522D01*
X154961622Y-77937302D01*
X155007523Y-77871749D01*
X155009846Y-77866767D01*
X155009849Y-77866762D01*
X155101961Y-77669225D01*
X155101961Y-77669224D01*
X155104284Y-77664243D01*
X155115031Y-77624137D01*
X155162119Y-77448402D01*
X155162119Y-77448400D01*
X155163543Y-77443087D01*
X155183498Y-77215000D01*
X155163543Y-76986913D01*
X155159422Y-76971534D01*
X155105707Y-76771067D01*
X155105706Y-76771065D01*
X155104284Y-76765757D01*
X155100900Y-76758500D01*
X155009849Y-76563238D01*
X155009846Y-76563233D01*
X155007523Y-76558251D01*
X154922992Y-76437529D01*
X154879357Y-76375211D01*
X154879355Y-76375208D01*
X154876198Y-76370700D01*
X154714300Y-76208802D01*
X154709792Y-76205645D01*
X154709789Y-76205643D01*
X154631611Y-76150902D01*
X154526749Y-76077477D01*
X154521767Y-76075154D01*
X154521762Y-76075151D01*
X154487543Y-76059195D01*
X154434258Y-76012278D01*
X154414797Y-75944001D01*
X154435339Y-75876041D01*
X154487543Y-75830805D01*
X154521762Y-75814849D01*
X154521767Y-75814846D01*
X154526749Y-75812523D01*
X154710988Y-75683517D01*
X154778262Y-75660829D01*
X154847123Y-75678114D01*
X154865089Y-75690919D01*
X154957048Y-75769459D01*
X154969332Y-75782334D01*
X154969345Y-75782321D01*
X154974262Y-75787377D01*
X154978575Y-75792938D01*
X154984012Y-75797403D01*
X154984013Y-75797405D01*
X155011232Y-75819762D01*
X155020352Y-75828033D01*
X155822551Y-76630232D01*
X155856577Y-76692544D01*
X155858582Y-76734139D01*
X155857516Y-76743144D01*
X155857516Y-76743152D01*
X155856837Y-76748887D01*
X155871063Y-76965933D01*
X155872484Y-76971529D01*
X155872485Y-76971534D01*
X155910622Y-77121697D01*
X155924605Y-77176753D01*
X156015668Y-77374285D01*
X156019001Y-77379001D01*
X156079504Y-77464610D01*
X156141204Y-77551914D01*
X156272266Y-77679588D01*
X156284741Y-77691741D01*
X156319579Y-77753602D01*
X156315442Y-77824478D01*
X156279899Y-77876726D01*
X156182842Y-77961842D01*
X156179270Y-77966373D01*
X156121460Y-78039705D01*
X156048181Y-78132658D01*
X156045493Y-78137767D01*
X156038714Y-78150652D01*
X155946905Y-78325154D01*
X155945192Y-78330671D01*
X155886181Y-78520716D01*
X155882403Y-78532882D01*
X155856837Y-78748887D01*
X155871063Y-78965933D01*
X155872484Y-78971529D01*
X155872485Y-78971534D01*
X155907879Y-79110896D01*
X155924605Y-79176753D01*
X156015668Y-79374285D01*
X156019001Y-79379001D01*
X156086102Y-79473946D01*
X156141204Y-79551914D01*
X156145346Y-79555949D01*
X156284741Y-79691741D01*
X156319579Y-79753602D01*
X156315442Y-79824478D01*
X156279899Y-79876726D01*
X156182842Y-79961842D01*
X156179270Y-79966373D01*
X156116718Y-80045720D01*
X156048181Y-80132658D01*
X155946905Y-80325154D01*
X155945192Y-80330671D01*
X155897779Y-80483365D01*
X155882403Y-80532882D01*
X155856837Y-80748887D01*
X155871063Y-80965933D01*
X155872484Y-80971529D01*
X155872485Y-80971534D01*
X155918988Y-81154637D01*
X155924605Y-81176753D01*
X155927022Y-81181996D01*
X155941182Y-81212712D01*
X156015668Y-81374285D01*
X156141204Y-81551914D01*
X156145346Y-81555949D01*
X156183716Y-81593327D01*
X156255049Y-81662816D01*
X156284741Y-81691741D01*
X156319579Y-81753602D01*
X156315442Y-81824478D01*
X156279899Y-81876726D01*
X156182842Y-81961842D01*
X156179270Y-81966373D01*
X156084657Y-82086389D01*
X156048181Y-82132658D01*
X156045493Y-82137767D01*
X156018919Y-82188277D01*
X155946905Y-82325154D01*
X155945192Y-82330671D01*
X155896918Y-82486138D01*
X155882403Y-82532882D01*
X155856837Y-82748887D01*
X155871063Y-82965933D01*
X155872484Y-82971529D01*
X155872485Y-82971534D01*
X155900855Y-83083240D01*
X155924605Y-83176753D01*
X156015668Y-83374285D01*
X156019001Y-83379001D01*
X156125211Y-83529284D01*
X156141204Y-83551914D01*
X156145346Y-83555949D01*
X156284741Y-83691741D01*
X156319579Y-83753602D01*
X156315442Y-83824478D01*
X156279899Y-83876726D01*
X156182842Y-83961842D01*
X156179270Y-83966373D01*
X156154102Y-83998299D01*
X156048181Y-84132658D01*
X155946905Y-84325154D01*
X155934907Y-84363795D01*
X155890548Y-84506652D01*
X155882403Y-84532882D01*
X155856837Y-84748887D01*
X155871063Y-84965933D01*
X155872484Y-84971529D01*
X155872485Y-84971534D01*
X155908919Y-85114989D01*
X155924605Y-85176753D01*
X155927022Y-85181996D01*
X156008127Y-85357928D01*
X156015668Y-85374285D01*
X156019001Y-85379001D01*
X156105260Y-85501054D01*
X156141204Y-85551914D01*
X156145346Y-85555949D01*
X156152959Y-85563365D01*
X156297009Y-85703692D01*
X156477863Y-85824536D01*
X156483171Y-85826817D01*
X156483172Y-85826817D01*
X156672409Y-85908119D01*
X156672412Y-85908120D01*
X156677712Y-85910397D01*
X156683342Y-85911671D01*
X156781464Y-85933874D01*
X156889860Y-85958402D01*
X156895631Y-85958629D01*
X156895633Y-85958629D01*
X156968620Y-85961496D01*
X157107205Y-85966941D01*
X157322466Y-85935730D01*
X157327930Y-85933875D01*
X157327935Y-85933874D01*
X157522963Y-85867671D01*
X157522968Y-85867669D01*
X157528435Y-85865813D01*
X157553679Y-85851676D01*
X157648936Y-85798329D01*
X157718213Y-85759532D01*
X157885446Y-85620446D01*
X158024532Y-85453213D01*
X158119311Y-85283973D01*
X158127989Y-85268478D01*
X158127990Y-85268476D01*
X158130813Y-85263435D01*
X158132669Y-85257968D01*
X158132671Y-85257963D01*
X158198874Y-85062935D01*
X158198875Y-85062930D01*
X158200730Y-85057466D01*
X158231941Y-84842205D01*
X158233570Y-84780000D01*
X158213667Y-84563400D01*
X158192934Y-84489884D01*
X158184146Y-84458727D01*
X158154626Y-84354055D01*
X158058423Y-84158974D01*
X158043689Y-84139242D01*
X157938442Y-83998299D01*
X158551740Y-83998299D01*
X158574588Y-84066784D01*
X158580761Y-84079962D01*
X158666063Y-84217807D01*
X158675099Y-84229208D01*
X158789829Y-84343739D01*
X158801240Y-84352751D01*
X158939243Y-84437816D01*
X158952424Y-84443963D01*
X159106710Y-84495138D01*
X159120086Y-84498005D01*
X159204477Y-84506652D01*
X159215124Y-84503525D01*
X159216329Y-84502135D01*
X159218000Y-84494452D01*
X159218000Y-84489884D01*
X160218000Y-84489884D01*
X160222475Y-84505123D01*
X160223865Y-84506328D01*
X160227290Y-84507073D01*
X160317206Y-84497743D01*
X160330600Y-84494851D01*
X160484784Y-84443412D01*
X160497962Y-84437239D01*
X160635807Y-84351937D01*
X160647208Y-84342901D01*
X160761739Y-84228171D01*
X160770751Y-84216760D01*
X160855816Y-84078757D01*
X160861963Y-84065576D01*
X160882157Y-84004694D01*
X160882646Y-83990601D01*
X160876435Y-83987500D01*
X160236115Y-83987500D01*
X160220876Y-83991975D01*
X160219671Y-83993365D01*
X160218000Y-84001048D01*
X160218000Y-84489884D01*
X159218000Y-84489884D01*
X159218000Y-84005615D01*
X159213525Y-83990376D01*
X159212135Y-83989171D01*
X159204452Y-83987500D01*
X158566252Y-83987500D01*
X158552721Y-83991473D01*
X158551740Y-83998299D01*
X157938442Y-83998299D01*
X157931733Y-83989315D01*
X157931732Y-83989314D01*
X157928280Y-83984691D01*
X157908844Y-83966724D01*
X157835896Y-83899292D01*
X157806078Y-83871729D01*
X157769633Y-83810800D01*
X157771914Y-83739840D01*
X157811038Y-83682330D01*
X157814012Y-83679857D01*
X157885446Y-83620446D01*
X158024532Y-83453213D01*
X158130813Y-83263435D01*
X158132669Y-83257968D01*
X158132671Y-83257963D01*
X158198874Y-83062935D01*
X158198875Y-83062930D01*
X158200730Y-83057466D01*
X158231941Y-82842205D01*
X158233570Y-82780000D01*
X158213667Y-82563400D01*
X158154626Y-82354055D01*
X158058423Y-82158974D01*
X157959777Y-82026870D01*
X157931733Y-81989315D01*
X157931732Y-81989314D01*
X157928280Y-81984691D01*
X157806078Y-81871729D01*
X157769633Y-81810800D01*
X157771914Y-81739840D01*
X157811038Y-81682330D01*
X157827111Y-81668963D01*
X157885446Y-81620446D01*
X158024532Y-81453213D01*
X158115613Y-81290576D01*
X158127989Y-81268478D01*
X158127990Y-81268476D01*
X158130813Y-81263435D01*
X158148031Y-81212712D01*
X158188869Y-81154637D01*
X158254622Y-81127859D01*
X158324414Y-81140881D01*
X158356439Y-81164120D01*
X158472595Y-81280276D01*
X158506621Y-81342588D01*
X158509500Y-81369371D01*
X158509500Y-81975400D01*
X158509837Y-81978646D01*
X158509837Y-81978650D01*
X158519564Y-82072393D01*
X158520474Y-82081166D01*
X158522655Y-82087702D01*
X158522655Y-82087704D01*
X158544889Y-82154347D01*
X158576450Y-82248946D01*
X158669522Y-82399348D01*
X158674704Y-82404521D01*
X158756463Y-82486138D01*
X158790542Y-82548421D01*
X158785539Y-82619241D01*
X158756618Y-82664329D01*
X158674261Y-82746829D01*
X158665249Y-82758240D01*
X158580184Y-82896243D01*
X158574037Y-82909424D01*
X158553843Y-82970306D01*
X158553354Y-82984399D01*
X158559565Y-82987500D01*
X160869748Y-82987500D01*
X160883279Y-82983527D01*
X160884260Y-82976701D01*
X160861412Y-82908216D01*
X160855239Y-82895038D01*
X160769937Y-82757193D01*
X160760901Y-82745792D01*
X160679538Y-82664570D01*
X160645459Y-82602287D01*
X160650462Y-82531467D01*
X160679383Y-82486380D01*
X160762130Y-82403488D01*
X160762134Y-82403483D01*
X160767305Y-82398303D01*
X160771146Y-82392072D01*
X160856275Y-82253968D01*
X160856276Y-82253966D01*
X160860115Y-82247738D01*
X160915797Y-82079861D01*
X160926500Y-81975400D01*
X160926500Y-81349600D01*
X160926163Y-81346350D01*
X160916238Y-81250692D01*
X160916237Y-81250688D01*
X160915526Y-81243834D01*
X160896324Y-81186277D01*
X160861868Y-81083002D01*
X160859550Y-81076054D01*
X160766478Y-80925652D01*
X160641303Y-80800695D01*
X160607730Y-80780000D01*
X160496968Y-80711725D01*
X160496966Y-80711724D01*
X160490738Y-80707885D01*
X160390890Y-80674767D01*
X160329389Y-80654368D01*
X160329387Y-80654368D01*
X160322861Y-80652203D01*
X160316025Y-80651503D01*
X160316022Y-80651502D01*
X160272969Y-80647091D01*
X160218400Y-80641500D01*
X160031371Y-80641500D01*
X159963250Y-80621498D01*
X159942276Y-80604595D01*
X158268892Y-78931211D01*
X158234866Y-78868899D01*
X158232030Y-78838818D01*
X158233473Y-78783705D01*
X158233473Y-78783704D01*
X158233570Y-78780000D01*
X158213667Y-78563400D01*
X158211005Y-78553959D01*
X158156195Y-78359619D01*
X158154626Y-78354055D01*
X158058423Y-78158974D01*
X157928280Y-77984691D01*
X157879934Y-77940000D01*
X157806078Y-77871729D01*
X157769633Y-77810800D01*
X157771914Y-77739840D01*
X157811038Y-77682330D01*
X157826796Y-77669225D01*
X157885446Y-77620446D01*
X158024532Y-77453213D01*
X158118948Y-77284621D01*
X158127989Y-77268478D01*
X158127990Y-77268476D01*
X158130813Y-77263435D01*
X158132669Y-77257968D01*
X158132671Y-77257963D01*
X158198874Y-77062935D01*
X158198875Y-77062930D01*
X158200730Y-77057466D01*
X158231941Y-76842205D01*
X158233570Y-76780000D01*
X158213667Y-76563400D01*
X158210944Y-76553743D01*
X158161165Y-76377240D01*
X158154626Y-76354055D01*
X158058423Y-76158974D01*
X157997567Y-76077477D01*
X157931733Y-75989315D01*
X157931732Y-75989314D01*
X157928280Y-75984691D01*
X157908342Y-75966260D01*
X157806078Y-75871729D01*
X157769633Y-75810800D01*
X157771914Y-75739840D01*
X157811038Y-75682330D01*
X157812400Y-75681198D01*
X157885446Y-75620446D01*
X158024532Y-75453213D01*
X158107051Y-75305865D01*
X158127989Y-75268478D01*
X158127990Y-75268476D01*
X158130813Y-75263435D01*
X158132669Y-75257968D01*
X158132671Y-75257963D01*
X158198874Y-75062935D01*
X158198875Y-75062930D01*
X158200730Y-75057466D01*
X158231941Y-74842205D01*
X158233570Y-74780000D01*
X158213667Y-74563400D01*
X158197277Y-74505283D01*
X158180814Y-74446913D01*
X158154626Y-74354055D01*
X158058423Y-74158974D01*
X158000996Y-74082069D01*
X157931733Y-73989315D01*
X157931732Y-73989314D01*
X157928280Y-73984691D01*
X157888716Y-73948118D01*
X157806078Y-73871729D01*
X157769633Y-73810800D01*
X157771914Y-73739840D01*
X157811038Y-73682330D01*
X157834568Y-73662761D01*
X157885446Y-73620446D01*
X158024532Y-73453213D01*
X158124421Y-73274849D01*
X158127989Y-73268478D01*
X158127990Y-73268476D01*
X158130813Y-73263435D01*
X158132669Y-73257968D01*
X158132671Y-73257963D01*
X158198874Y-73062935D01*
X158198875Y-73062930D01*
X158200730Y-73057466D01*
X158231941Y-72842205D01*
X158233570Y-72780000D01*
X158213667Y-72563400D01*
X158197748Y-72506953D01*
X158161950Y-72380025D01*
X158154626Y-72354055D01*
X158058423Y-72158974D01*
X158036433Y-72129525D01*
X157931733Y-71989315D01*
X157931732Y-71989314D01*
X157928280Y-71984691D01*
X157878506Y-71938680D01*
X157806078Y-71871729D01*
X157769633Y-71810800D01*
X157771914Y-71739840D01*
X157811038Y-71682330D01*
X157881008Y-71624137D01*
X157885446Y-71620446D01*
X158024532Y-71453213D01*
X158130813Y-71263435D01*
X158132669Y-71257968D01*
X158132671Y-71257963D01*
X158198874Y-71062935D01*
X158198875Y-71062930D01*
X158200730Y-71057466D01*
X158231941Y-70842205D01*
X158233570Y-70780000D01*
X158213667Y-70563400D01*
X158195787Y-70500000D01*
X158156195Y-70359619D01*
X158154626Y-70354055D01*
X158058423Y-70158974D01*
X157972750Y-70044243D01*
X157931733Y-69989315D01*
X157931732Y-69989314D01*
X157928280Y-69984691D01*
X157871487Y-69932192D01*
X157772796Y-69840963D01*
X157772793Y-69840961D01*
X157768556Y-69837044D01*
X157584599Y-69720976D01*
X157382572Y-69640376D01*
X157169239Y-69597941D01*
X157163464Y-69597865D01*
X157163460Y-69597865D01*
X157054419Y-69596438D01*
X156951746Y-69595094D01*
X156946049Y-69596073D01*
X156946048Y-69596073D01*
X156743065Y-69630952D01*
X156743062Y-69630953D01*
X156737375Y-69631930D01*
X156533307Y-69707214D01*
X156346376Y-69818427D01*
X156182842Y-69961842D01*
X156179270Y-69966373D01*
X156113955Y-70049225D01*
X156048181Y-70132658D01*
X155946905Y-70325154D01*
X155945192Y-70330671D01*
X155891924Y-70502221D01*
X155882403Y-70532882D01*
X155856837Y-70748887D01*
X155871063Y-70965933D01*
X155872484Y-70971529D01*
X155872485Y-70971534D01*
X155923184Y-71171158D01*
X155924605Y-71176753D01*
X156015668Y-71374285D01*
X156019001Y-71379001D01*
X156106730Y-71503134D01*
X156141204Y-71551914D01*
X156145346Y-71555949D01*
X156284741Y-71691741D01*
X156319579Y-71753602D01*
X156315442Y-71824478D01*
X156279899Y-71876726D01*
X156182842Y-71961842D01*
X156179270Y-71966373D01*
X156055457Y-72123429D01*
X156048181Y-72132658D01*
X155946905Y-72325154D01*
X155945192Y-72330671D01*
X155941476Y-72342638D01*
X155902173Y-72401763D01*
X155837144Y-72430253D01*
X155767035Y-72419063D01*
X155732049Y-72394368D01*
X155157750Y-71820069D01*
X155125138Y-71763585D01*
X155105707Y-71691067D01*
X155105706Y-71691065D01*
X155104284Y-71685757D01*
X155101961Y-71680775D01*
X155009849Y-71483238D01*
X155009846Y-71483233D01*
X155007523Y-71478251D01*
X154876198Y-71290700D01*
X154714300Y-71128802D01*
X154709792Y-71125645D01*
X154709789Y-71125643D01*
X154612422Y-71057466D01*
X154526749Y-70997477D01*
X154521767Y-70995154D01*
X154521762Y-70995151D01*
X154487543Y-70979195D01*
X154434258Y-70932278D01*
X154414797Y-70864001D01*
X154435339Y-70796041D01*
X154487543Y-70750805D01*
X154521762Y-70734849D01*
X154521767Y-70734846D01*
X154526749Y-70732523D01*
X154631611Y-70659098D01*
X154709789Y-70604357D01*
X154709792Y-70604355D01*
X154714300Y-70601198D01*
X154876198Y-70439300D01*
X155007523Y-70251749D01*
X155009846Y-70246767D01*
X155009849Y-70246762D01*
X155101961Y-70049225D01*
X155101961Y-70049224D01*
X155104284Y-70044243D01*
X155115459Y-70002540D01*
X155162119Y-69828402D01*
X155162119Y-69828400D01*
X155163543Y-69823087D01*
X155183498Y-69595000D01*
X155163543Y-69366913D01*
X155104284Y-69145757D01*
X155087073Y-69108848D01*
X155009849Y-68943238D01*
X155009846Y-68943233D01*
X155007523Y-68938251D01*
X154906739Y-68794317D01*
X154879357Y-68755211D01*
X154879355Y-68755208D01*
X154876198Y-68750700D01*
X154868597Y-68743099D01*
X154834571Y-68680787D01*
X154839636Y-68609972D01*
X154882183Y-68553136D01*
X154948703Y-68528325D01*
X154957827Y-68528004D01*
X165453289Y-68540293D01*
X165521385Y-68560375D01*
X165567815Y-68614085D01*
X165577836Y-68684371D01*
X165548268Y-68748917D01*
X165541533Y-68756085D01*
X165505713Y-68791347D01*
X165503349Y-68794314D01*
X165503346Y-68794317D01*
X165368862Y-68963084D01*
X165302191Y-69046751D01*
X165130826Y-69324757D01*
X165129237Y-69328204D01*
X165001159Y-69606029D01*
X164994102Y-69621336D01*
X164992941Y-69624940D01*
X164992941Y-69624941D01*
X164987281Y-69642518D01*
X164893997Y-69932192D01*
X164893279Y-69935903D01*
X164893278Y-69935907D01*
X164832682Y-70249105D01*
X164832681Y-70249114D01*
X164831963Y-70252824D01*
X164831696Y-70256600D01*
X164831695Y-70256605D01*
X164809166Y-70574796D01*
X164808898Y-70578585D01*
X164809087Y-70582377D01*
X164824935Y-70900716D01*
X164825136Y-70904759D01*
X164825777Y-70908490D01*
X164825778Y-70908498D01*
X164871873Y-71176753D01*
X164880441Y-71226619D01*
X164881529Y-71230258D01*
X164881530Y-71230261D01*
X164892960Y-71268478D01*
X164974014Y-71539504D01*
X164975527Y-71542975D01*
X164975529Y-71542981D01*
X164981840Y-71557460D01*
X165104497Y-71838881D01*
X165106420Y-71842152D01*
X165106422Y-71842156D01*
X165150615Y-71917330D01*
X165270002Y-72120414D01*
X165272303Y-72123429D01*
X165465831Y-72377012D01*
X165465836Y-72377017D01*
X165468131Y-72380025D01*
X165470775Y-72382739D01*
X165667072Y-72584243D01*
X165696014Y-72613953D01*
X165768835Y-72672607D01*
X165947396Y-72816431D01*
X165947401Y-72816435D01*
X165950349Y-72818809D01*
X166227453Y-72991627D01*
X166523312Y-73129903D01*
X166571165Y-73145590D01*
X166799478Y-73220435D01*
X166833640Y-73231634D01*
X167153942Y-73295346D01*
X167157714Y-73295633D01*
X167157722Y-73295634D01*
X167475802Y-73319829D01*
X167475807Y-73319829D01*
X167479579Y-73320116D01*
X167805833Y-73305586D01*
X167865625Y-73295634D01*
X168124237Y-73252590D01*
X168124242Y-73252589D01*
X168127978Y-73251967D01*
X168441349Y-73160034D01*
X168444816Y-73158544D01*
X168444820Y-73158543D01*
X168737921Y-73032616D01*
X168737923Y-73032615D01*
X168741405Y-73031119D01*
X169023801Y-72867091D01*
X169284445Y-72670324D01*
X169389390Y-72569157D01*
X169410052Y-72549239D01*
X169472978Y-72516361D01*
X169543689Y-72522723D01*
X169599735Y-72566304D01*
X169623500Y-72639952D01*
X169623500Y-94234086D01*
X169622914Y-94246228D01*
X169622787Y-94247543D01*
X169620663Y-94256267D01*
X169621379Y-94271912D01*
X169620018Y-94297006D01*
X169607748Y-94375991D01*
X169590727Y-94485558D01*
X169586826Y-94502690D01*
X169544693Y-94642000D01*
X169524161Y-94709887D01*
X169517914Y-94726307D01*
X169427032Y-94922772D01*
X169418568Y-94938154D01*
X169377761Y-95001421D01*
X169301235Y-95120065D01*
X169290704Y-95134132D01*
X169149207Y-95297946D01*
X169136821Y-95310411D01*
X168973910Y-95452946D01*
X168959911Y-95463566D01*
X168778755Y-95582047D01*
X168763418Y-95590614D01*
X168567536Y-95682741D01*
X168551152Y-95689093D01*
X168344358Y-95753073D01*
X168327249Y-95757083D01*
X168113577Y-95791667D01*
X168096081Y-95793259D01*
X167912743Y-95797088D01*
X167891886Y-95795178D01*
X167886167Y-95794828D01*
X167877380Y-95793016D01*
X167868436Y-95793743D01*
X167868434Y-95793743D01*
X167850786Y-95795178D01*
X167828911Y-95796956D01*
X167819119Y-95797369D01*
X148016310Y-95860515D01*
X147948127Y-95840731D01*
X147901463Y-95787223D01*
X147891135Y-95716982D01*
X147920422Y-95652308D01*
X147926814Y-95645421D01*
X149254829Y-94317405D01*
X149317141Y-94283380D01*
X149343924Y-94280500D01*
X150622134Y-94280500D01*
X150684316Y-94273745D01*
X150820705Y-94222615D01*
X150937261Y-94135261D01*
X150989954Y-94064954D01*
X151046813Y-94022440D01*
X151117631Y-94017415D01*
X151156615Y-94033087D01*
X151281498Y-94109616D01*
X151286068Y-94111509D01*
X151286072Y-94111511D01*
X151510836Y-94204611D01*
X151515409Y-94206505D01*
X151561328Y-94217529D01*
X151756784Y-94264454D01*
X151756790Y-94264455D01*
X151761597Y-94265609D01*
X152014000Y-94285474D01*
X152266403Y-94265609D01*
X152271210Y-94264455D01*
X152271216Y-94264454D01*
X152466672Y-94217529D01*
X152512591Y-94206505D01*
X152517164Y-94204611D01*
X152741928Y-94111511D01*
X152741932Y-94111509D01*
X152746502Y-94109616D01*
X152962376Y-93977328D01*
X153154898Y-93812898D01*
X153319328Y-93620376D01*
X153451616Y-93404502D01*
X153460906Y-93382076D01*
X153546611Y-93175164D01*
X153546612Y-93175162D01*
X153548505Y-93170591D01*
X153554242Y-93146695D01*
X161849251Y-93146695D01*
X161849548Y-93151848D01*
X161849548Y-93151851D01*
X161855011Y-93246590D01*
X161862110Y-93369715D01*
X161863247Y-93374761D01*
X161863248Y-93374767D01*
X161878371Y-93441869D01*
X161911222Y-93587639D01*
X161995266Y-93794616D01*
X162046019Y-93877438D01*
X162109291Y-93980688D01*
X162111987Y-93985088D01*
X162258250Y-94153938D01*
X162430126Y-94296632D01*
X162623000Y-94409338D01*
X162831692Y-94489030D01*
X162836760Y-94490061D01*
X162836763Y-94490062D01*
X162898842Y-94502692D01*
X163050597Y-94533567D01*
X163055772Y-94533757D01*
X163055774Y-94533757D01*
X163268673Y-94541564D01*
X163268677Y-94541564D01*
X163273837Y-94541753D01*
X163278957Y-94541097D01*
X163278959Y-94541097D01*
X163490288Y-94514025D01*
X163490289Y-94514025D01*
X163495416Y-94513368D01*
X163559106Y-94494260D01*
X163704429Y-94450661D01*
X163704434Y-94450659D01*
X163709384Y-94449174D01*
X163909994Y-94350896D01*
X164091860Y-94221173D01*
X164105421Y-94207660D01*
X164201906Y-94111511D01*
X164250096Y-94063489D01*
X164282277Y-94018705D01*
X164380453Y-93882077D01*
X164381776Y-93883028D01*
X164428645Y-93839857D01*
X164498580Y-93827625D01*
X164564026Y-93855144D01*
X164591875Y-93886994D01*
X164651987Y-93985088D01*
X164798250Y-94153938D01*
X164970126Y-94296632D01*
X165163000Y-94409338D01*
X165371692Y-94489030D01*
X165376760Y-94490061D01*
X165376763Y-94490062D01*
X165438842Y-94502692D01*
X165590597Y-94533567D01*
X165595772Y-94533757D01*
X165595774Y-94533757D01*
X165808673Y-94541564D01*
X165808677Y-94541564D01*
X165813837Y-94541753D01*
X165818957Y-94541097D01*
X165818959Y-94541097D01*
X166030288Y-94514025D01*
X166030289Y-94514025D01*
X166035416Y-94513368D01*
X166099106Y-94494260D01*
X166244429Y-94450661D01*
X166244434Y-94450659D01*
X166249384Y-94449174D01*
X166449994Y-94350896D01*
X166631860Y-94221173D01*
X166645421Y-94207660D01*
X166741906Y-94111511D01*
X166790096Y-94063489D01*
X166822277Y-94018705D01*
X166917435Y-93886277D01*
X166920453Y-93882077D01*
X166941320Y-93839857D01*
X167017136Y-93686453D01*
X167017137Y-93686451D01*
X167019430Y-93681811D01*
X167073219Y-93504771D01*
X167082865Y-93473023D01*
X167082865Y-93473021D01*
X167084370Y-93468069D01*
X167113529Y-93246590D01*
X167115156Y-93180000D01*
X167096852Y-92957361D01*
X167042431Y-92740702D01*
X166953354Y-92535840D01*
X166832014Y-92348277D01*
X166681670Y-92183051D01*
X166677619Y-92179852D01*
X166677615Y-92179848D01*
X166510414Y-92047800D01*
X166510410Y-92047798D01*
X166506359Y-92044598D01*
X166465053Y-92021796D01*
X166415084Y-91971364D01*
X166400312Y-91901921D01*
X166425428Y-91835516D01*
X166452780Y-91808909D01*
X166496603Y-91777650D01*
X166631860Y-91681173D01*
X166790096Y-91523489D01*
X166849594Y-91440689D01*
X166917435Y-91346277D01*
X166920453Y-91342077D01*
X166936187Y-91310243D01*
X167017136Y-91146453D01*
X167017137Y-91146451D01*
X167019430Y-91141811D01*
X167084370Y-90928069D01*
X167113529Y-90706590D01*
X167115156Y-90640000D01*
X167096852Y-90417361D01*
X167042431Y-90200702D01*
X166953354Y-89995840D01*
X166832014Y-89808277D01*
X166681670Y-89643051D01*
X166677619Y-89639852D01*
X166677615Y-89639848D01*
X166510414Y-89507800D01*
X166510410Y-89507798D01*
X166506359Y-89504598D01*
X166465053Y-89481796D01*
X166415084Y-89431364D01*
X166400312Y-89361921D01*
X166425428Y-89295516D01*
X166452780Y-89268909D01*
X166496603Y-89237650D01*
X166631860Y-89141173D01*
X166790096Y-88983489D01*
X166849594Y-88900689D01*
X166917435Y-88806277D01*
X166920453Y-88802077D01*
X166941320Y-88759857D01*
X167017136Y-88606453D01*
X167017137Y-88606451D01*
X167019430Y-88601811D01*
X167084370Y-88388069D01*
X167113529Y-88166590D01*
X167115156Y-88100000D01*
X167096852Y-87877361D01*
X167042431Y-87660702D01*
X166953354Y-87455840D01*
X166913906Y-87394862D01*
X166834822Y-87272617D01*
X166834820Y-87272614D01*
X166832014Y-87268277D01*
X166681670Y-87103051D01*
X166677619Y-87099852D01*
X166677615Y-87099848D01*
X166510414Y-86967800D01*
X166510410Y-86967798D01*
X166506359Y-86964598D01*
X166465053Y-86941796D01*
X166415084Y-86891364D01*
X166400312Y-86821921D01*
X166425428Y-86755516D01*
X166452780Y-86728909D01*
X166496603Y-86697650D01*
X166631860Y-86601173D01*
X166790096Y-86443489D01*
X166849594Y-86360689D01*
X166917435Y-86266277D01*
X166920453Y-86262077D01*
X166941320Y-86219857D01*
X167017136Y-86066453D01*
X167017137Y-86066451D01*
X167019430Y-86061811D01*
X167068874Y-85899071D01*
X167082865Y-85853023D01*
X167082865Y-85853021D01*
X167084370Y-85848069D01*
X167113529Y-85626590D01*
X167115156Y-85560000D01*
X167096852Y-85337361D01*
X167042431Y-85120702D01*
X166953354Y-84915840D01*
X166879750Y-84802066D01*
X166834822Y-84732617D01*
X166834820Y-84732614D01*
X166832014Y-84728277D01*
X166681670Y-84563051D01*
X166677619Y-84559852D01*
X166677615Y-84559848D01*
X166510414Y-84427800D01*
X166510410Y-84427798D01*
X166506359Y-84424598D01*
X166465053Y-84401796D01*
X166415084Y-84351364D01*
X166400312Y-84281921D01*
X166425428Y-84215516D01*
X166452780Y-84188909D01*
X166501234Y-84154347D01*
X166631860Y-84061173D01*
X166687613Y-84005615D01*
X166786435Y-83907137D01*
X166790096Y-83903489D01*
X166840964Y-83832699D01*
X166917435Y-83726277D01*
X166920453Y-83722077D01*
X166929540Y-83703692D01*
X167017136Y-83526453D01*
X167017137Y-83526451D01*
X167019430Y-83521811D01*
X167084370Y-83308069D01*
X167113529Y-83086590D01*
X167115156Y-83020000D01*
X167096852Y-82797361D01*
X167042431Y-82580702D01*
X166953354Y-82375840D01*
X166875293Y-82255176D01*
X166834822Y-82192617D01*
X166834820Y-82192614D01*
X166832014Y-82188277D01*
X166681670Y-82023051D01*
X166677619Y-82019852D01*
X166677615Y-82019848D01*
X166510414Y-81887800D01*
X166510410Y-81887798D01*
X166506359Y-81884598D01*
X166465053Y-81861796D01*
X166415084Y-81811364D01*
X166400312Y-81741921D01*
X166425428Y-81675516D01*
X166452780Y-81648909D01*
X166498905Y-81616008D01*
X166631860Y-81521173D01*
X166790096Y-81363489D01*
X166797730Y-81352866D01*
X166917435Y-81186277D01*
X166920453Y-81182077D01*
X166923085Y-81176753D01*
X167017136Y-80986453D01*
X167017137Y-80986451D01*
X167019430Y-80981811D01*
X167072886Y-80805866D01*
X167082865Y-80773023D01*
X167082865Y-80773021D01*
X167084370Y-80768069D01*
X167113529Y-80546590D01*
X167115156Y-80480000D01*
X167096852Y-80257361D01*
X167042431Y-80040702D01*
X166953354Y-79835840D01*
X166832014Y-79648277D01*
X166681670Y-79483051D01*
X166677619Y-79479852D01*
X166677615Y-79479848D01*
X166510414Y-79347800D01*
X166510410Y-79347798D01*
X166506359Y-79344598D01*
X166465053Y-79321796D01*
X166415084Y-79271364D01*
X166400312Y-79201921D01*
X166425428Y-79135516D01*
X166452780Y-79108909D01*
X166517233Y-79062935D01*
X166631860Y-78981173D01*
X166647154Y-78965933D01*
X166744527Y-78868899D01*
X166790096Y-78823489D01*
X166839560Y-78754653D01*
X166917435Y-78646277D01*
X166920453Y-78642077D01*
X166941320Y-78599857D01*
X167017136Y-78446453D01*
X167017137Y-78446451D01*
X167019430Y-78441811D01*
X167084370Y-78228069D01*
X167113529Y-78006590D01*
X167114512Y-77966373D01*
X167115074Y-77943365D01*
X167115074Y-77943361D01*
X167115156Y-77940000D01*
X167096852Y-77717361D01*
X167042431Y-77500702D01*
X166953354Y-77295840D01*
X166840696Y-77121697D01*
X166834822Y-77112617D01*
X166834820Y-77112614D01*
X166832014Y-77108277D01*
X166681670Y-76943051D01*
X166677619Y-76939852D01*
X166677615Y-76939848D01*
X166510414Y-76807800D01*
X166510410Y-76807798D01*
X166506359Y-76804598D01*
X166465053Y-76781796D01*
X166415084Y-76731364D01*
X166400312Y-76661921D01*
X166425428Y-76595516D01*
X166452780Y-76568909D01*
X166496603Y-76537650D01*
X166631860Y-76441173D01*
X166790096Y-76283489D01*
X166840964Y-76212699D01*
X166917435Y-76106277D01*
X166920453Y-76102077D01*
X166941647Y-76059195D01*
X167017136Y-75906453D01*
X167017137Y-75906451D01*
X167019430Y-75901811D01*
X167084370Y-75688069D01*
X167113529Y-75466590D01*
X167114848Y-75412600D01*
X167115074Y-75403365D01*
X167115074Y-75403361D01*
X167115156Y-75400000D01*
X167096852Y-75177361D01*
X167042431Y-74960702D01*
X166953354Y-74755840D01*
X166832014Y-74568277D01*
X166681670Y-74403051D01*
X166677619Y-74399852D01*
X166677615Y-74399848D01*
X166510414Y-74267800D01*
X166510410Y-74267798D01*
X166506359Y-74264598D01*
X166310789Y-74156638D01*
X166305920Y-74154914D01*
X166305916Y-74154912D01*
X166105087Y-74083795D01*
X166105083Y-74083794D01*
X166100212Y-74082069D01*
X166095119Y-74081162D01*
X166095116Y-74081161D01*
X165885373Y-74043800D01*
X165885367Y-74043799D01*
X165880284Y-74042894D01*
X165806452Y-74041992D01*
X165662081Y-74040228D01*
X165662079Y-74040228D01*
X165656911Y-74040165D01*
X165436091Y-74073955D01*
X165223756Y-74143357D01*
X165025607Y-74246507D01*
X165021474Y-74249610D01*
X165021471Y-74249612D01*
X164851100Y-74377530D01*
X164846965Y-74380635D01*
X164778392Y-74452393D01*
X164766283Y-74465064D01*
X164704759Y-74500494D01*
X164633846Y-74497037D01*
X164576060Y-74455791D01*
X164557207Y-74422243D01*
X164515767Y-74311703D01*
X164512615Y-74303295D01*
X164425261Y-74186739D01*
X164308705Y-74099385D01*
X164172316Y-74048255D01*
X164110134Y-74041500D01*
X162313866Y-74041500D01*
X162251684Y-74048255D01*
X162115295Y-74099385D01*
X161998739Y-74186739D01*
X161911385Y-74303295D01*
X161860255Y-74439684D01*
X161853500Y-74501866D01*
X161853500Y-76298134D01*
X161860255Y-76360316D01*
X161911385Y-76496705D01*
X161998739Y-76613261D01*
X162115295Y-76700615D01*
X162123704Y-76703767D01*
X162123705Y-76703768D01*
X162232451Y-76744535D01*
X162289216Y-76787176D01*
X162313916Y-76853738D01*
X162298709Y-76923087D01*
X162279316Y-76949568D01*
X162181667Y-77051752D01*
X162152629Y-77082138D01*
X162149720Y-77086403D01*
X162149714Y-77086411D01*
X162071191Y-77201522D01*
X162026743Y-77266680D01*
X162011003Y-77300590D01*
X161940158Y-77453213D01*
X161932688Y-77469305D01*
X161872989Y-77684570D01*
X161849251Y-77906695D01*
X161849548Y-77911848D01*
X161849548Y-77911851D01*
X161856920Y-78039705D01*
X161862110Y-78129715D01*
X161863247Y-78134761D01*
X161863248Y-78134767D01*
X161881849Y-78217301D01*
X161911222Y-78347639D01*
X161995266Y-78554616D01*
X162032362Y-78615151D01*
X162109291Y-78740688D01*
X162111987Y-78745088D01*
X162258250Y-78913938D01*
X162430126Y-79056632D01*
X162493634Y-79093743D01*
X162503445Y-79099476D01*
X162552169Y-79151114D01*
X162565240Y-79220897D01*
X162538509Y-79286669D01*
X162498055Y-79320027D01*
X162485607Y-79326507D01*
X162481474Y-79329610D01*
X162481471Y-79329612D01*
X162415691Y-79379001D01*
X162306965Y-79460635D01*
X162152629Y-79622138D01*
X162026743Y-79806680D01*
X161988379Y-79889329D01*
X161947402Y-79977607D01*
X161932688Y-80009305D01*
X161872989Y-80224570D01*
X161849251Y-80446695D01*
X161849548Y-80451848D01*
X161849548Y-80451851D01*
X161855011Y-80546590D01*
X161862110Y-80669715D01*
X161863247Y-80674761D01*
X161863248Y-80674767D01*
X161870712Y-80707885D01*
X161911222Y-80887639D01*
X161995266Y-81094616D01*
X162032362Y-81155151D01*
X162109291Y-81280688D01*
X162111987Y-81285088D01*
X162258250Y-81453938D01*
X162430126Y-81596632D01*
X162493634Y-81633743D01*
X162503445Y-81639476D01*
X162552169Y-81691114D01*
X162565240Y-81760897D01*
X162538509Y-81826669D01*
X162498055Y-81860027D01*
X162485607Y-81866507D01*
X162481474Y-81869610D01*
X162481471Y-81869612D01*
X162311100Y-81997530D01*
X162306965Y-82000635D01*
X162303393Y-82004373D01*
X162185134Y-82128124D01*
X162152629Y-82162138D01*
X162026743Y-82346680D01*
X162000374Y-82403488D01*
X161944293Y-82524305D01*
X161932688Y-82549305D01*
X161872989Y-82764570D01*
X161849251Y-82986695D01*
X161849548Y-82991848D01*
X161849548Y-82991851D01*
X161855011Y-83086590D01*
X161862110Y-83209715D01*
X161863247Y-83214761D01*
X161863248Y-83214767D01*
X161872983Y-83257963D01*
X161911222Y-83427639D01*
X161995266Y-83634616D01*
X162032362Y-83695151D01*
X162109291Y-83820688D01*
X162111987Y-83825088D01*
X162258250Y-83993938D01*
X162430126Y-84136632D01*
X162468360Y-84158974D01*
X162503445Y-84179476D01*
X162552169Y-84231114D01*
X162565240Y-84300897D01*
X162538509Y-84366669D01*
X162498055Y-84400027D01*
X162485607Y-84406507D01*
X162481474Y-84409610D01*
X162481471Y-84409612D01*
X162352226Y-84506652D01*
X162306965Y-84540635D01*
X162152629Y-84702138D01*
X162026743Y-84886680D01*
X162011003Y-84920590D01*
X161947402Y-85057607D01*
X161932688Y-85089305D01*
X161872989Y-85304570D01*
X161849251Y-85526695D01*
X161849548Y-85531848D01*
X161849548Y-85531851D01*
X161857522Y-85670139D01*
X161862110Y-85749715D01*
X161863247Y-85754761D01*
X161863248Y-85754767D01*
X161873442Y-85800000D01*
X161911222Y-85967639D01*
X161995266Y-86174616D01*
X162032628Y-86235586D01*
X162109291Y-86360688D01*
X162111987Y-86365088D01*
X162258250Y-86533938D01*
X162430126Y-86676632D01*
X162494062Y-86713993D01*
X162503445Y-86719476D01*
X162552169Y-86771114D01*
X162565240Y-86840897D01*
X162538509Y-86906669D01*
X162498055Y-86940027D01*
X162485607Y-86946507D01*
X162481474Y-86949610D01*
X162481471Y-86949612D01*
X162457247Y-86967800D01*
X162306965Y-87080635D01*
X162152629Y-87242138D01*
X162149720Y-87246403D01*
X162149714Y-87246411D01*
X162147711Y-87249348D01*
X162026743Y-87426680D01*
X161932688Y-87629305D01*
X161872989Y-87844570D01*
X161849251Y-88066695D01*
X161849548Y-88071848D01*
X161849548Y-88071851D01*
X161855011Y-88166590D01*
X161862110Y-88289715D01*
X161863247Y-88294761D01*
X161863248Y-88294767D01*
X161881762Y-88376916D01*
X161911222Y-88507639D01*
X161995266Y-88714616D01*
X162046019Y-88797438D01*
X162109291Y-88900688D01*
X162111987Y-88905088D01*
X162258250Y-89073938D01*
X162430126Y-89216632D01*
X162500595Y-89257811D01*
X162503445Y-89259476D01*
X162552169Y-89311114D01*
X162565240Y-89380897D01*
X162538509Y-89446669D01*
X162498055Y-89480027D01*
X162485607Y-89486507D01*
X162481474Y-89489610D01*
X162481471Y-89489612D01*
X162457247Y-89507800D01*
X162306965Y-89620635D01*
X162152629Y-89782138D01*
X162026743Y-89966680D01*
X161932688Y-90169305D01*
X161872989Y-90384570D01*
X161849251Y-90606695D01*
X161849548Y-90611848D01*
X161849548Y-90611851D01*
X161855011Y-90706590D01*
X161862110Y-90829715D01*
X161863247Y-90834761D01*
X161863248Y-90834767D01*
X161883119Y-90922939D01*
X161911222Y-91047639D01*
X161995266Y-91254616D01*
X162034174Y-91318109D01*
X162109291Y-91440688D01*
X162111987Y-91445088D01*
X162258250Y-91613938D01*
X162430126Y-91756632D01*
X162500595Y-91797811D01*
X162503445Y-91799476D01*
X162552169Y-91851114D01*
X162565240Y-91920897D01*
X162538509Y-91986669D01*
X162498055Y-92020027D01*
X162485607Y-92026507D01*
X162481474Y-92029610D01*
X162481471Y-92029612D01*
X162311100Y-92157530D01*
X162306965Y-92160635D01*
X162152629Y-92322138D01*
X162149720Y-92326403D01*
X162149714Y-92326411D01*
X162137598Y-92344172D01*
X162026743Y-92506680D01*
X161932688Y-92709305D01*
X161872989Y-92924570D01*
X161849251Y-93146695D01*
X153554242Y-93146695D01*
X153599697Y-92957361D01*
X153606454Y-92929216D01*
X153606455Y-92929210D01*
X153607609Y-92924403D01*
X153627474Y-92672000D01*
X153607609Y-92419597D01*
X153606353Y-92414362D01*
X153568821Y-92258032D01*
X153548505Y-92173409D01*
X153534672Y-92140012D01*
X153453511Y-91944072D01*
X153453509Y-91944068D01*
X153451616Y-91939498D01*
X153319328Y-91723624D01*
X153154898Y-91531102D01*
X152962376Y-91366672D01*
X152746502Y-91234384D01*
X152741932Y-91232491D01*
X152741928Y-91232489D01*
X152517164Y-91139389D01*
X152517162Y-91139388D01*
X152512591Y-91137495D01*
X152427968Y-91117179D01*
X152271216Y-91079546D01*
X152271210Y-91079545D01*
X152266403Y-91078391D01*
X152014000Y-91058526D01*
X151761597Y-91078391D01*
X151756790Y-91079545D01*
X151756784Y-91079546D01*
X151600032Y-91117179D01*
X151515409Y-91137495D01*
X151510838Y-91139388D01*
X151510836Y-91139389D01*
X151286072Y-91232489D01*
X151286068Y-91232491D01*
X151281498Y-91234384D01*
X151277278Y-91236970D01*
X151156614Y-91310913D01*
X151088080Y-91329451D01*
X151020404Y-91307995D01*
X150989953Y-91279046D01*
X150937261Y-91208739D01*
X150820705Y-91121385D01*
X150684316Y-91070255D01*
X150622134Y-91063500D01*
X148325866Y-91063500D01*
X148263684Y-91070255D01*
X148127295Y-91121385D01*
X148010739Y-91208739D01*
X147923385Y-91325295D01*
X147872255Y-91461684D01*
X147865500Y-91523866D01*
X147865500Y-92802076D01*
X147845498Y-92870197D01*
X147828595Y-92891171D01*
X147248595Y-93471171D01*
X147186283Y-93505197D01*
X147115468Y-93500132D01*
X147058632Y-93457585D01*
X147033821Y-93391065D01*
X147033500Y-93382076D01*
X147033500Y-93049600D01*
X147022526Y-92943834D01*
X147016044Y-92924403D01*
X146968868Y-92783002D01*
X146966550Y-92776054D01*
X146873478Y-92625652D01*
X146748303Y-92500695D01*
X146709951Y-92477054D01*
X146668384Y-92451432D01*
X146620891Y-92398660D01*
X146608500Y-92344172D01*
X146608500Y-92165676D01*
X146609726Y-92148140D01*
X146612748Y-92126639D01*
X146612748Y-92126636D01*
X146613299Y-92122717D01*
X146613616Y-92100000D01*
X146593397Y-91919745D01*
X146589716Y-91909174D01*
X146536064Y-91755106D01*
X146536062Y-91755103D01*
X146533745Y-91748448D01*
X146437626Y-91594624D01*
X146374546Y-91531102D01*
X146314778Y-91470915D01*
X146314774Y-91470912D01*
X146309815Y-91465918D01*
X146303144Y-91461684D01*
X146250538Y-91428300D01*
X146156666Y-91368727D01*
X146127463Y-91358328D01*
X145992425Y-91310243D01*
X145992420Y-91310242D01*
X145985790Y-91307881D01*
X145978802Y-91307048D01*
X145978799Y-91307047D01*
X145855698Y-91292368D01*
X145805680Y-91286404D01*
X145798677Y-91287140D01*
X145798676Y-91287140D01*
X145632288Y-91304628D01*
X145632286Y-91304629D01*
X145625288Y-91305364D01*
X145453579Y-91363818D01*
X145447575Y-91367512D01*
X145305095Y-91455166D01*
X145305092Y-91455168D01*
X145299088Y-91458862D01*
X145294053Y-91463793D01*
X145294050Y-91463795D01*
X145174525Y-91580843D01*
X145169493Y-91585771D01*
X145071235Y-91738238D01*
X145068826Y-91744858D01*
X145068824Y-91744861D01*
X145044789Y-91810896D01*
X145009197Y-91908685D01*
X144986463Y-92088640D01*
X144989416Y-92118757D01*
X144990899Y-92133882D01*
X144991500Y-92146177D01*
X144991500Y-92344160D01*
X144971498Y-92412281D01*
X144931803Y-92451304D01*
X144850652Y-92501522D01*
X144725695Y-92626697D01*
X144721855Y-92632927D01*
X144721854Y-92632928D01*
X144677669Y-92704610D01*
X144632885Y-92777262D01*
X144630581Y-92784209D01*
X144582322Y-92929707D01*
X144577203Y-92945139D01*
X144576503Y-92951975D01*
X144576502Y-92951978D01*
X144575422Y-92962522D01*
X144566500Y-93049600D01*
X144566500Y-93343752D01*
X144546498Y-93411873D01*
X144492842Y-93458366D01*
X144422568Y-93468470D01*
X144396276Y-93461736D01*
X144360316Y-93448255D01*
X144298134Y-93441500D01*
X142701866Y-93441500D01*
X142639684Y-93448255D01*
X142503295Y-93499385D01*
X142386739Y-93586739D01*
X142372926Y-93605170D01*
X142316067Y-93647683D01*
X142245248Y-93652708D01*
X142198037Y-93631537D01*
X142179209Y-93617857D01*
X142083982Y-93569336D01*
X142065355Y-93563284D01*
X141986373Y-93550775D01*
X141976527Y-93550000D01*
X141918115Y-93550000D01*
X141902876Y-93554475D01*
X141901671Y-93555865D01*
X141900000Y-93563548D01*
X141900000Y-95524000D01*
X141879998Y-95592121D01*
X141826342Y-95638614D01*
X141774000Y-95650000D01*
X140626000Y-95650000D01*
X140557879Y-95629998D01*
X140511386Y-95576342D01*
X140500000Y-95524000D01*
X140500000Y-93568116D01*
X140495525Y-93552877D01*
X140494135Y-93551672D01*
X140486452Y-93550001D01*
X140423475Y-93550001D01*
X140413626Y-93550776D01*
X140334649Y-93563283D01*
X140316014Y-93569338D01*
X140220791Y-93617857D01*
X140201963Y-93631537D01*
X140135096Y-93655397D01*
X140065944Y-93639319D01*
X140027075Y-93605170D01*
X140013261Y-93586739D01*
X139896705Y-93499385D01*
X139760316Y-93448255D01*
X139698134Y-93441500D01*
X138101866Y-93441500D01*
X138039684Y-93448255D01*
X137903295Y-93499385D01*
X137786739Y-93586739D01*
X137699385Y-93703295D01*
X137648255Y-93839684D01*
X137641500Y-93901866D01*
X137641500Y-94015500D01*
X137621498Y-94083621D01*
X137567842Y-94130114D01*
X137515500Y-94141500D01*
X137315905Y-94141500D01*
X137300986Y-94140614D01*
X137297326Y-94140178D01*
X137265680Y-94136404D01*
X137219425Y-94141266D01*
X137216507Y-94141500D01*
X137214390Y-94141500D01*
X137172932Y-94146151D01*
X137172335Y-94146215D01*
X137085288Y-94155364D01*
X137082584Y-94156285D01*
X137079745Y-94156603D01*
X136997111Y-94185379D01*
X136996456Y-94185604D01*
X136975107Y-94192872D01*
X136904174Y-94195891D01*
X136842870Y-94160082D01*
X136810658Y-94096813D01*
X136808500Y-94073595D01*
X136808500Y-89676525D01*
X138900001Y-89676525D01*
X138900776Y-89686374D01*
X138913283Y-89765351D01*
X138919338Y-89783986D01*
X138967859Y-89879213D01*
X138979370Y-89895056D01*
X139054944Y-89970630D01*
X139070787Y-89982141D01*
X139166018Y-90030664D01*
X139184645Y-90036716D01*
X139263627Y-90049225D01*
X139273473Y-90050000D01*
X140181885Y-90050000D01*
X140197124Y-90045525D01*
X140198329Y-90044135D01*
X140200000Y-90036452D01*
X140200000Y-90031884D01*
X142200000Y-90031884D01*
X142204475Y-90047123D01*
X142205865Y-90048328D01*
X142213548Y-90049999D01*
X143126525Y-90049999D01*
X143136374Y-90049224D01*
X143215351Y-90036717D01*
X143233986Y-90030662D01*
X143329213Y-89982141D01*
X143345056Y-89970630D01*
X143420630Y-89895056D01*
X143432141Y-89879213D01*
X143480664Y-89783982D01*
X143486716Y-89765355D01*
X143499225Y-89686373D01*
X143500000Y-89676527D01*
X143500000Y-89668115D01*
X143495525Y-89652876D01*
X143494135Y-89651671D01*
X143486452Y-89650000D01*
X142218115Y-89650000D01*
X142202876Y-89654475D01*
X142201671Y-89655865D01*
X142200000Y-89663548D01*
X142200000Y-90031884D01*
X140200000Y-90031884D01*
X140200000Y-89668115D01*
X140195525Y-89652876D01*
X140194135Y-89651671D01*
X140186452Y-89650000D01*
X138918116Y-89650000D01*
X138902877Y-89654475D01*
X138901672Y-89655865D01*
X138900001Y-89663548D01*
X138900001Y-89676525D01*
X136808500Y-89676525D01*
X136808500Y-86825400D01*
X137291500Y-86825400D01*
X137291837Y-86828646D01*
X137291837Y-86828650D01*
X137301618Y-86922914D01*
X137302474Y-86931166D01*
X137358450Y-87098946D01*
X137451522Y-87249348D01*
X137576697Y-87374305D01*
X137582927Y-87378145D01*
X137582928Y-87378146D01*
X137716677Y-87460590D01*
X137727262Y-87467115D01*
X137807005Y-87493564D01*
X137888611Y-87520632D01*
X137888613Y-87520632D01*
X137895139Y-87522797D01*
X137901975Y-87523497D01*
X137901978Y-87523498D01*
X137945031Y-87527909D01*
X137999600Y-87533500D01*
X138600400Y-87533500D01*
X138603646Y-87533163D01*
X138603650Y-87533163D01*
X138699308Y-87523238D01*
X138699312Y-87523237D01*
X138706166Y-87522526D01*
X138734122Y-87513199D01*
X138805071Y-87510613D01*
X138866156Y-87546796D01*
X138897982Y-87610260D01*
X138899892Y-87631516D01*
X138904475Y-87647124D01*
X138905865Y-87648329D01*
X138913548Y-87650000D01*
X140181885Y-87650000D01*
X140197124Y-87645525D01*
X140198329Y-87644135D01*
X140200000Y-87636452D01*
X140200000Y-87631885D01*
X142200000Y-87631885D01*
X142204475Y-87647124D01*
X142205865Y-87648329D01*
X142213548Y-87650000D01*
X143481884Y-87650000D01*
X143497123Y-87645525D01*
X143498328Y-87644135D01*
X143499999Y-87636452D01*
X143499999Y-87623475D01*
X143499224Y-87613626D01*
X143486717Y-87534649D01*
X143480662Y-87516014D01*
X143432141Y-87420787D01*
X143420630Y-87404944D01*
X143345056Y-87329370D01*
X143329213Y-87317859D01*
X143233982Y-87269336D01*
X143215355Y-87263284D01*
X143136373Y-87250775D01*
X143126527Y-87250000D01*
X142218115Y-87250000D01*
X142202876Y-87254475D01*
X142201671Y-87255865D01*
X142200000Y-87263548D01*
X142200000Y-87631885D01*
X140200000Y-87631885D01*
X140200000Y-87591115D01*
X140195525Y-87575876D01*
X140194135Y-87574671D01*
X140186452Y-87573000D01*
X139826000Y-87573000D01*
X139757879Y-87552998D01*
X139711386Y-87499342D01*
X139700000Y-87447000D01*
X139700000Y-87191885D01*
X140700000Y-87191885D01*
X140704475Y-87207124D01*
X140705865Y-87208329D01*
X140713548Y-87210000D01*
X141054213Y-87210000D01*
X141073488Y-87204340D01*
X141079750Y-87197959D01*
X141137816Y-87103757D01*
X141143963Y-87090576D01*
X141195138Y-86936290D01*
X141198005Y-86922914D01*
X141207672Y-86828562D01*
X141208000Y-86822146D01*
X141208000Y-86818115D01*
X141203525Y-86802876D01*
X141202135Y-86801671D01*
X141194452Y-86800000D01*
X140718115Y-86800000D01*
X140702876Y-86804475D01*
X140701671Y-86805865D01*
X140700000Y-86813548D01*
X140700000Y-87191885D01*
X139700000Y-87191885D01*
X139700000Y-85781885D01*
X140700000Y-85781885D01*
X140704475Y-85797124D01*
X140705865Y-85798329D01*
X140713548Y-85800000D01*
X141189884Y-85800000D01*
X141205123Y-85795525D01*
X141206328Y-85794135D01*
X141207999Y-85786452D01*
X141207999Y-85777905D01*
X141207662Y-85771386D01*
X141197743Y-85675794D01*
X141194851Y-85662400D01*
X141143412Y-85508216D01*
X141137239Y-85495038D01*
X141051937Y-85357193D01*
X141042901Y-85345792D01*
X140985534Y-85288525D01*
X141976683Y-85288525D01*
X142013685Y-85368789D01*
X142019436Y-85378750D01*
X142138254Y-85546873D01*
X142145720Y-85555615D01*
X142293191Y-85699275D01*
X142302124Y-85706509D01*
X142473299Y-85820884D01*
X142483412Y-85826375D01*
X142528356Y-85845684D01*
X142542356Y-85847375D01*
X142545000Y-85843048D01*
X142545000Y-85837848D01*
X143545000Y-85837848D01*
X143548973Y-85851379D01*
X143551038Y-85851676D01*
X143555134Y-85850288D01*
X143712882Y-85761944D01*
X143722375Y-85755420D01*
X143880653Y-85623782D01*
X143888782Y-85615653D01*
X144020420Y-85457375D01*
X144026944Y-85447882D01*
X144112111Y-85295806D01*
X144115256Y-85282060D01*
X144113597Y-85280790D01*
X144109349Y-85280000D01*
X143563115Y-85280000D01*
X143547876Y-85284475D01*
X143546671Y-85285865D01*
X143545000Y-85293548D01*
X143545000Y-85837848D01*
X142545000Y-85837848D01*
X142545000Y-85298115D01*
X142540525Y-85282876D01*
X142539135Y-85281671D01*
X142531452Y-85280000D01*
X141990868Y-85280000D01*
X141977337Y-85283973D01*
X141976683Y-85288525D01*
X140985534Y-85288525D01*
X140928171Y-85231261D01*
X140916760Y-85222249D01*
X140778757Y-85137184D01*
X140765576Y-85131037D01*
X140717194Y-85114989D01*
X140703101Y-85114500D01*
X140700000Y-85120711D01*
X140700000Y-85781885D01*
X139700000Y-85781885D01*
X139700000Y-85127422D01*
X139696027Y-85113891D01*
X139689201Y-85112910D01*
X139633216Y-85131588D01*
X139620038Y-85137761D01*
X139482193Y-85223063D01*
X139470792Y-85232099D01*
X139356262Y-85346828D01*
X139349206Y-85355762D01*
X139291288Y-85396823D01*
X139220365Y-85400053D01*
X139158954Y-85364426D01*
X139152155Y-85356594D01*
X139148478Y-85350652D01*
X139143292Y-85345475D01*
X139138751Y-85339746D01*
X139140424Y-85338420D01*
X139111402Y-85285375D01*
X139108500Y-85258489D01*
X139108500Y-85065676D01*
X139109726Y-85048140D01*
X139112748Y-85026639D01*
X139112748Y-85026636D01*
X139113299Y-85022717D01*
X139113616Y-85000000D01*
X139093397Y-84819745D01*
X139091080Y-84813091D01*
X139036064Y-84655106D01*
X139036062Y-84655103D01*
X139033745Y-84648448D01*
X138944939Y-84506328D01*
X138941359Y-84500598D01*
X138937626Y-84494624D01*
X138923941Y-84480843D01*
X138814778Y-84370915D01*
X138814774Y-84370912D01*
X138809815Y-84365918D01*
X138799890Y-84359619D01*
X138707358Y-84300897D01*
X138656666Y-84268727D01*
X138602215Y-84249338D01*
X138492425Y-84210243D01*
X138492420Y-84210242D01*
X138485790Y-84207881D01*
X138478802Y-84207048D01*
X138478799Y-84207047D01*
X138355698Y-84192368D01*
X138305680Y-84186404D01*
X138298677Y-84187140D01*
X138298676Y-84187140D01*
X138132288Y-84204628D01*
X138132286Y-84204629D01*
X138125288Y-84205364D01*
X137953579Y-84263818D01*
X137912364Y-84289174D01*
X137805095Y-84355166D01*
X137805092Y-84355168D01*
X137799088Y-84358862D01*
X137794053Y-84363793D01*
X137794050Y-84363795D01*
X137674525Y-84480843D01*
X137669493Y-84485771D01*
X137571235Y-84638238D01*
X137568826Y-84644858D01*
X137568824Y-84644861D01*
X137518289Y-84783704D01*
X137509197Y-84808685D01*
X137486463Y-84988640D01*
X137489416Y-85018757D01*
X137490899Y-85033882D01*
X137491500Y-85046177D01*
X137491500Y-85258694D01*
X137471498Y-85326815D01*
X137460317Y-85340702D01*
X137460404Y-85340771D01*
X137455866Y-85346517D01*
X137450695Y-85351697D01*
X137446855Y-85357927D01*
X137446854Y-85357928D01*
X137440005Y-85369040D01*
X137357885Y-85502262D01*
X137302203Y-85670139D01*
X137301503Y-85676975D01*
X137301502Y-85676978D01*
X137298436Y-85706902D01*
X137291500Y-85774600D01*
X137291500Y-86825400D01*
X136808500Y-86825400D01*
X136808500Y-81223299D01*
X138833740Y-81223299D01*
X138856588Y-81291784D01*
X138862761Y-81304962D01*
X138948063Y-81442807D01*
X138957099Y-81454208D01*
X139071829Y-81568739D01*
X139083240Y-81577751D01*
X139221243Y-81662816D01*
X139234424Y-81668963D01*
X139388710Y-81720138D01*
X139402086Y-81723005D01*
X139486477Y-81731652D01*
X139497124Y-81728525D01*
X139498329Y-81727135D01*
X139500000Y-81719452D01*
X139500000Y-81714884D01*
X140500000Y-81714884D01*
X140504475Y-81730123D01*
X140505865Y-81731328D01*
X140509290Y-81732073D01*
X140599206Y-81722743D01*
X140612600Y-81719851D01*
X140766784Y-81668412D01*
X140779962Y-81662239D01*
X140917807Y-81576937D01*
X140929208Y-81567901D01*
X141043739Y-81453171D01*
X141052751Y-81441760D01*
X141137816Y-81303757D01*
X141143963Y-81290576D01*
X141164157Y-81229694D01*
X141164646Y-81215601D01*
X141158435Y-81212500D01*
X140518115Y-81212500D01*
X140502876Y-81216975D01*
X140501671Y-81218365D01*
X140500000Y-81226048D01*
X140500000Y-81714884D01*
X139500000Y-81714884D01*
X139500000Y-81230615D01*
X139495525Y-81215376D01*
X139494135Y-81214171D01*
X139486452Y-81212500D01*
X138848252Y-81212500D01*
X138834721Y-81216473D01*
X138833740Y-81223299D01*
X136808500Y-81223299D01*
X136808500Y-75309290D01*
X137367927Y-75309290D01*
X137377257Y-75399206D01*
X137380149Y-75412600D01*
X137431588Y-75566784D01*
X137437761Y-75579962D01*
X137523063Y-75717807D01*
X137532099Y-75729208D01*
X137646829Y-75843739D01*
X137658240Y-75852751D01*
X137796243Y-75937816D01*
X137809424Y-75943963D01*
X137870306Y-75964157D01*
X137884399Y-75964646D01*
X137887500Y-75958435D01*
X137887500Y-75318115D01*
X137883025Y-75302876D01*
X137881635Y-75301671D01*
X137873952Y-75300000D01*
X137385116Y-75300000D01*
X137369877Y-75304475D01*
X137368672Y-75305865D01*
X137367927Y-75309290D01*
X136808500Y-75309290D01*
X136808500Y-74286477D01*
X137368348Y-74286477D01*
X137371475Y-74297124D01*
X137372865Y-74298329D01*
X137380548Y-74300000D01*
X137869385Y-74300000D01*
X137884624Y-74295525D01*
X137885829Y-74294135D01*
X137887500Y-74286452D01*
X137887500Y-73648252D01*
X137883527Y-73634721D01*
X137876701Y-73633740D01*
X137808216Y-73656588D01*
X137795038Y-73662761D01*
X137657193Y-73748063D01*
X137645792Y-73757099D01*
X137531261Y-73871829D01*
X137522249Y-73883240D01*
X137437184Y-74021243D01*
X137431037Y-74034424D01*
X137379862Y-74188710D01*
X137376995Y-74202086D01*
X137368348Y-74286477D01*
X136808500Y-74286477D01*
X136808500Y-72637077D01*
X136828502Y-72568956D01*
X136882158Y-72522463D01*
X136952432Y-72512359D01*
X137013538Y-72538949D01*
X137225196Y-72709431D01*
X137225201Y-72709435D01*
X137228149Y-72711809D01*
X137505253Y-72884627D01*
X137801112Y-73022903D01*
X137826175Y-73031119D01*
X138089474Y-73117433D01*
X138111440Y-73124634D01*
X138431742Y-73188346D01*
X138435514Y-73188633D01*
X138435522Y-73188634D01*
X138753602Y-73212829D01*
X138753607Y-73212829D01*
X138757379Y-73213116D01*
X139083633Y-73198586D01*
X139143425Y-73188634D01*
X139402037Y-73145590D01*
X139402042Y-73145589D01*
X139405778Y-73144967D01*
X139409407Y-73143902D01*
X139409426Y-73143898D01*
X139499635Y-73117433D01*
X139570632Y-73117449D01*
X139630349Y-73155847D01*
X139659827Y-73220435D01*
X139649008Y-73292206D01*
X139614643Y-73364868D01*
X139521682Y-73624685D01*
X139503147Y-73698685D01*
X139470097Y-73757086D01*
X139435387Y-73791857D01*
X139388862Y-73838463D01*
X139326579Y-73872542D01*
X139255759Y-73867539D01*
X139210671Y-73838618D01*
X139128171Y-73756261D01*
X139116760Y-73747249D01*
X138978757Y-73662184D01*
X138965576Y-73656037D01*
X138904694Y-73635843D01*
X138890601Y-73635354D01*
X138887500Y-73641565D01*
X138887500Y-75951748D01*
X138891473Y-75965279D01*
X138898299Y-75966260D01*
X138966784Y-75943412D01*
X138979962Y-75937239D01*
X139117807Y-75851937D01*
X139129208Y-75842901D01*
X139210430Y-75761538D01*
X139272713Y-75727459D01*
X139343533Y-75732462D01*
X139388620Y-75761383D01*
X139471512Y-75844130D01*
X139471517Y-75844134D01*
X139476697Y-75849305D01*
X139482927Y-75853145D01*
X139482928Y-75853146D01*
X139620288Y-75937816D01*
X139627262Y-75942115D01*
X139656305Y-75951748D01*
X139788611Y-75995632D01*
X139788613Y-75995632D01*
X139795139Y-75997797D01*
X139801975Y-75998497D01*
X139801978Y-75998498D01*
X139845031Y-76002909D01*
X139899600Y-76008500D01*
X140439629Y-76008500D01*
X140507750Y-76028502D01*
X140554243Y-76082158D01*
X140564347Y-76152432D01*
X140534853Y-76217012D01*
X140528724Y-76223595D01*
X140093394Y-76658925D01*
X140080129Y-76670457D01*
X140064491Y-76682241D01*
X140064487Y-76682245D01*
X140061328Y-76684625D01*
X140046047Y-76699485D01*
X140043590Y-76702563D01*
X140043580Y-76702574D01*
X140034032Y-76714536D01*
X140028938Y-76720523D01*
X139865061Y-76901338D01*
X139703608Y-77119036D01*
X139564271Y-77351511D01*
X139448392Y-77596524D01*
X139362337Y-77837044D01*
X139362281Y-77837200D01*
X139320500Y-77894601D01*
X139283528Y-77914275D01*
X139226054Y-77933450D01*
X139219830Y-77937301D01*
X139219829Y-77937302D01*
X139113275Y-78003240D01*
X139075652Y-78026522D01*
X138950695Y-78151697D01*
X138946855Y-78157927D01*
X138946854Y-78157928D01*
X138905907Y-78224357D01*
X138857885Y-78302262D01*
X138802203Y-78470139D01*
X138801503Y-78476975D01*
X138801502Y-78476978D01*
X138800680Y-78485000D01*
X138791500Y-78574600D01*
X138791500Y-79200400D01*
X138791837Y-79203646D01*
X138791837Y-79203650D01*
X138798564Y-79268478D01*
X138802474Y-79306166D01*
X138858450Y-79473946D01*
X138951522Y-79624348D01*
X138956704Y-79629521D01*
X139038463Y-79711138D01*
X139072542Y-79773421D01*
X139067539Y-79844241D01*
X139038618Y-79889329D01*
X138956261Y-79971829D01*
X138947249Y-79983240D01*
X138862184Y-80121243D01*
X138856037Y-80134424D01*
X138835843Y-80195306D01*
X138835354Y-80209399D01*
X138841565Y-80212500D01*
X141151748Y-80212500D01*
X141165279Y-80208527D01*
X141166260Y-80201701D01*
X141143412Y-80133216D01*
X141137239Y-80120038D01*
X141051937Y-79982193D01*
X141042901Y-79970792D01*
X140961538Y-79889570D01*
X140927459Y-79827287D01*
X140932462Y-79756467D01*
X140961383Y-79711380D01*
X141044130Y-79628488D01*
X141044134Y-79628483D01*
X141049305Y-79623303D01*
X141093310Y-79551914D01*
X141138275Y-79478968D01*
X141138276Y-79478966D01*
X141142115Y-79472738D01*
X141189588Y-79329612D01*
X141195632Y-79311389D01*
X141195632Y-79311387D01*
X141197797Y-79304861D01*
X141202042Y-79263435D01*
X141208172Y-79203598D01*
X141208500Y-79200400D01*
X141208500Y-78574600D01*
X141207338Y-78563400D01*
X141198238Y-78475692D01*
X141198237Y-78475688D01*
X141197526Y-78468834D01*
X141188511Y-78441811D01*
X141143868Y-78308002D01*
X141141550Y-78301054D01*
X141048478Y-78150652D01*
X141043300Y-78145483D01*
X141043296Y-78145478D01*
X140999730Y-78101988D01*
X140965652Y-78039705D01*
X140970655Y-77968885D01*
X140981315Y-77946984D01*
X140990414Y-77932135D01*
X141002036Y-77916137D01*
X141094387Y-77808006D01*
X141107328Y-77795660D01*
X141107322Y-77795654D01*
X141112372Y-77790743D01*
X141117937Y-77786426D01*
X141144758Y-77753773D01*
X141153028Y-77744653D01*
X141732503Y-77165178D01*
X141794815Y-77131152D01*
X141865630Y-77136217D01*
X141922466Y-77178764D01*
X141936022Y-77201519D01*
X142015668Y-77374285D01*
X142019001Y-77379001D01*
X142079504Y-77464610D01*
X142141204Y-77551914D01*
X142272266Y-77679588D01*
X142284741Y-77691741D01*
X142319579Y-77753602D01*
X142315442Y-77824478D01*
X142279899Y-77876726D01*
X142182842Y-77961842D01*
X142179270Y-77966373D01*
X142121460Y-78039705D01*
X142048181Y-78132658D01*
X142045493Y-78137767D01*
X142038714Y-78150652D01*
X141946905Y-78325154D01*
X141945192Y-78330671D01*
X141886181Y-78520716D01*
X141882403Y-78532882D01*
X141856837Y-78748887D01*
X141871063Y-78965933D01*
X141872484Y-78971529D01*
X141872485Y-78971534D01*
X141907879Y-79110896D01*
X141924605Y-79176753D01*
X142015668Y-79374285D01*
X142019001Y-79379001D01*
X142086102Y-79473946D01*
X142141204Y-79551914D01*
X142145346Y-79555949D01*
X142284741Y-79691741D01*
X142319579Y-79753602D01*
X142315442Y-79824478D01*
X142279899Y-79876726D01*
X142182842Y-79961842D01*
X142179270Y-79966373D01*
X142116718Y-80045720D01*
X142048181Y-80132658D01*
X141946905Y-80325154D01*
X141945192Y-80330671D01*
X141897779Y-80483365D01*
X141882403Y-80532882D01*
X141856837Y-80748887D01*
X141871063Y-80965933D01*
X141872484Y-80971529D01*
X141872485Y-80971534D01*
X141918988Y-81154637D01*
X141924605Y-81176753D01*
X141927022Y-81181996D01*
X141941182Y-81212712D01*
X142015668Y-81374285D01*
X142141204Y-81551914D01*
X142145346Y-81555949D01*
X142183716Y-81593327D01*
X142255049Y-81662816D01*
X142284741Y-81691741D01*
X142319579Y-81753602D01*
X142315442Y-81824478D01*
X142279899Y-81876726D01*
X142182842Y-81961842D01*
X142179270Y-81966373D01*
X142084657Y-82086389D01*
X142048181Y-82132658D01*
X142045493Y-82137767D01*
X142018919Y-82188277D01*
X141946905Y-82325154D01*
X141945192Y-82330671D01*
X141896918Y-82486138D01*
X141882403Y-82532882D01*
X141856837Y-82748887D01*
X141871063Y-82965933D01*
X141872484Y-82971529D01*
X141872485Y-82971534D01*
X141900855Y-83083240D01*
X141924605Y-83176753D01*
X142015668Y-83374285D01*
X142019001Y-83379001D01*
X142125211Y-83529284D01*
X142141204Y-83551914D01*
X142285102Y-83692093D01*
X142319938Y-83753952D01*
X142315801Y-83824828D01*
X142280256Y-83877077D01*
X142187552Y-83958376D01*
X142179630Y-83966724D01*
X142052176Y-84128398D01*
X142045914Y-84138041D01*
X141979660Y-84263969D01*
X141976877Y-84277792D01*
X141979273Y-84279529D01*
X141982007Y-84280000D01*
X144099433Y-84280000D01*
X144112964Y-84276027D01*
X144113508Y-84272242D01*
X144113146Y-84271073D01*
X144060549Y-84164417D01*
X144054538Y-84154608D01*
X143931360Y-83989651D01*
X143923671Y-83981111D01*
X143805691Y-83872052D01*
X143769246Y-83811123D01*
X143771527Y-83740163D01*
X143810650Y-83682653D01*
X143828719Y-83667625D01*
X143885446Y-83620446D01*
X144024532Y-83453213D01*
X144130813Y-83263435D01*
X144132669Y-83257968D01*
X144132671Y-83257963D01*
X144198874Y-83062935D01*
X144198875Y-83062930D01*
X144200730Y-83057466D01*
X144231941Y-82842205D01*
X144233570Y-82780000D01*
X144213667Y-82563400D01*
X144154626Y-82354055D01*
X144058423Y-82158974D01*
X143959777Y-82026870D01*
X143931733Y-81989315D01*
X143931732Y-81989314D01*
X143928280Y-81984691D01*
X143806078Y-81871729D01*
X143769633Y-81810800D01*
X143771914Y-81739840D01*
X143811038Y-81682330D01*
X143827111Y-81668963D01*
X143885446Y-81620446D01*
X144024532Y-81453213D01*
X144115613Y-81290576D01*
X144127989Y-81268478D01*
X144127990Y-81268476D01*
X144130813Y-81263435D01*
X144132669Y-81257968D01*
X144132671Y-81257963D01*
X144198874Y-81062935D01*
X144198875Y-81062930D01*
X144200730Y-81057466D01*
X144231941Y-80842205D01*
X144233570Y-80780000D01*
X144213667Y-80563400D01*
X144207982Y-80543240D01*
X144156195Y-80359619D01*
X144154626Y-80354055D01*
X144058423Y-80158974D01*
X143973853Y-80045720D01*
X143931733Y-79989315D01*
X143931732Y-79989314D01*
X143928280Y-79984691D01*
X143806078Y-79871729D01*
X143769633Y-79810800D01*
X143771914Y-79739840D01*
X143811038Y-79682330D01*
X143846765Y-79652617D01*
X143885446Y-79620446D01*
X144024532Y-79453213D01*
X144104138Y-79311067D01*
X144127989Y-79268478D01*
X144127990Y-79268476D01*
X144130813Y-79263435D01*
X144132669Y-79257968D01*
X144132671Y-79257963D01*
X144198874Y-79062935D01*
X144198875Y-79062930D01*
X144200730Y-79057466D01*
X144231941Y-78842205D01*
X144233570Y-78780000D01*
X144213667Y-78563400D01*
X144211005Y-78553959D01*
X144156195Y-78359619D01*
X144154626Y-78354055D01*
X144058423Y-78158974D01*
X143928280Y-77984691D01*
X143879934Y-77940000D01*
X143806078Y-77871729D01*
X143769633Y-77810800D01*
X143771914Y-77739840D01*
X143811038Y-77682330D01*
X143826796Y-77669225D01*
X143885446Y-77620446D01*
X144024532Y-77453213D01*
X144118948Y-77284621D01*
X144127989Y-77268478D01*
X144127990Y-77268476D01*
X144130813Y-77263435D01*
X144132669Y-77257968D01*
X144132671Y-77257963D01*
X144198874Y-77062935D01*
X144198875Y-77062930D01*
X144200730Y-77057466D01*
X144231941Y-76842205D01*
X144233570Y-76780000D01*
X144213667Y-76563400D01*
X144210944Y-76553743D01*
X144161165Y-76377240D01*
X144154626Y-76354055D01*
X144058423Y-76158974D01*
X143997567Y-76077477D01*
X143931733Y-75989315D01*
X143931732Y-75989314D01*
X143928280Y-75984691D01*
X143908342Y-75966260D01*
X143806078Y-75871729D01*
X143769633Y-75810800D01*
X143771914Y-75739840D01*
X143811038Y-75682330D01*
X143812400Y-75681198D01*
X143885446Y-75620446D01*
X144024532Y-75453213D01*
X144107051Y-75305865D01*
X144127989Y-75268478D01*
X144127990Y-75268476D01*
X144130813Y-75263435D01*
X144132669Y-75257968D01*
X144132671Y-75257963D01*
X144198874Y-75062935D01*
X144198875Y-75062930D01*
X144200730Y-75057466D01*
X144231941Y-74842205D01*
X144233570Y-74780000D01*
X144213667Y-74563400D01*
X144197277Y-74505283D01*
X144180814Y-74446913D01*
X144154626Y-74354055D01*
X144058423Y-74158974D01*
X144000996Y-74082069D01*
X143931733Y-73989315D01*
X143931732Y-73989314D01*
X143928280Y-73984691D01*
X143888716Y-73948118D01*
X143806078Y-73871729D01*
X143769633Y-73810800D01*
X143771914Y-73739840D01*
X143811038Y-73682330D01*
X143834568Y-73662761D01*
X143885446Y-73620446D01*
X144024532Y-73453213D01*
X144124421Y-73274849D01*
X144127989Y-73268478D01*
X144127990Y-73268476D01*
X144130813Y-73263435D01*
X144132669Y-73257968D01*
X144132671Y-73257963D01*
X144198874Y-73062935D01*
X144198875Y-73062930D01*
X144200730Y-73057466D01*
X144231941Y-72842205D01*
X144233570Y-72780000D01*
X144213667Y-72563400D01*
X144197748Y-72506953D01*
X144161950Y-72380025D01*
X144154626Y-72354055D01*
X144058423Y-72158974D01*
X144036433Y-72129525D01*
X143979465Y-72053236D01*
X143954733Y-71986686D01*
X143969907Y-71917330D01*
X144004858Y-71877021D01*
X144076080Y-71823643D01*
X144076081Y-71823642D01*
X144083261Y-71818261D01*
X144170615Y-71701705D01*
X144221745Y-71565316D01*
X144228500Y-71503134D01*
X144228500Y-70056866D01*
X144221745Y-69994684D01*
X144170615Y-69858295D01*
X144083261Y-69741739D01*
X143966705Y-69654385D01*
X143830316Y-69603255D01*
X143768134Y-69596500D01*
X142321866Y-69596500D01*
X142259684Y-69603255D01*
X142123295Y-69654385D01*
X142006739Y-69741739D01*
X141919385Y-69858295D01*
X141868255Y-69994684D01*
X141861500Y-70056866D01*
X141861500Y-70767919D01*
X141841498Y-70836040D01*
X141824595Y-70857014D01*
X141701158Y-70980451D01*
X141638846Y-71014477D01*
X141568031Y-71009412D01*
X141511195Y-70966865D01*
X141486384Y-70900345D01*
X141486478Y-70881142D01*
X141512674Y-70559063D01*
X141512856Y-70556826D01*
X141513451Y-70500000D01*
X141510027Y-70443197D01*
X141494026Y-70177793D01*
X141494026Y-70177789D01*
X141493798Y-70174015D01*
X141491998Y-70164155D01*
X141435805Y-69856473D01*
X141435804Y-69856469D01*
X141435125Y-69852751D01*
X141427565Y-69828402D01*
X141373531Y-69654385D01*
X141338282Y-69540863D01*
X141204670Y-69242869D01*
X141036226Y-68963084D01*
X141033899Y-68960100D01*
X141033894Y-68960093D01*
X140842813Y-68715081D01*
X140816693Y-68649064D01*
X140830411Y-68579405D01*
X140879612Y-68528221D01*
X140942318Y-68511594D01*
X143120386Y-68514144D01*
G37*
G04 #@! TD.AperFunction*
M02*
