M48
; DRILL file {KiCad (6.0.10-0)} date Sunday, January 01, 2023 at 02:05:00 AM
; FORMAT={-:-/ absolute / inch / decimal}
; #@! TF.CreationDate,2023-01-01T02:05:00-05:00
; #@! TF.GenerationSoftware,Kicad,Pcbnew,(6.0.10-0)
; #@! TF.FileFunction,Plated,1,4,PTH
FMAT,2
INCH
; #@! TA.AperFunction,Plated,PTH,ViaDrill
T1C0.0157
; #@! TA.AperFunction,Plated,PTH,ComponentDrill
T2C0.0157
; #@! TA.AperFunction,Plated,PTH,ComponentDrill
T3C0.0315
; #@! TA.AperFunction,Plated,PTH,ComponentDrill
T4C0.0394
; #@! TA.AperFunction,Plated,PTH,ComponentDrill
T5C0.0433
; #@! TA.AperFunction,Plated,PTH,ComponentDrill
T6C0.0866
%
G90
G05
T1
X5.4039Y-3.7382
X5.4449Y-3.3465
X5.7402Y-3.626
T2
X5.3996Y-2.7756
X5.4186Y-2.7297
X5.4186Y-2.8215
X5.4646Y-2.7106
X5.4646Y-2.8406
X5.5105Y-2.7297
X5.5105Y-2.8215
X5.5295Y-2.7756
X6.5304Y-2.7798
X6.5494Y-2.7339
X6.5494Y-2.8257
X6.5954Y-2.7148
X6.5954Y-2.8448
X6.6413Y-2.7339
X6.6413Y-2.8257
X6.6603Y-2.7798
T3
X5.6317Y-2.7866
X5.6317Y-2.8654
X5.6317Y-2.9441
X5.6317Y-3.0228
X5.6317Y-3.1016
X5.6317Y-3.1803
X5.6317Y-3.2591
X5.6317Y-3.3378
X5.7579Y-2.74
X5.7579Y-2.84
X5.7579Y-2.94
X5.7579Y-3.04
X5.7579Y-3.14
X5.7579Y-3.24
X5.7579Y-3.34
X5.7579Y-3.44
X6.0579Y-2.74
X6.0579Y-2.84
X6.0579Y-2.94
X6.0579Y-3.04
X6.0579Y-3.14
X6.0579Y-3.24
X6.0579Y-3.34
X6.0579Y-3.44
X6.1829Y-2.7866
X6.1829Y-2.8654
X6.1829Y-2.9441
X6.1829Y-3.0228
X6.1829Y-3.1016
X6.1829Y-3.1803
X6.1829Y-3.2591
X6.1829Y-3.3378
T4
X6.4257Y-2.9685
X6.4257Y-3.0685
X6.4257Y-3.1685
X6.4257Y-3.2685
X6.4257Y-3.3685
X6.4257Y-3.4685
X6.4257Y-3.5685
X6.4257Y-3.6685
X6.5257Y-2.9685
X6.5257Y-3.0685
X6.5257Y-3.1685
X6.5257Y-3.2685
X6.5257Y-3.3685
X6.5257Y-3.4685
X6.5257Y-3.5685
X6.5257Y-3.6685
T5
X5.8848Y-3.6485
X5.9848Y-3.6485
T6
X5.4646Y-2.7756
X6.5954Y-2.7798
T0
M30
