G04 #@! TF.GenerationSoftware,KiCad,Pcbnew,(6.0.10-0)*
G04 #@! TF.CreationDate,2023-01-01T02:05:10-05:00*
G04 #@! TF.ProjectId,8CT-PowerMeter,3843542d-506f-4776-9572-4d657465722e,rev?*
G04 #@! TF.SameCoordinates,Original*
G04 #@! TF.FileFunction,Legend,Top*
G04 #@! TF.FilePolarity,Positive*
%FSLAX46Y46*%
G04 Gerber Fmt 4.6, Leading zero omitted, Abs format (unit mm)*
G04 Created by KiCad (PCBNEW (6.0.10-0)) date 2023-01-01 02:05:10*
%MOMM*%
%LPD*%
G01*
G04 APERTURE LIST*
%ADD10C,0.150000*%
%ADD11C,0.110000*%
%ADD12C,0.120000*%
%ADD13C,0.100000*%
%ADD14C,0.010000*%
G04 APERTURE END LIST*
D10*
X151488476Y-88462000D02*
X151412285Y-88423904D01*
X151298000Y-88423904D01*
X151183714Y-88462000D01*
X151107523Y-88538190D01*
X151069428Y-88614380D01*
X151031333Y-88766761D01*
X151031333Y-88881047D01*
X151069428Y-89033428D01*
X151107523Y-89109619D01*
X151183714Y-89185809D01*
X151298000Y-89223904D01*
X151374190Y-89223904D01*
X151488476Y-89185809D01*
X151526571Y-89147714D01*
X151526571Y-88881047D01*
X151374190Y-88881047D01*
X151869428Y-89223904D02*
X151869428Y-88423904D01*
X152326571Y-89223904D01*
X152326571Y-88423904D01*
X152707523Y-89223904D02*
X152707523Y-88423904D01*
X152898000Y-88423904D01*
X153012285Y-88462000D01*
X153088476Y-88538190D01*
X153126571Y-88614380D01*
X153164666Y-88766761D01*
X153164666Y-88881047D01*
X153126571Y-89033428D01*
X153088476Y-89109619D01*
X153012285Y-89185809D01*
X152898000Y-89223904D01*
X152707523Y-89223904D01*
X147513428Y-88919142D02*
X148122952Y-88919142D01*
X147818190Y-89223904D02*
X147818190Y-88614380D01*
X148884857Y-88423904D02*
X148503904Y-88423904D01*
X148465809Y-88804857D01*
X148503904Y-88766761D01*
X148580095Y-88728666D01*
X148770571Y-88728666D01*
X148846761Y-88766761D01*
X148884857Y-88804857D01*
X148922952Y-88881047D01*
X148922952Y-89071523D01*
X148884857Y-89147714D01*
X148846761Y-89185809D01*
X148770571Y-89223904D01*
X148580095Y-89223904D01*
X148503904Y-89185809D01*
X148465809Y-89147714D01*
X149151523Y-88423904D02*
X149418190Y-89223904D01*
X149684857Y-88423904D01*
D11*
X148628571Y-79557142D02*
X148828571Y-79557142D01*
X148914285Y-79871428D02*
X148628571Y-79871428D01*
X148628571Y-79271428D01*
X148914285Y-79271428D01*
X149142857Y-79842857D02*
X149228571Y-79871428D01*
X149371428Y-79871428D01*
X149428571Y-79842857D01*
X149457142Y-79814285D01*
X149485714Y-79757142D01*
X149485714Y-79700000D01*
X149457142Y-79642857D01*
X149428571Y-79614285D01*
X149371428Y-79585714D01*
X149257142Y-79557142D01*
X149200000Y-79528571D01*
X149171428Y-79500000D01*
X149142857Y-79442857D01*
X149142857Y-79385714D01*
X149171428Y-79328571D01*
X149200000Y-79300000D01*
X149257142Y-79271428D01*
X149400000Y-79271428D01*
X149485714Y-79300000D01*
X149742857Y-79871428D02*
X149742857Y-79271428D01*
X149971428Y-79271428D01*
X150028571Y-79300000D01*
X150057142Y-79328571D01*
X150085714Y-79385714D01*
X150085714Y-79471428D01*
X150057142Y-79528571D01*
X150028571Y-79557142D01*
X149971428Y-79585714D01*
X149742857Y-79585714D01*
X150342857Y-79642857D02*
X150800000Y-79642857D01*
X151171428Y-79528571D02*
X151114285Y-79500000D01*
X151085714Y-79471428D01*
X151057142Y-79414285D01*
X151057142Y-79385714D01*
X151085714Y-79328571D01*
X151114285Y-79300000D01*
X151171428Y-79271428D01*
X151285714Y-79271428D01*
X151342857Y-79300000D01*
X151371428Y-79328571D01*
X151400000Y-79385714D01*
X151400000Y-79414285D01*
X151371428Y-79471428D01*
X151342857Y-79500000D01*
X151285714Y-79528571D01*
X151171428Y-79528571D01*
X151114285Y-79557142D01*
X151085714Y-79585714D01*
X151057142Y-79642857D01*
X151057142Y-79757142D01*
X151085714Y-79814285D01*
X151114285Y-79842857D01*
X151171428Y-79871428D01*
X151285714Y-79871428D01*
X151342857Y-79842857D01*
X151371428Y-79814285D01*
X151400000Y-79757142D01*
X151400000Y-79642857D01*
X151371428Y-79585714D01*
X151342857Y-79557142D01*
X151285714Y-79528571D01*
X149185714Y-77071428D02*
X149300000Y-77471428D01*
X149414285Y-77185714D01*
X149528571Y-77471428D01*
X149642857Y-77071428D01*
X149871428Y-77471428D02*
X149871428Y-77071428D01*
X149871428Y-76871428D02*
X149842857Y-76900000D01*
X149871428Y-76928571D01*
X149900000Y-76900000D01*
X149871428Y-76871428D01*
X149871428Y-76928571D01*
X150071428Y-77071428D02*
X150300000Y-77071428D01*
X150157142Y-76871428D02*
X150157142Y-77385714D01*
X150185714Y-77442857D01*
X150242857Y-77471428D01*
X150300000Y-77471428D01*
X150500000Y-77471428D02*
X150500000Y-76871428D01*
X150757142Y-77471428D02*
X150757142Y-77157142D01*
X150728571Y-77100000D01*
X150671428Y-77071428D01*
X150585714Y-77071428D01*
X150528571Y-77100000D01*
X150500000Y-77128571D01*
X148628571Y-78357142D02*
X148828571Y-78357142D01*
X148914285Y-78671428D02*
X148628571Y-78671428D01*
X148628571Y-78071428D01*
X148914285Y-78071428D01*
X149142857Y-78642857D02*
X149228571Y-78671428D01*
X149371428Y-78671428D01*
X149428571Y-78642857D01*
X149457142Y-78614285D01*
X149485714Y-78557142D01*
X149485714Y-78500000D01*
X149457142Y-78442857D01*
X149428571Y-78414285D01*
X149371428Y-78385714D01*
X149257142Y-78357142D01*
X149200000Y-78328571D01*
X149171428Y-78300000D01*
X149142857Y-78242857D01*
X149142857Y-78185714D01*
X149171428Y-78128571D01*
X149200000Y-78100000D01*
X149257142Y-78071428D01*
X149400000Y-78071428D01*
X149485714Y-78100000D01*
X149742857Y-78671428D02*
X149742857Y-78071428D01*
X149971428Y-78071428D01*
X150028571Y-78100000D01*
X150057142Y-78128571D01*
X150085714Y-78185714D01*
X150085714Y-78271428D01*
X150057142Y-78328571D01*
X150028571Y-78357142D01*
X149971428Y-78385714D01*
X149742857Y-78385714D01*
X150342857Y-78442857D02*
X150800000Y-78442857D01*
X151028571Y-78071428D02*
X151428571Y-78071428D01*
X151171428Y-78671428D01*
X156797142Y-89341428D02*
X156797142Y-89827142D01*
X156768571Y-89884285D01*
X156740000Y-89912857D01*
X156682857Y-89941428D01*
X156597142Y-89941428D01*
X156540000Y-89912857D01*
X156797142Y-89712857D02*
X156740000Y-89741428D01*
X156625714Y-89741428D01*
X156568571Y-89712857D01*
X156540000Y-89684285D01*
X156511428Y-89627142D01*
X156511428Y-89455714D01*
X156540000Y-89398571D01*
X156568571Y-89370000D01*
X156625714Y-89341428D01*
X156740000Y-89341428D01*
X156797142Y-89370000D01*
X157082857Y-89741428D02*
X157082857Y-89341428D01*
X157082857Y-89141428D02*
X157054285Y-89170000D01*
X157082857Y-89198571D01*
X157111428Y-89170000D01*
X157082857Y-89141428D01*
X157082857Y-89198571D01*
X157282857Y-89341428D02*
X157511428Y-89341428D01*
X157368571Y-89141428D02*
X157368571Y-89655714D01*
X157397142Y-89712857D01*
X157454285Y-89741428D01*
X157511428Y-89741428D01*
X157711428Y-89741428D02*
X157711428Y-89141428D01*
X157968571Y-89741428D02*
X157968571Y-89427142D01*
X157940000Y-89370000D01*
X157882857Y-89341428D01*
X157797142Y-89341428D01*
X157740000Y-89370000D01*
X157711428Y-89398571D01*
X158511428Y-89341428D02*
X158511428Y-89741428D01*
X158254285Y-89341428D02*
X158254285Y-89655714D01*
X158282857Y-89712857D01*
X158340000Y-89741428D01*
X158425714Y-89741428D01*
X158482857Y-89712857D01*
X158511428Y-89684285D01*
X158797142Y-89741428D02*
X158797142Y-89141428D01*
X158797142Y-89370000D02*
X158854285Y-89341428D01*
X158968571Y-89341428D01*
X159025714Y-89370000D01*
X159054285Y-89398571D01*
X159082857Y-89455714D01*
X159082857Y-89627142D01*
X159054285Y-89684285D01*
X159025714Y-89712857D01*
X158968571Y-89741428D01*
X158854285Y-89741428D01*
X158797142Y-89712857D01*
X159340000Y-89684285D02*
X159368571Y-89712857D01*
X159340000Y-89741428D01*
X159311428Y-89712857D01*
X159340000Y-89684285D01*
X159340000Y-89741428D01*
X159340000Y-89370000D02*
X159368571Y-89398571D01*
X159340000Y-89427142D01*
X159311428Y-89398571D01*
X159340000Y-89370000D01*
X159340000Y-89427142D01*
X156311428Y-90421714D02*
X156282857Y-90393142D01*
X156225714Y-90364571D01*
X156168571Y-90364571D01*
X156111428Y-90393142D01*
X156082857Y-90421714D01*
X156054285Y-90478857D01*
X156054285Y-90536000D01*
X156082857Y-90593142D01*
X156111428Y-90621714D01*
X156168571Y-90650285D01*
X156225714Y-90650285D01*
X156282857Y-90621714D01*
X156311428Y-90593142D01*
X156311428Y-90364571D02*
X156311428Y-90593142D01*
X156340000Y-90621714D01*
X156368571Y-90621714D01*
X156425714Y-90593142D01*
X156454285Y-90536000D01*
X156454285Y-90393142D01*
X156397142Y-90307428D01*
X156311428Y-90250285D01*
X156197142Y-90221714D01*
X156082857Y-90250285D01*
X155997142Y-90307428D01*
X155940000Y-90393142D01*
X155911428Y-90507428D01*
X155940000Y-90621714D01*
X155997142Y-90707428D01*
X156082857Y-90764571D01*
X156197142Y-90793142D01*
X156311428Y-90764571D01*
X156397142Y-90707428D01*
X156711428Y-90307428D02*
X156711428Y-90821714D01*
X156682857Y-90878857D01*
X156625714Y-90907428D01*
X156597142Y-90907428D01*
X156711428Y-90107428D02*
X156682857Y-90136000D01*
X156711428Y-90164571D01*
X156740000Y-90136000D01*
X156711428Y-90107428D01*
X156711428Y-90164571D01*
X156968571Y-90678857D02*
X157025714Y-90707428D01*
X157140000Y-90707428D01*
X157197142Y-90678857D01*
X157225714Y-90621714D01*
X157225714Y-90593142D01*
X157197142Y-90536000D01*
X157140000Y-90507428D01*
X157054285Y-90507428D01*
X156997142Y-90478857D01*
X156968571Y-90421714D01*
X156968571Y-90393142D01*
X156997142Y-90336000D01*
X157054285Y-90307428D01*
X157140000Y-90307428D01*
X157197142Y-90336000D01*
X157482857Y-90307428D02*
X157482857Y-90821714D01*
X157454285Y-90878857D01*
X157397142Y-90907428D01*
X157368571Y-90907428D01*
X157482857Y-90107428D02*
X157454285Y-90136000D01*
X157482857Y-90164571D01*
X157511428Y-90136000D01*
X157482857Y-90107428D01*
X157482857Y-90164571D01*
X157854285Y-90707428D02*
X157797142Y-90678857D01*
X157768571Y-90650285D01*
X157740000Y-90593142D01*
X157740000Y-90421714D01*
X157768571Y-90364571D01*
X157797142Y-90336000D01*
X157854285Y-90307428D01*
X157940000Y-90307428D01*
X157997142Y-90336000D01*
X158025714Y-90364571D01*
X158054285Y-90421714D01*
X158054285Y-90593142D01*
X158025714Y-90650285D01*
X157997142Y-90678857D01*
X157940000Y-90707428D01*
X157854285Y-90707428D01*
X158311428Y-90707428D02*
X158311428Y-90107428D01*
X158568571Y-90707428D02*
X158568571Y-90393142D01*
X158540000Y-90336000D01*
X158482857Y-90307428D01*
X158397142Y-90307428D01*
X158340000Y-90336000D01*
X158311428Y-90364571D01*
X158854285Y-90307428D02*
X158854285Y-90707428D01*
X158854285Y-90364571D02*
X158882857Y-90336000D01*
X158940000Y-90307428D01*
X159025714Y-90307428D01*
X159082857Y-90336000D01*
X159111428Y-90393142D01*
X159111428Y-90707428D01*
X159368571Y-90678857D02*
X159425714Y-90707428D01*
X159540000Y-90707428D01*
X159597142Y-90678857D01*
X159625714Y-90621714D01*
X159625714Y-90593142D01*
X159597142Y-90536000D01*
X159540000Y-90507428D01*
X159454285Y-90507428D01*
X159397142Y-90478857D01*
X159368571Y-90421714D01*
X159368571Y-90393142D01*
X159397142Y-90336000D01*
X159454285Y-90307428D01*
X159540000Y-90307428D01*
X159597142Y-90336000D01*
X159797142Y-90307428D02*
X160025714Y-90307428D01*
X159882857Y-90107428D02*
X159882857Y-90621714D01*
X159911428Y-90678857D01*
X159968571Y-90707428D01*
X160025714Y-90707428D01*
X156354285Y-92639428D02*
X156354285Y-92039428D01*
X156582857Y-92039428D01*
X156640000Y-92068000D01*
X156668571Y-92096571D01*
X156697142Y-92153714D01*
X156697142Y-92239428D01*
X156668571Y-92296571D01*
X156640000Y-92325142D01*
X156582857Y-92353714D01*
X156354285Y-92353714D01*
X156954285Y-92639428D02*
X156954285Y-92239428D01*
X156954285Y-92353714D02*
X156982857Y-92296571D01*
X157011428Y-92268000D01*
X157068571Y-92239428D01*
X157125714Y-92239428D01*
X157411428Y-92639428D02*
X157354285Y-92610857D01*
X157325714Y-92582285D01*
X157297142Y-92525142D01*
X157297142Y-92353714D01*
X157325714Y-92296571D01*
X157354285Y-92268000D01*
X157411428Y-92239428D01*
X157497142Y-92239428D01*
X157554285Y-92268000D01*
X157582857Y-92296571D01*
X157611428Y-92353714D01*
X157611428Y-92525142D01*
X157582857Y-92582285D01*
X157554285Y-92610857D01*
X157497142Y-92639428D01*
X157411428Y-92639428D01*
X157868571Y-92239428D02*
X157868571Y-92753714D01*
X157840000Y-92810857D01*
X157782857Y-92839428D01*
X157754285Y-92839428D01*
X157868571Y-92039428D02*
X157840000Y-92068000D01*
X157868571Y-92096571D01*
X157897142Y-92068000D01*
X157868571Y-92039428D01*
X157868571Y-92096571D01*
X158382857Y-92610857D02*
X158325714Y-92639428D01*
X158211428Y-92639428D01*
X158154285Y-92610857D01*
X158125714Y-92553714D01*
X158125714Y-92325142D01*
X158154285Y-92268000D01*
X158211428Y-92239428D01*
X158325714Y-92239428D01*
X158382857Y-92268000D01*
X158411428Y-92325142D01*
X158411428Y-92382285D01*
X158125714Y-92439428D01*
X158925714Y-92610857D02*
X158868571Y-92639428D01*
X158754285Y-92639428D01*
X158697142Y-92610857D01*
X158668571Y-92582285D01*
X158640000Y-92525142D01*
X158640000Y-92353714D01*
X158668571Y-92296571D01*
X158697142Y-92268000D01*
X158754285Y-92239428D01*
X158868571Y-92239428D01*
X158925714Y-92268000D01*
X159097142Y-92239428D02*
X159325714Y-92239428D01*
X159182857Y-92039428D02*
X159182857Y-92553714D01*
X159211428Y-92610857D01*
X159268571Y-92639428D01*
X159325714Y-92639428D01*
X159525714Y-92582285D02*
X159554285Y-92610857D01*
X159525714Y-92639428D01*
X159497142Y-92610857D01*
X159525714Y-92582285D01*
X159525714Y-92639428D01*
X159525714Y-92268000D02*
X159554285Y-92296571D01*
X159525714Y-92325142D01*
X159497142Y-92296571D01*
X159525714Y-92268000D01*
X159525714Y-92325142D01*
X155168571Y-93605428D02*
X155168571Y-93005428D01*
X155397142Y-93005428D01*
X155454285Y-93034000D01*
X155482857Y-93062571D01*
X155511428Y-93119714D01*
X155511428Y-93205428D01*
X155482857Y-93262571D01*
X155454285Y-93291142D01*
X155397142Y-93319714D01*
X155168571Y-93319714D01*
X155854285Y-93605428D02*
X155797142Y-93576857D01*
X155768571Y-93548285D01*
X155740000Y-93491142D01*
X155740000Y-93319714D01*
X155768571Y-93262571D01*
X155797142Y-93234000D01*
X155854285Y-93205428D01*
X155940000Y-93205428D01*
X155997142Y-93234000D01*
X156025714Y-93262571D01*
X156054285Y-93319714D01*
X156054285Y-93491142D01*
X156025714Y-93548285D01*
X155997142Y-93576857D01*
X155940000Y-93605428D01*
X155854285Y-93605428D01*
X156254285Y-93205428D02*
X156368571Y-93605428D01*
X156482857Y-93319714D01*
X156597142Y-93605428D01*
X156711428Y-93205428D01*
X157168571Y-93576857D02*
X157111428Y-93605428D01*
X156997142Y-93605428D01*
X156940000Y-93576857D01*
X156911428Y-93519714D01*
X156911428Y-93291142D01*
X156940000Y-93234000D01*
X156997142Y-93205428D01*
X157111428Y-93205428D01*
X157168571Y-93234000D01*
X157197142Y-93291142D01*
X157197142Y-93348285D01*
X156911428Y-93405428D01*
X157454285Y-93605428D02*
X157454285Y-93205428D01*
X157454285Y-93319714D02*
X157482857Y-93262571D01*
X157511428Y-93234000D01*
X157568571Y-93205428D01*
X157625714Y-93205428D01*
X157825714Y-93376857D02*
X158282857Y-93376857D01*
X158568571Y-93605428D02*
X158568571Y-93005428D01*
X158768571Y-93434000D01*
X158968571Y-93005428D01*
X158968571Y-93605428D01*
X159482857Y-93576857D02*
X159425714Y-93605428D01*
X159311428Y-93605428D01*
X159254285Y-93576857D01*
X159225714Y-93519714D01*
X159225714Y-93291142D01*
X159254285Y-93234000D01*
X159311428Y-93205428D01*
X159425714Y-93205428D01*
X159482857Y-93234000D01*
X159511428Y-93291142D01*
X159511428Y-93348285D01*
X159225714Y-93405428D01*
X159682857Y-93205428D02*
X159911428Y-93205428D01*
X159768571Y-93005428D02*
X159768571Y-93519714D01*
X159797142Y-93576857D01*
X159854285Y-93605428D01*
X159911428Y-93605428D01*
X160340000Y-93576857D02*
X160282857Y-93605428D01*
X160168571Y-93605428D01*
X160111428Y-93576857D01*
X160082857Y-93519714D01*
X160082857Y-93291142D01*
X160111428Y-93234000D01*
X160168571Y-93205428D01*
X160282857Y-93205428D01*
X160340000Y-93234000D01*
X160368571Y-93291142D01*
X160368571Y-93348285D01*
X160082857Y-93405428D01*
X160625714Y-93605428D02*
X160625714Y-93205428D01*
X160625714Y-93319714D02*
X160654285Y-93262571D01*
X160682857Y-93234000D01*
X160740000Y-93205428D01*
X160797142Y-93205428D01*
X148342857Y-80757142D02*
X148542857Y-80757142D01*
X148628571Y-81071428D02*
X148342857Y-81071428D01*
X148342857Y-80471428D01*
X148628571Y-80471428D01*
X148857142Y-81042857D02*
X148942857Y-81071428D01*
X149085714Y-81071428D01*
X149142857Y-81042857D01*
X149171428Y-81014285D01*
X149200000Y-80957142D01*
X149200000Y-80900000D01*
X149171428Y-80842857D01*
X149142857Y-80814285D01*
X149085714Y-80785714D01*
X148971428Y-80757142D01*
X148914285Y-80728571D01*
X148885714Y-80700000D01*
X148857142Y-80642857D01*
X148857142Y-80585714D01*
X148885714Y-80528571D01*
X148914285Y-80500000D01*
X148971428Y-80471428D01*
X149114285Y-80471428D01*
X149200000Y-80500000D01*
X149457142Y-81071428D02*
X149457142Y-80471428D01*
X149685714Y-80471428D01*
X149742857Y-80500000D01*
X149771428Y-80528571D01*
X149800000Y-80585714D01*
X149800000Y-80671428D01*
X149771428Y-80728571D01*
X149742857Y-80757142D01*
X149685714Y-80785714D01*
X149457142Y-80785714D01*
X150057142Y-80842857D02*
X150514285Y-80842857D01*
X151114285Y-81071428D02*
X150771428Y-81071428D01*
X150942857Y-81071428D02*
X150942857Y-80471428D01*
X150885714Y-80557142D01*
X150828571Y-80614285D01*
X150771428Y-80642857D01*
X151342857Y-80528571D02*
X151371428Y-80500000D01*
X151428571Y-80471428D01*
X151571428Y-80471428D01*
X151628571Y-80500000D01*
X151657142Y-80528571D01*
X151685714Y-80585714D01*
X151685714Y-80642857D01*
X151657142Y-80728571D01*
X151314285Y-81071428D01*
X151685714Y-81071428D01*
X147971428Y-76214285D02*
X147942857Y-76242857D01*
X147857142Y-76271428D01*
X147800000Y-76271428D01*
X147714285Y-76242857D01*
X147657142Y-76185714D01*
X147628571Y-76128571D01*
X147600000Y-76014285D01*
X147600000Y-75928571D01*
X147628571Y-75814285D01*
X147657142Y-75757142D01*
X147714285Y-75700000D01*
X147800000Y-75671428D01*
X147857142Y-75671428D01*
X147942857Y-75700000D01*
X147971428Y-75728571D01*
X148314285Y-76271428D02*
X148257142Y-76242857D01*
X148228571Y-76214285D01*
X148200000Y-76157142D01*
X148200000Y-75985714D01*
X148228571Y-75928571D01*
X148257142Y-75900000D01*
X148314285Y-75871428D01*
X148400000Y-75871428D01*
X148457142Y-75900000D01*
X148485714Y-75928571D01*
X148514285Y-75985714D01*
X148514285Y-76157142D01*
X148485714Y-76214285D01*
X148457142Y-76242857D01*
X148400000Y-76271428D01*
X148314285Y-76271428D01*
X148771428Y-76271428D02*
X148771428Y-75871428D01*
X148771428Y-75928571D02*
X148800000Y-75900000D01*
X148857142Y-75871428D01*
X148942857Y-75871428D01*
X149000000Y-75900000D01*
X149028571Y-75957142D01*
X149028571Y-76271428D01*
X149028571Y-75957142D02*
X149057142Y-75900000D01*
X149114285Y-75871428D01*
X149200000Y-75871428D01*
X149257142Y-75900000D01*
X149285714Y-75957142D01*
X149285714Y-76271428D01*
X149571428Y-75871428D02*
X149571428Y-76471428D01*
X149571428Y-75900000D02*
X149628571Y-75871428D01*
X149742857Y-75871428D01*
X149800000Y-75900000D01*
X149828571Y-75928571D01*
X149857142Y-75985714D01*
X149857142Y-76157142D01*
X149828571Y-76214285D01*
X149800000Y-76242857D01*
X149742857Y-76271428D01*
X149628571Y-76271428D01*
X149571428Y-76242857D01*
X150371428Y-76271428D02*
X150371428Y-75957142D01*
X150342857Y-75900000D01*
X150285714Y-75871428D01*
X150171428Y-75871428D01*
X150114285Y-75900000D01*
X150371428Y-76242857D02*
X150314285Y-76271428D01*
X150171428Y-76271428D01*
X150114285Y-76242857D01*
X150085714Y-76185714D01*
X150085714Y-76128571D01*
X150114285Y-76071428D01*
X150171428Y-76042857D01*
X150314285Y-76042857D01*
X150371428Y-76014285D01*
X150571428Y-75871428D02*
X150800000Y-75871428D01*
X150657142Y-75671428D02*
X150657142Y-76185714D01*
X150685714Y-76242857D01*
X150742857Y-76271428D01*
X150800000Y-76271428D01*
X151000000Y-76271428D02*
X151000000Y-75871428D01*
X151000000Y-75671428D02*
X150971428Y-75700000D01*
X151000000Y-75728571D01*
X151028571Y-75700000D01*
X151000000Y-75671428D01*
X151000000Y-75728571D01*
X151285714Y-76271428D02*
X151285714Y-75671428D01*
X151285714Y-75900000D02*
X151342857Y-75871428D01*
X151457142Y-75871428D01*
X151514285Y-75900000D01*
X151542857Y-75928571D01*
X151571428Y-75985714D01*
X151571428Y-76157142D01*
X151542857Y-76214285D01*
X151514285Y-76242857D01*
X151457142Y-76271428D01*
X151342857Y-76271428D01*
X151285714Y-76242857D01*
X151914285Y-76271428D02*
X151857142Y-76242857D01*
X151828571Y-76185714D01*
X151828571Y-75671428D01*
X152371428Y-76242857D02*
X152314285Y-76271428D01*
X152200000Y-76271428D01*
X152142857Y-76242857D01*
X152114285Y-76185714D01*
X152114285Y-75957142D01*
X152142857Y-75900000D01*
X152200000Y-75871428D01*
X152314285Y-75871428D01*
X152371428Y-75900000D01*
X152400000Y-75957142D01*
X152400000Y-76014285D01*
X152114285Y-76071428D01*
D12*
X137350000Y-86416666D02*
X137383333Y-86450000D01*
X137416666Y-86550000D01*
X137416666Y-86616666D01*
X137383333Y-86716666D01*
X137316666Y-86783333D01*
X137250000Y-86816666D01*
X137116666Y-86850000D01*
X137016666Y-86850000D01*
X136883333Y-86816666D01*
X136816666Y-86783333D01*
X136750000Y-86716666D01*
X136716666Y-86616666D01*
X136716666Y-86550000D01*
X136750000Y-86450000D01*
X136783333Y-86416666D01*
X136783333Y-86150000D02*
X136750000Y-86116666D01*
X136716666Y-86050000D01*
X136716666Y-85883333D01*
X136750000Y-85816666D01*
X136783333Y-85783333D01*
X136850000Y-85750000D01*
X136916666Y-85750000D01*
X137016666Y-85783333D01*
X137416666Y-86183333D01*
X137416666Y-85750000D01*
X138050000Y-83883333D02*
X138083333Y-83850000D01*
X138150000Y-83816666D01*
X138316666Y-83816666D01*
X138383333Y-83850000D01*
X138416666Y-83883333D01*
X138450000Y-83950000D01*
X138450000Y-84016666D01*
X138416666Y-84116666D01*
X138016666Y-84516666D01*
X138450000Y-84516666D01*
X138716666Y-83883333D02*
X138750000Y-83850000D01*
X138816666Y-83816666D01*
X138983333Y-83816666D01*
X139050000Y-83850000D01*
X139083333Y-83883333D01*
X139116666Y-83950000D01*
X139116666Y-84016666D01*
X139083333Y-84116666D01*
X138683333Y-84516666D01*
X139116666Y-84516666D01*
X139416666Y-84050000D02*
X139416666Y-84750000D01*
X139750000Y-84416666D02*
X139783333Y-84483333D01*
X139850000Y-84516666D01*
X139416666Y-84416666D02*
X139450000Y-84483333D01*
X139516666Y-84516666D01*
X139650000Y-84516666D01*
X139716666Y-84483333D01*
X139750000Y-84416666D01*
X139750000Y-84050000D01*
X140383333Y-84150000D02*
X140150000Y-84150000D01*
X140150000Y-84516666D02*
X140150000Y-83816666D01*
X140483333Y-83816666D01*
X137516666Y-74916666D02*
X137183333Y-75150000D01*
X137516666Y-75316666D02*
X136816666Y-75316666D01*
X136816666Y-75050000D01*
X136850000Y-74983333D01*
X136883333Y-74950000D01*
X136950000Y-74916666D01*
X137050000Y-74916666D01*
X137116666Y-74950000D01*
X137150000Y-74983333D01*
X137183333Y-75050000D01*
X137183333Y-75316666D01*
X136816666Y-74683333D02*
X136816666Y-74250000D01*
X137083333Y-74483333D01*
X137083333Y-74383333D01*
X137116666Y-74316666D01*
X137150000Y-74283333D01*
X137216666Y-74250000D01*
X137383333Y-74250000D01*
X137450000Y-74283333D01*
X137483333Y-74316666D01*
X137516666Y-74383333D01*
X137516666Y-74583333D01*
X137483333Y-74650000D01*
X137450000Y-74683333D01*
X138483333Y-76616666D02*
X138083333Y-76616666D01*
X138283333Y-76616666D02*
X138283333Y-75916666D01*
X138216666Y-76016666D01*
X138150000Y-76083333D01*
X138083333Y-76116666D01*
X138916666Y-75916666D02*
X138983333Y-75916666D01*
X139050000Y-75950000D01*
X139083333Y-75983333D01*
X139116666Y-76050000D01*
X139150000Y-76183333D01*
X139150000Y-76350000D01*
X139116666Y-76483333D01*
X139083333Y-76550000D01*
X139050000Y-76583333D01*
X138983333Y-76616666D01*
X138916666Y-76616666D01*
X138850000Y-76583333D01*
X138816666Y-76550000D01*
X138783333Y-76483333D01*
X138750000Y-76350000D01*
X138750000Y-76183333D01*
X138783333Y-76050000D01*
X138816666Y-75983333D01*
X138850000Y-75950000D01*
X138916666Y-75916666D01*
X139450000Y-76616666D02*
X139450000Y-75916666D01*
X139516666Y-76350000D02*
X139716666Y-76616666D01*
X139716666Y-76150000D02*
X139450000Y-76416666D01*
X139983333Y-76616666D02*
X140150000Y-76616666D01*
X140150000Y-76483333D01*
X140083333Y-76450000D01*
X140016666Y-76383333D01*
X139983333Y-76283333D01*
X139983333Y-76116666D01*
X140016666Y-76016666D01*
X140083333Y-75950000D01*
X140183333Y-75916666D01*
X140316666Y-75916666D01*
X140416666Y-75950000D01*
X140483333Y-76016666D01*
X140516666Y-76116666D01*
X140516666Y-76283333D01*
X140483333Y-76383333D01*
X140416666Y-76450000D01*
X140350000Y-76483333D01*
X140350000Y-76616666D01*
X140516666Y-76616666D01*
X159601333Y-80791666D02*
X159368000Y-80458333D01*
X159201333Y-80791666D02*
X159201333Y-80091666D01*
X159468000Y-80091666D01*
X159534666Y-80125000D01*
X159568000Y-80158333D01*
X159601333Y-80225000D01*
X159601333Y-80325000D01*
X159568000Y-80391666D01*
X159534666Y-80425000D01*
X159468000Y-80458333D01*
X159201333Y-80458333D01*
X160201333Y-80325000D02*
X160201333Y-80791666D01*
X160034666Y-80058333D02*
X159868000Y-80558333D01*
X160301333Y-80558333D01*
X161534666Y-83391666D02*
X161534666Y-83791666D01*
X161534666Y-83591666D02*
X160834666Y-83591666D01*
X160934666Y-83658333D01*
X161001333Y-83725000D01*
X161034666Y-83791666D01*
X160834666Y-82958333D02*
X160834666Y-82891666D01*
X160868000Y-82825000D01*
X160901333Y-82791666D01*
X160968000Y-82758333D01*
X161101333Y-82725000D01*
X161268000Y-82725000D01*
X161401333Y-82758333D01*
X161468000Y-82791666D01*
X161501333Y-82825000D01*
X161534666Y-82891666D01*
X161534666Y-82958333D01*
X161501333Y-83025000D01*
X161468000Y-83058333D01*
X161401333Y-83091666D01*
X161268000Y-83125000D01*
X161101333Y-83125000D01*
X160968000Y-83091666D01*
X160901333Y-83058333D01*
X160868000Y-83025000D01*
X160834666Y-82958333D01*
X161534666Y-82425000D02*
X160834666Y-82425000D01*
X161268000Y-82358333D02*
X161534666Y-82158333D01*
X161068000Y-82158333D02*
X161334666Y-82425000D01*
X161534666Y-81891666D02*
X161534666Y-81725000D01*
X161401333Y-81725000D01*
X161368000Y-81791666D01*
X161301333Y-81858333D01*
X161201333Y-81891666D01*
X161034666Y-81891666D01*
X160934666Y-81858333D01*
X160868000Y-81791666D01*
X160834666Y-81691666D01*
X160834666Y-81558333D01*
X160868000Y-81458333D01*
X160934666Y-81391666D01*
X161034666Y-81358333D01*
X161201333Y-81358333D01*
X161301333Y-81391666D01*
X161368000Y-81458333D01*
X161401333Y-81525000D01*
X161534666Y-81525000D01*
X161534666Y-81358333D01*
X139883333Y-78016666D02*
X139650000Y-77683333D01*
X139483333Y-78016666D02*
X139483333Y-77316666D01*
X139750000Y-77316666D01*
X139816666Y-77350000D01*
X139850000Y-77383333D01*
X139883333Y-77450000D01*
X139883333Y-77550000D01*
X139850000Y-77616666D01*
X139816666Y-77650000D01*
X139750000Y-77683333D01*
X139483333Y-77683333D01*
X140550000Y-78016666D02*
X140150000Y-78016666D01*
X140350000Y-78016666D02*
X140350000Y-77316666D01*
X140283333Y-77416666D01*
X140216666Y-77483333D01*
X140150000Y-77516666D01*
X138916666Y-80616666D02*
X138916666Y-81016666D01*
X138916666Y-80816666D02*
X138216666Y-80816666D01*
X138316666Y-80883333D01*
X138383333Y-80950000D01*
X138416666Y-81016666D01*
X138216666Y-80183333D02*
X138216666Y-80116666D01*
X138250000Y-80050000D01*
X138283333Y-80016666D01*
X138350000Y-79983333D01*
X138483333Y-79950000D01*
X138650000Y-79950000D01*
X138783333Y-79983333D01*
X138850000Y-80016666D01*
X138883333Y-80050000D01*
X138916666Y-80116666D01*
X138916666Y-80183333D01*
X138883333Y-80250000D01*
X138850000Y-80283333D01*
X138783333Y-80316666D01*
X138650000Y-80350000D01*
X138483333Y-80350000D01*
X138350000Y-80316666D01*
X138283333Y-80283333D01*
X138250000Y-80250000D01*
X138216666Y-80183333D01*
X138916666Y-79650000D02*
X138216666Y-79650000D01*
X138650000Y-79583333D02*
X138916666Y-79383333D01*
X138450000Y-79383333D02*
X138716666Y-79650000D01*
X138916666Y-79116666D02*
X138916666Y-78950000D01*
X138783333Y-78950000D01*
X138750000Y-79016666D01*
X138683333Y-79083333D01*
X138583333Y-79116666D01*
X138416666Y-79116666D01*
X138316666Y-79083333D01*
X138250000Y-79016666D01*
X138216666Y-78916666D01*
X138216666Y-78783333D01*
X138250000Y-78683333D01*
X138316666Y-78616666D01*
X138416666Y-78583333D01*
X138583333Y-78583333D01*
X138683333Y-78616666D01*
X138750000Y-78683333D01*
X138783333Y-78750000D01*
X138916666Y-78750000D01*
X138916666Y-78583333D01*
D13*
X137842857Y-89071428D02*
X137842857Y-89557142D01*
X137871428Y-89614285D01*
X137900000Y-89642857D01*
X137957142Y-89671428D01*
X138071428Y-89671428D01*
X138128571Y-89642857D01*
X138157142Y-89614285D01*
X138185714Y-89557142D01*
X138185714Y-89071428D01*
X138785714Y-89671428D02*
X138442857Y-89671428D01*
X138614285Y-89671428D02*
X138614285Y-89071428D01*
X138557142Y-89157142D01*
X138500000Y-89214285D01*
X138442857Y-89242857D01*
X154074000Y-89543428D02*
X154074000Y-89972000D01*
X154045428Y-90057714D01*
X153988285Y-90114857D01*
X153902571Y-90143428D01*
X153845428Y-90143428D01*
X154674000Y-90143428D02*
X154331142Y-90143428D01*
X154502571Y-90143428D02*
X154502571Y-89543428D01*
X154445428Y-89629142D01*
X154388285Y-89686285D01*
X154331142Y-89714857D01*
D12*
X145683333Y-89350000D02*
X145650000Y-89383333D01*
X145550000Y-89416666D01*
X145483333Y-89416666D01*
X145383333Y-89383333D01*
X145316666Y-89316666D01*
X145283333Y-89250000D01*
X145250000Y-89116666D01*
X145250000Y-89016666D01*
X145283333Y-88883333D01*
X145316666Y-88816666D01*
X145383333Y-88750000D01*
X145483333Y-88716666D01*
X145550000Y-88716666D01*
X145650000Y-88750000D01*
X145683333Y-88783333D01*
X146350000Y-89416666D02*
X145950000Y-89416666D01*
X146150000Y-89416666D02*
X146150000Y-88716666D01*
X146083333Y-88816666D01*
X146016666Y-88883333D01*
X145950000Y-88916666D01*
X145456000Y-90448666D02*
X145056000Y-90448666D01*
X145256000Y-90448666D02*
X145256000Y-89748666D01*
X145189333Y-89848666D01*
X145122666Y-89915333D01*
X145056000Y-89948666D01*
X145889333Y-89748666D02*
X145956000Y-89748666D01*
X146022666Y-89782000D01*
X146056000Y-89815333D01*
X146089333Y-89882000D01*
X146122666Y-90015333D01*
X146122666Y-90182000D01*
X146089333Y-90315333D01*
X146056000Y-90382000D01*
X146022666Y-90415333D01*
X145956000Y-90448666D01*
X145889333Y-90448666D01*
X145822666Y-90415333D01*
X145789333Y-90382000D01*
X145756000Y-90315333D01*
X145722666Y-90182000D01*
X145722666Y-90015333D01*
X145756000Y-89882000D01*
X145789333Y-89815333D01*
X145822666Y-89782000D01*
X145889333Y-89748666D01*
X146422666Y-89982000D02*
X146422666Y-90682000D01*
X146756000Y-90348666D02*
X146789333Y-90415333D01*
X146856000Y-90448666D01*
X146422666Y-90348666D02*
X146456000Y-90415333D01*
X146522666Y-90448666D01*
X146656000Y-90448666D01*
X146722666Y-90415333D01*
X146756000Y-90348666D01*
X146756000Y-89982000D01*
X147389333Y-90082000D02*
X147156000Y-90082000D01*
X147156000Y-90448666D02*
X147156000Y-89748666D01*
X147489333Y-89748666D01*
X145300000Y-91150000D02*
X145300000Y-91850000D01*
X145633333Y-91516666D02*
X145666666Y-91583333D01*
X145733333Y-91616666D01*
X145300000Y-91516666D02*
X145333333Y-91583333D01*
X145400000Y-91616666D01*
X145533333Y-91616666D01*
X145600000Y-91583333D01*
X145633333Y-91516666D01*
X145633333Y-91150000D01*
X146266666Y-91250000D02*
X146033333Y-91250000D01*
X146033333Y-91616666D02*
X146033333Y-90916666D01*
X146366666Y-90916666D01*
D13*
X141342857Y-68271428D02*
X141342857Y-68757142D01*
X141371428Y-68814285D01*
X141400000Y-68842857D01*
X141457142Y-68871428D01*
X141571428Y-68871428D01*
X141628571Y-68842857D01*
X141657142Y-68814285D01*
X141685714Y-68757142D01*
X141685714Y-68271428D01*
X141942857Y-68328571D02*
X141971428Y-68300000D01*
X142028571Y-68271428D01*
X142171428Y-68271428D01*
X142228571Y-68300000D01*
X142257142Y-68328571D01*
X142285714Y-68385714D01*
X142285714Y-68442857D01*
X142257142Y-68528571D01*
X141914285Y-68871428D01*
X142285714Y-68871428D01*
D12*
X168655533Y-73623666D02*
X168655533Y-72923666D01*
X168888866Y-73423666D01*
X169122200Y-72923666D01*
X169122200Y-73623666D01*
X169422200Y-72990333D02*
X169455533Y-72957000D01*
X169522200Y-72923666D01*
X169688866Y-72923666D01*
X169755533Y-72957000D01*
X169788866Y-72990333D01*
X169822200Y-73057000D01*
X169822200Y-73123666D01*
X169788866Y-73223666D01*
X169388866Y-73623666D01*
X169822200Y-73623666D01*
D10*
X159892666Y-74344380D02*
X159892666Y-75058666D01*
X159845047Y-75201523D01*
X159749809Y-75296761D01*
X159606952Y-75344380D01*
X159511714Y-75344380D01*
X160321238Y-74439619D02*
X160368857Y-74392000D01*
X160464095Y-74344380D01*
X160702190Y-74344380D01*
X160797428Y-74392000D01*
X160845047Y-74439619D01*
X160892666Y-74534857D01*
X160892666Y-74630095D01*
X160845047Y-74772952D01*
X160273619Y-75344380D01*
X160892666Y-75344380D01*
D12*
X136533333Y-73516666D02*
X136533333Y-72816666D01*
X136766666Y-73316666D01*
X137000000Y-72816666D01*
X137000000Y-73516666D01*
X137300000Y-72883333D02*
X137333333Y-72850000D01*
X137400000Y-72816666D01*
X137566666Y-72816666D01*
X137633333Y-72850000D01*
X137666666Y-72883333D01*
X137700000Y-72950000D01*
X137700000Y-73016666D01*
X137666666Y-73116666D01*
X137266666Y-73516666D01*
X137700000Y-73516666D01*
X139511252Y-87035000D02*
X138988748Y-87035000D01*
X139511252Y-85565000D02*
X138988748Y-85565000D01*
X139072936Y-74065000D02*
X139527064Y-74065000D01*
X139072936Y-75535000D02*
X139527064Y-75535000D01*
X158983000Y-82802064D02*
X158983000Y-82347936D01*
X160453000Y-82802064D02*
X160453000Y-82347936D01*
X140735000Y-80027064D02*
X140735000Y-79572936D01*
X139265000Y-80027064D02*
X139265000Y-79572936D01*
X144610000Y-93650000D02*
X144610000Y-89890000D01*
X144610000Y-89890000D02*
X143350000Y-89890000D01*
X137790000Y-89890000D02*
X139050000Y-89890000D01*
X137790000Y-95900000D02*
X137790000Y-89890000D01*
X147914000Y-89972000D02*
X153574000Y-89972000D01*
X147914000Y-95272000D02*
X153574000Y-95272000D01*
X147914000Y-89512000D02*
X153574000Y-89512000D01*
X147914000Y-89512000D02*
X147914000Y-95832000D01*
X153574000Y-89512000D02*
X153574000Y-95832000D01*
X147914000Y-95832000D02*
X153574000Y-95832000D01*
X145065000Y-94561252D02*
X145065000Y-94038748D01*
X146535000Y-94561252D02*
X146535000Y-94038748D01*
X152795000Y-69080000D02*
X147295000Y-69080000D01*
X155985000Y-69700500D02*
X155985000Y-85840000D01*
X144105000Y-69700500D02*
X144105000Y-85840000D01*
X145195000Y-69080000D02*
X141295000Y-69080000D01*
X155985000Y-85840000D02*
X158105000Y-85840000D01*
X155985000Y-69700500D02*
X158105000Y-69700500D01*
X158795000Y-86530000D02*
X158795000Y-69080000D01*
X141985000Y-85840000D02*
X144105000Y-85840000D01*
X158795000Y-86530000D02*
X154595000Y-86530000D01*
X158795000Y-69080000D02*
X154895000Y-69080000D01*
X145095000Y-86530000D02*
X141295000Y-86530000D01*
X141295000Y-86530000D02*
X141295000Y-69080000D01*
X153095000Y-86530000D02*
X147395000Y-86530000D01*
X158105000Y-69700500D02*
X158105000Y-85840000D01*
X141985000Y-69700500D02*
X144105000Y-69700500D01*
X141985000Y-69700500D02*
X141985000Y-85840000D01*
G36*
X161026100Y-69678650D02*
G01*
X160791150Y-69678650D01*
X160791150Y-69443700D01*
X161026100Y-69443700D01*
X161026100Y-69678650D01*
G37*
D14*
X161026100Y-69678650D02*
X160791150Y-69678650D01*
X160791150Y-69443700D01*
X161026100Y-69443700D01*
X161026100Y-69678650D01*
G36*
X160791150Y-69913600D02*
G01*
X161026100Y-69913600D01*
X161026100Y-70618450D01*
X160791150Y-70618450D01*
X160791150Y-70853400D01*
X160086300Y-70853400D01*
X160086300Y-70383500D01*
X160321250Y-70383500D01*
X160321250Y-69913600D01*
X160556200Y-69913600D01*
X160556200Y-69678650D01*
X160791150Y-69678650D01*
X160791150Y-69913600D01*
G37*
X160791150Y-69913600D02*
X161026100Y-69913600D01*
X161026100Y-70618450D01*
X160791150Y-70618450D01*
X160791150Y-70853400D01*
X160086300Y-70853400D01*
X160086300Y-70383500D01*
X160321250Y-70383500D01*
X160321250Y-69913600D01*
X160556200Y-69913600D01*
X160556200Y-69678650D01*
X160791150Y-69678650D01*
X160791150Y-69913600D01*
G36*
X161026100Y-72733000D02*
G01*
X160556200Y-72733000D01*
X160556200Y-72498050D01*
X161026100Y-72498050D01*
X161026100Y-72733000D01*
G37*
X161026100Y-72733000D02*
X160556200Y-72733000D01*
X160556200Y-72498050D01*
X161026100Y-72498050D01*
X161026100Y-72733000D01*
G36*
X161965900Y-72967950D02*
G01*
X161026100Y-72967950D01*
X161026100Y-72733000D01*
X161965900Y-72733000D01*
X161965900Y-72967950D01*
G37*
X161965900Y-72967950D02*
X161026100Y-72967950D01*
X161026100Y-72733000D01*
X161965900Y-72733000D01*
X161965900Y-72967950D01*
G36*
X161965900Y-71088350D02*
G01*
X162200850Y-71088350D01*
X162200850Y-71793200D01*
X161965900Y-71793200D01*
X161965900Y-72028150D01*
X161261050Y-72028150D01*
X161261050Y-71793200D01*
X161026100Y-71793200D01*
X161026100Y-71088350D01*
X161261050Y-71088350D01*
X161261050Y-70853400D01*
X161965900Y-70853400D01*
X161965900Y-71088350D01*
G37*
X161965900Y-71088350D02*
X162200850Y-71088350D01*
X162200850Y-71793200D01*
X161965900Y-71793200D01*
X161965900Y-72028150D01*
X161261050Y-72028150D01*
X161261050Y-71793200D01*
X161026100Y-71793200D01*
X161026100Y-71088350D01*
X161261050Y-71088350D01*
X161261050Y-70853400D01*
X161965900Y-70853400D01*
X161965900Y-71088350D01*
G36*
X160086300Y-71323300D02*
G01*
X160556200Y-71323300D01*
X160556200Y-71558250D01*
X160791150Y-71558250D01*
X160791150Y-72263100D01*
X160556200Y-72263100D01*
X160556200Y-72498050D01*
X160321250Y-72498050D01*
X160321250Y-72263100D01*
X160086300Y-72263100D01*
X160086300Y-71793200D01*
X159851350Y-71793200D01*
X159851350Y-70853400D01*
X160086300Y-70853400D01*
X160086300Y-71323300D01*
G37*
X160086300Y-71323300D02*
X160556200Y-71323300D01*
X160556200Y-71558250D01*
X160791150Y-71558250D01*
X160791150Y-72263100D01*
X160556200Y-72263100D01*
X160556200Y-72498050D01*
X160321250Y-72498050D01*
X160321250Y-72263100D01*
X160086300Y-72263100D01*
X160086300Y-71793200D01*
X159851350Y-71793200D01*
X159851350Y-70853400D01*
X160086300Y-70853400D01*
X160086300Y-71323300D01*
G36*
X163140650Y-71793200D02*
G01*
X162905700Y-71793200D01*
X162905700Y-72263100D01*
X162670750Y-72263100D01*
X162670750Y-72498050D01*
X162435800Y-72498050D01*
X162435800Y-72733000D01*
X161965900Y-72733000D01*
X161965900Y-72498050D01*
X162200850Y-72498050D01*
X162200850Y-71793200D01*
X162435800Y-71793200D01*
X162435800Y-71558250D01*
X162905700Y-71558250D01*
X162905700Y-70853400D01*
X163140650Y-70853400D01*
X163140650Y-71793200D01*
G37*
X163140650Y-71793200D02*
X162905700Y-71793200D01*
X162905700Y-72263100D01*
X162670750Y-72263100D01*
X162670750Y-72498050D01*
X162435800Y-72498050D01*
X162435800Y-72733000D01*
X161965900Y-72733000D01*
X161965900Y-72498050D01*
X162200850Y-72498050D01*
X162200850Y-71793200D01*
X162435800Y-71793200D01*
X162435800Y-71558250D01*
X162905700Y-71558250D01*
X162905700Y-70853400D01*
X163140650Y-70853400D01*
X163140650Y-71793200D01*
G36*
X162905700Y-70853400D02*
G01*
X162670750Y-70853400D01*
X162670750Y-70383500D01*
X162905700Y-70383500D01*
X162905700Y-70853400D01*
G37*
X162905700Y-70853400D02*
X162670750Y-70853400D01*
X162670750Y-70383500D01*
X162905700Y-70383500D01*
X162905700Y-70853400D01*
G36*
X161965900Y-69443700D02*
G01*
X161026100Y-69443700D01*
X161026100Y-69208750D01*
X161965900Y-69208750D01*
X161965900Y-69443700D01*
G37*
X161965900Y-69443700D02*
X161026100Y-69443700D01*
X161026100Y-69208750D01*
X161965900Y-69208750D01*
X161965900Y-69443700D01*
G36*
X162200850Y-69678650D02*
G01*
X162435800Y-69678650D01*
X162435800Y-69913600D01*
X162670750Y-69913600D01*
X162670750Y-70383500D01*
X162435800Y-70383500D01*
X162435800Y-70618450D01*
X161965900Y-70618450D01*
X161965900Y-70383500D01*
X161730950Y-70383500D01*
X161730950Y-69678650D01*
X161965900Y-69678650D01*
X161965900Y-69443700D01*
X162200850Y-69443700D01*
X162200850Y-69678650D01*
G37*
X162200850Y-69678650D02*
X162435800Y-69678650D01*
X162435800Y-69913600D01*
X162670750Y-69913600D01*
X162670750Y-70383500D01*
X162435800Y-70383500D01*
X162435800Y-70618450D01*
X161965900Y-70618450D01*
X161965900Y-70383500D01*
X161730950Y-70383500D01*
X161730950Y-69678650D01*
X161965900Y-69678650D01*
X161965900Y-69443700D01*
X162200850Y-69443700D01*
X162200850Y-69678650D01*
D12*
X167192000Y-74070000D02*
X167192000Y-94510000D01*
X164254929Y-90260000D02*
X164709071Y-90260000D01*
X169852000Y-74070000D02*
X167192000Y-74070000D01*
X169852000Y-77560000D02*
X175852000Y-77560000D01*
X167192000Y-89370000D02*
X169852000Y-89370000D01*
X169852000Y-92800000D02*
X175852000Y-92800000D01*
X175852000Y-85940000D02*
X169852000Y-85940000D01*
X164254929Y-82640000D02*
X164709071Y-82640000D01*
X169852000Y-90260000D02*
X175852000Y-90260000D01*
X167192000Y-81750000D02*
X169852000Y-81750000D01*
X166794929Y-91020000D02*
X167192000Y-91020000D01*
X167192000Y-86830000D02*
X169852000Y-86830000D01*
X164254929Y-78320000D02*
X164709071Y-78320000D01*
X175852000Y-93560000D02*
X169852000Y-93560000D01*
X164254929Y-88480000D02*
X164709071Y-88480000D01*
X166794929Y-75780000D02*
X167192000Y-75780000D01*
X175852000Y-75020000D02*
X175852000Y-75780000D01*
X169852000Y-75440000D02*
X175852000Y-75440000D01*
X175852000Y-85180000D02*
X175852000Y-85940000D01*
X166794929Y-80860000D02*
X167192000Y-80860000D01*
X166794929Y-82640000D02*
X167192000Y-82640000D01*
X164322000Y-75780000D02*
X164709071Y-75780000D01*
X164254929Y-87720000D02*
X164709071Y-87720000D01*
X161942000Y-75400000D02*
X161942000Y-74130000D01*
X175852000Y-82640000D02*
X175852000Y-83400000D01*
X175852000Y-77560000D02*
X175852000Y-78320000D01*
X175852000Y-88480000D02*
X169852000Y-88480000D01*
X169852000Y-87720000D02*
X175852000Y-87720000D01*
X164254929Y-80100000D02*
X164709071Y-80100000D01*
X166794929Y-85180000D02*
X167192000Y-85180000D01*
X169852000Y-94510000D02*
X169852000Y-74070000D01*
X166794929Y-78320000D02*
X167192000Y-78320000D01*
X175852000Y-91020000D02*
X169852000Y-91020000D01*
X169852000Y-82640000D02*
X175852000Y-82640000D01*
X175852000Y-75780000D02*
X169852000Y-75780000D01*
X164254929Y-77560000D02*
X164709071Y-77560000D01*
X166794929Y-83400000D02*
X167192000Y-83400000D01*
X161942000Y-74130000D02*
X163212000Y-74130000D01*
X167192000Y-91910000D02*
X169852000Y-91910000D01*
X166794929Y-92800000D02*
X167192000Y-92800000D01*
X169852000Y-75560000D02*
X175852000Y-75560000D01*
X167192000Y-94510000D02*
X169852000Y-94510000D01*
X164254929Y-83400000D02*
X164709071Y-83400000D01*
X164254929Y-92800000D02*
X164709071Y-92800000D01*
X167192000Y-79210000D02*
X169852000Y-79210000D01*
X169852000Y-80100000D02*
X175852000Y-80100000D01*
X175852000Y-92800000D02*
X175852000Y-93560000D01*
X166794929Y-88480000D02*
X167192000Y-88480000D01*
X166794929Y-93560000D02*
X167192000Y-93560000D01*
X164254929Y-91020000D02*
X164709071Y-91020000D01*
X164254929Y-80860000D02*
X164709071Y-80860000D01*
X166794929Y-90260000D02*
X167192000Y-90260000D01*
X164254929Y-85940000D02*
X164709071Y-85940000D01*
X169852000Y-75320000D02*
X175852000Y-75320000D01*
X175852000Y-87720000D02*
X175852000Y-88480000D01*
X166794929Y-80100000D02*
X167192000Y-80100000D01*
X175852000Y-80100000D02*
X175852000Y-80860000D01*
X166794929Y-85940000D02*
X167192000Y-85940000D01*
X166794929Y-75020000D02*
X167192000Y-75020000D01*
X169852000Y-75020000D02*
X175852000Y-75020000D01*
X169852000Y-75680000D02*
X175852000Y-75680000D01*
X175852000Y-90260000D02*
X175852000Y-91020000D01*
X166794929Y-77560000D02*
X167192000Y-77560000D01*
X175852000Y-80860000D02*
X169852000Y-80860000D01*
X175852000Y-78320000D02*
X169852000Y-78320000D01*
X169852000Y-85180000D02*
X175852000Y-85180000D01*
X175852000Y-83400000D02*
X169852000Y-83400000D01*
X169852000Y-75200000D02*
X175852000Y-75200000D01*
X167192000Y-76670000D02*
X169852000Y-76670000D01*
X164254929Y-93560000D02*
X164709071Y-93560000D01*
X164322000Y-75020000D02*
X164709071Y-75020000D01*
X166794929Y-87720000D02*
X167192000Y-87720000D01*
X167192000Y-84290000D02*
X169852000Y-84290000D01*
X164254929Y-85180000D02*
X164709071Y-85180000D01*
X169852000Y-75080000D02*
X175852000Y-75080000D01*
M02*
